  0
SECTION
  2
HEADER
  9
$ACADVER
  1
AC1009
  9
$INSBASE
 10
0.0
 20
0.0
 30
0.0
  9
$EXTMIN
 10
0.0
 20
0.0
 30
0.0
  9
$EXTMAX
 10
35.272592947111583
 20
68.530000480267773
 30
0.0
  9
$LIMMIN
 10
0.0
 20
0.0
  9
$LIMMAX
 10
35.272592947111583
 20
68.530000480267773
  9
$ORTHOMODE
 70
     0
  9
$REGENMODE
 70
     1
  9
$FILLMODE
 70
     1
  9
$QTEXTMODE
 70
     0
  9
$MIRRTEXT
 70
     0
  9
$DRAGMODE
 70
     2
  9
$LTSCALE
 40
1.0
  9
$OSMODE
 70
     0
  9
$ATTMODE
 70
     1
  9
$TEXTSIZE
 40
0.2
  9
$TRACEWID
 40
0.05
  9
$TEXTSTYLE
  7
STANDARD
  9
$CLAYER
  8
0
  9
$CELTYPE
  6
BYLAYER
  9
$CECOLOR
 62
   256
  9
$DIMSCALE
 40
1.0
  9
$DIMASZ
 40
1.7999999999999989
  9
$DIMEXO
 40
0.0625
  9
$DIMDLI
 40
0.38
  9
$DIMRND
 40
0.0
  9
$DIMDLE
 40
0.0
  9
$DIMEXE
 40
0.18
  9
$DIMTP
 40
0.0
  9
$DIMTM
 40
0.0
  9
$DIMTXT
 40
1.7999999999999989
  9
$DIMCEN
 40
0.09
  9
$DIMTSZ
 40
0.0
  9
$DIMTOL
 70
     0
  9
$DIMLIM
 70
     0
  9
$DIMTIH
 70
     1
  9
$DIMTOH
 70
     1
  9
$DIMSE1
 70
     0
  9
$DIMSE2
 70
     0
  9
$DIMTAD
 70
     0
  9
$DIMZIN
 70
     0
  9
$DIMBLK
  1

  9
$DIMASO
 70
     1
  9
$DIMSHO
 70
     1
  9
$DIMPOST
  1

  9
$DIMAPOST
  1

  9
$DIMALT
 70
     0
  9
$DIMALTD
 70
     2
  9
$DIMALTF
 40
25.399999999999999
  9
$DIMLFAC
 40
1.0
  9
$DIMTOFL
 70
     0
  9
$DIMTVP
 40
0.0
  9
$DIMTIX
 70
     0
  9
$DIMSOXD
 70
     0
  9
$DIMSAH
 70
     0
  9
$DIMBLK1
  1

  9
$DIMBLK2
  1

  9
$DIMSTYLE
  2
STANDARD
  9
$DIMCLRD
 70
     0
  9
$DIMCLRE
 70
     0
  9
$DIMCLRT
 70
     0
  9
$DIMTFAC
 40
1.0
  9
$DIMGAP
 40
0.09
  9
$LUNITS
 70
     2
  9
$LUPREC
 70
     4
  9
$SKETCHINC
 40
0.1
  9
$FILLETRAD
 40
0.0
  9
$AUNITS
 70
     0
  9
$AUPREC
 70
     0
  9
$MENU
  1
.
  9
$ELEVATION
 40
0.0
  9
$PELEVATION
 40
0.0
  9
$THICKNESS
 40
0.0
  9
$LIMCHECK
 70
     0
  9
$BLIPMODE
 70
     0
  9
$CHAMFERA
 40
0.0
  9
$CHAMFERB
 40
0.0
  9
$SKPOLY
 70
     0
  9
$TDCREATE
 40
2457857.1068985881
  9
$TDUPDATE
 40
2457857.1068985881
  9
$TDINDWG
 40
0.000156875
  9
$TDUSRTIMER
 40
0.000156875
  9
$USRTIMER
 70
     1
  9
$ANGBASE
 50
0.0
  9
$ANGDIR
 70
     0
  9
$PDMODE
 70
     0
  9
$PDSIZE
 40
0.0
  9
$PLINEWID
 40
0.0
  9
$COORDS
 70
     0
  9
$SPLFRAME
 70
     0
  9
$SPLINETYPE
 70
     6
  9
$SPLINESEGS
 70
     8
  9
$ATTDIA
 70
     0
  9
$ATTREQ
 70
     1
  9
$HANDLING
 70
     1
  9
$HANDSEED
  5
416
  9
$SURFTAB1
 70
     6
  9
$SURFTAB2
 70
     6
  9
$SURFTYPE
 70
     6
  9
$SURFU
 70
     6
  9
$SURFV
 70
     6
  9
$UCSNAME
  2

  9
$UCSORG
 10
0.0
 20
0.0
 30
0.0
  9
$UCSXDIR
 10
1.0
 20
0.0
 30
0.0
  9
$UCSYDIR
 10
0.0
 20
1.0
 30
0.0
  9
$PUCSNAME
  2

  9
$PUCSORG
 10
0.0
 20
0.0
 30
0.0
  9
$PUCSXDIR
 10
1.0
 20
0.0
 30
0.0
  9
$PUCSYDIR
 10
0.0
 20
1.0
 30
0.0
  9
$USERI1
 70
     0
  9
$USERI2
 70
     0
  9
$USERI3
 70
     0
  9
$USERI4
 70
     0
  9
$USERI5
 70
     0
  9
$USERR1
 40
0.0
  9
$USERR2
 40
0.0
  9
$USERR3
 40
0.0
  9
$USERR4
 40
0.0
  9
$USERR5
 40
0.0
  9
$WORLDVIEW
 70
     1
  9
$SHADEDGE
 70
     3
  9
$SHADEDIF
 70
    70
  9
$TILEMODE
 70
     1
  9
$MAXACTVP
 70
    64
  9
$PLIMCHECK
 70
     0
  9
$PEXTMIN
 10
0.0
 20
0.0
 30
0.0
  9
$PEXTMAX
 10
35.272592947111583
 20
68.530000480267773
 30
0.0
  9
$PLIMMIN
 10
0.0
 20
0.0
  9
$PLIMMAX
 10
35.272592947111583
 20
68.530000480267773
  9
$UNITMODE
 70
     0
  9
$VISRETAIN
 70
     1
  9
$PLINEGEN
 70
     0
  9
$PSLTSCALE
 70
     1
  0
ENDSEC
  0
SECTION
  2
TABLES
  0
TABLE
  2
VPORT
 70
     1
  0
VPORT
  2
*ACTIVE
 70
     0
 10
0.0
 20
0.0
 11
1.0
 21
1.0
 12
-5.0329965941416166
 22
-31.150000018303519
 13
0.0
 23
0.0
 14
1.0
 24
1.0
 15
0.0
 25
0.0
 16
0.0
 26
0.0
 36
1.0
 17
0.0
 27
0.0
 37
0.0
 40
68.530000480267773
 41
0.5147029432353181
 42
50.0
 43
0.0
 44
0.0
 50
0.0
 51
0.0
 71
     0
 72
   100
 73
     1
 74
     1
 75
     0
 76
     0
 77
     0
 78
     0
  0
ENDTAB
  0
TABLE
  2
LTYPE
 70
    59
  0
LTYPE
  2
CONTINUOUS
 70
     0
  3
Solid line
 72
    65
 73
     0
 40
0.0
  0
LTYPE
  2
PHANTOM2
 70
     0
  3
Phantom (.5x) ___ _ _ ___ _ _ ___ _ _ ___ _ _
 72
    65
 73
     6
 40
1.25
 49
0.625
 49
-0.125
 49
0.125
 49
-0.125
 49
0.125
 49
-0.125
  0
LTYPE
  2
BY_STANDARD
 70
     0
  3
By Standard ____________    ____    ____   _
 72
    65
 73
     6
 40
1.2402999999999991
 49
0.6614
 49
-0.0827
 49
0.1654
 49
-0.0827
 49
0.1654
 49
-0.0827
  0
LTYPE
  2
CHAIN
 70
     0
  3
Chain ____ _ ____ _ ____ _ ____ _ ____ _ ____
 72
    65
 73
     4
 40
0.7087
 49
0.4724000000000001
 49
-0.0591
 49
0.1181
 49
-0.0591
  0
LTYPE
  2
DASH_DOT
 70
     0
  3
Dash dot __ . __ . __ . __ . __ . __ . __ . __
 72
    65
 73
     4
 40
0.37
 49
0.24
 49
-0.06
 49
0.01
 49
-0.06
  0
LTYPE
  2
DOUBLE_DASH_DOT
 70
     0
  3
Double-Dash Dot __ __ . __ __ . __ __ . __ _
 72
    65
 73
     6
 40
0.4398
 49
0.24
 49
-0.06
 49
0.0098
 49
-0.06
 49
0.01
 49
-0.06
  0
LTYPE
  2
DASH_TRIPLE_DOT
 70
     0
  3
Dash Triple-Dot _ . . . _ . . . _ . . . _
 72
    65
 73
     8
 40
0.51
 49
0.24
 49
-0.06
 49
0.01
 49
-0.06
 49
0.01
 49
-0.06
 49
0.01
 49
-0.06
  0
LTYPE
  2
DASHED
 70
     0
  3
Dashed __ __ __ __ __ __ __ __ __ __ __ __ __ _
 72
    65
 73
     2
 40
0.2067
 49
0.1654
 49
-0.0413
  0
LTYPE
  2
DASH_DOUBLE_DOT
 70
     0
  3
Dash Double-Dot __ . . __ . . __ . . __ . .
 72
    65
 73
     6
 40
0.4398
 49
0.24
 49
-0.06
 49
0.0098
 49
-0.06
 49
0.01
 49
-0.06
  0
LTYPE
  2
DASHED_SPACE
 70
     0
  3
Dashed Space __ __ __ __ __ __ __ __ __ __ __ _
 72
    65
 73
     2
 40
0.2067
 49
0.1654
 49
-0.0413
  0
LTYPE
  2
DOTTED
 70
     0
  3
Dotted . . . . . . . . . . . . . . . . . . . . 
 72
    65
 73
     2
 40
0.0482
 49
0.0069
 49
-0.0413
  0
LTYPE
  2
DOUBLE_DASH_CHAIN
 70
     0
  3
Double-Dash Chain ______  __  __  ______  __  _
 72
    65
 73
     6
 40
1.2402999999999991
 49
0.6614
 49
-0.0827
 49
0.1654
 49
-0.0827
 49
0.1654
 49
-0.0827
  0
LTYPE
  2
DOUBLE_DASH_DOUBLE_DOT
 70
     0
  3
Double-Dash Double-dot _ _ . . _ _ . . _
 72
    65
 73
     8
 40
0.7400000000000001
 49
0.24
 49
-0.06
 49
0.24
 49
-0.06
 49
0.01
 49
-0.06
 49
0.01
 49
-0.06
  0
LTYPE
  2
DOUBLE_DASH_TRIPLE_DOT
 70
     0
  3
Double Dash Triple Dot __ __ . . . __ __ . .
 72
    65
 73
    10
 40
0.8100000000000001
 49
0.24
 49
-0.06
 49
0.24
 49
-0.06
 49
0.01
 49
-0.06
 49
0.01
 49
-0.06
 49
0.01
 49
-0.06
  0
LTYPE
  2
LONG_DASH_DOTTED
 70
     0
  3
Long Dash Dotted ____ . ____ . ____ . ____ . _
 72
    65
 73
     4
 40
0.3543
 49
0.2362
 49
-0.0295
 49
0.0591
 49
-0.0295
  0
LTYPE
  2
LONG_DASH_DOUBLE_DOT
 70
     0
  3
Long Dash Double Dot ________  .  .  ________  
 72
    65
 73
     6
 40
0.6799999999999999
 49
0.48
 49
-0.06
 49
0.01
 49
-0.06
 49
0.01
 49
-0.06
  0
LTYPE
  2
LONG_DASH_TRIPLE_DOT
 70
     0
  3
Long Dash Triple Dot ____ ... ____ ... ____
 72
    65
 73
     8
 40
0.3689
 49
0.2362
 49
-0.0295
 49
0.0049
 49
-0.0295
 49
0.0049
 49
-0.0295
 49
0.0049
 49
-0.0295
  0
LTYPE
  2
BORDER
 70
     0
  3
Border __ __ . __ __ . __ __ . __ __ . __ __ .
 72
    65
 73
     6
 40
1.75
 49
0.5
 49
-0.25
 49
0.5
 49
-0.25
 49
0.0
 49
-0.25
  0
LTYPE
  2
BORDER2
 70
     0
  3
Border (.5x) __.__.__.__.__.__.__.__.__.__.__.
 72
    65
 73
     6
 40
0.875
 49
0.25
 49
-0.125
 49
0.25
 49
-0.125
 49
0.0
 49
-0.125
  0
LTYPE
  2
BORDERX2
 70
     0
  3
Border (2x) ____  ____  .  ____  ____  .  ___
 72
    65
 73
     6
 40
3.5
 49
1.0
 49
-0.5
 49
1.0
 49
-0.5
 49
0.0
 49
-0.5
  0
LTYPE
  2
CENTER
 70
     0
  3
Center ____ _ ____ _ ____ _ ____ _ ____ _ ____
 72
    65
 73
     4
 40
2.0
 49
1.25
 49
-0.25
 49
0.25
 49
-0.25
  0
LTYPE
  2
CENTER2
 70
     0
  3
Center (.5x) ___ _ ___ _ ___ _ ___ _ ___ _ ___
 72
    65
 73
     4
 40
1.125
 49
0.75
 49
-0.125
 49
0.125
 49
-0.125
  0
LTYPE
  2
CENTERX2
 70
     0
  3
Center (2x) ________  __  ________  __  _____
 72
    65
 73
     4
 40
4.0
 49
2.5
 49
-0.5
 49
0.5
 49
-0.5
  0
LTYPE
  2
DASHDOT2
 70
     0
  3
Dash dot (.5x) _._._._._._._._._._._._._._._.
 72
    65
 73
     4
 40
0.5
 49
0.25
 49
-0.125
 49
0.0
 49
-0.125
  0
LTYPE
  2
DASHDOTX2
 70
     0
  3
Dash dot (2x) ____  .  ____  .  ____  .  ___
 72
    65
 73
     4
 40
2.0
 49
1.0
 49
-0.5
 49
0.0
 49
-0.5
  0
LTYPE
  2
DASHED2
 70
     0
  3
Dashed (.5x) _ _ _ _ _ _ _ _ _ _ _ _ _ _ _ _ _
 72
    65
 73
     2
 40
0.375
 49
0.25
 49
-0.125
  0
LTYPE
  2
DASHEDX2
 70
     0
  3
Dashed (2x) ____  ____  ____  ____  ____  ___
 72
    65
 73
     2
 40
1.5
 49
1.0
 49
-0.5
  0
LTYPE
  2
DIVIDE
 70
     0
  3
Divide ____ . . ____ . . ____ . . ____ . . ____
 72
    65
 73
     6
 40
1.25
 49
0.5
 49
-0.25
 49
0.0
 49
-0.25
 49
0.0
 49
-0.25
  0
LTYPE
  2
DIVIDE2
 70
     0
  3
Divide (.5x) __..__..__..__..__..__..__..__.._
 72
    65
 73
     6
 40
0.625
 49
0.25
 49
-0.125
 49
0.0
 49
-0.125
 49
0.0
 49
-0.125
  0
LTYPE
  2
DIVIDEX2
 70
     0
  3
Divide (2x) ________  .  .  ________  .  .  _
 72
    65
 73
     6
 40
2.5
 49
1.0
 49
-0.5
 49
0.0
 49
-0.5
 49
0.0
 49
-0.5
  0
LTYPE
  2
DOT
 70
     0
  3
Dot . . . . . . . . . . . . . . . . . . . . . .
 72
    65
 73
     2
 40
0.25
 49
0.0
 49
-0.25
  0
LTYPE
  2
DOT2
 70
     0
  3
Dot (.5x) .....................................
 72
    65
 73
     2
 40
0.125
 49
0.0
 49
-0.125
  0
LTYPE
  2
DOTX2
 70
     0
  3
Dot (2x) .  .  .  .  .  .  .  .  .  .  .  .  . 
 72
    65
 73
     2
 40
0.5
 49
0.0
 49
-0.5
  0
LTYPE
  2
HIDDEN
 70
     0
  3
Hidden __ __ __ __ __ __ __ __ __ __ __ __ __ _
 72
    65
 73
     2
 40
0.375
 49
0.25
 49
-0.125
  0
LTYPE
  2
HIDDEN2
 70
     0
  3
Hidden (.5x) _ _ _ _ _ _ _ _ _ _ _ _ _ _ _ _ _
 72
    65
 73
     2
 40
0.1875
 49
0.125
 49
-0.0625
  0
LTYPE
  2
HIDDENX2
 70
     0
  3
Hidden (2x) ____ ____ ____ ____ ____ ____ ____
 72
    65
 73
     2
 40
0.75
 49
0.5
 49
-0.25
  0
LTYPE
  2
PHANTOM
 70
     0
  3
Phantom ______  __  __  ______  __  __  ______
 72
    65
 73
     6
 40
2.5
 49
1.25
 49
-0.25
 49
0.25
 49
-0.25
 49
0.25
 49
-0.25
  0
LTYPE
  2
PHANTOMX2
 70
     0
  3
Phantom (2x) ____________    ____    ____   _
 72
    65
 73
     6
 40
5.0
 49
2.5
 49
-0.5
 49
0.5
 49
-0.5
 49
0.5
 49
-0.5
  0
LTYPE
  2
ACAD_ISO02W100
 70
     0
  3
ISO dash __ __ __ __ __ __ __ __ __ __ __ __ __
 72
    65
 73
     2
 40
0.59
 49
0.47
 49
-0.12
  0
LTYPE
  2
ACAD_ISO03W100
 70
     0
  3
ISO dash space __    __    __    __    __    __
 72
    65
 73
     2
 40
1.179999999999999
 49
0.47
 49
-0.71
  0
LTYPE
  2
ACAD_ISO04W100
 70
     0
  3
ISO long-dash dot ____ . ____ . ____ . ____ . _
 72
    65
 73
     4
 40
1.179999999999999
 49
0.9399999999999998
 49
-0.12
 49
0.0
 49
-0.12
  0
LTYPE
  2
ACAD_ISO05W100
 70
     0
  3
ISO long-dash double-dot ____ .. ____ .. ____ .
 72
    65
 73
     6
 40
1.2999999999999989
 49
0.9399999999999998
 49
-0.12
 49
0.0
 49
-0.12
 49
0.0
 49
-0.12
  0
LTYPE
  2
ACAD_ISO06W100
 70
     0
  3
ISO long-dash triple-dot ____ ... ____ ... ____
 72
    65
 73
     8
 40
1.419999999999999
 49
0.9399999999999998
 49
-0.12
 49
0.0
 49
-0.12
 49
0.0
 49
-0.12
 49
0.0
 49
-0.12
  0
LTYPE
  2
ACAD_ISO07W100
 70
     0
  3
ISO dot . . . . . . . . . . . . . . . . . . . .
 72
    65
 73
     2
 40
0.12
 49
0.0
 49
-0.12
  0
LTYPE
  2
ACAD_ISO08W100
 70
     0
  3
ISO long-dash short-dash ____ __ ____ __ ____ _
 72
    65
 73
     4
 40
0.95
 49
0.47
 49
-0.12
 49
0.24
 49
-0.12
  0
LTYPE
  2
ACAD_ISO09W100
 70
     0
  3
ISO long-dash double-short-dash ____ __ __ ____
 72
    65
 73
     6
 40
1.3100000000000001
 49
0.47
 49
-0.12
 49
0.24
 49
-0.12
 49
0.24
 49
-0.12
  0
LTYPE
  2
ACAD_ISO10W100
 70
     0
  3
ISO dash dot __ . __ . __ . __ . __ . __ . __ .
 72
    65
 73
     4
 40
0.71
 49
0.47
 49
-0.12
 49
0.0
 49
-0.12
  0
LTYPE
  2
ACAD_ISO11W100
 70
     0
  3
ISO double-dash dot __ __ . __ __ . __ __ . __ 
 72
    65
 73
     6
 40
1.2999999999999989
 49
0.47
 49
-0.12
 49
0.47
 49
-0.12
 49
0.0
 49
-0.12
  0
LTYPE
  2
ACAD_ISO12W100
 70
     0
  3
ISO dash double-dot __ . . __ . . __ . . __ . .
 72
    65
 73
     6
 40
0.8299999999999999
 49
0.47
 49
-0.12
 49
0.0
 49
-0.12
 49
0.0
 49
-0.12
  0
LTYPE
  2
ACAD_ISO13W100
 70
     0
  3
ISO double-dash double-dot __ __ . . __ __ . . 
 72
    65
 73
     8
 40
1.419999999999999
 49
0.47
 49
-0.12
 49
0.47
 49
-0.12
 49
0.0
 49
-0.12
 49
0.0
 49
-0.12
  0
LTYPE
  2
ACAD_ISO14W100
 70
     0
  3
ISO dash triple-dot __ . . . __ . . . __ . . . 
 72
    65
 73
     8
 40
0.95
 49
0.47
 49
-0.12
 49
0.0
 49
-0.12
 49
0.0
 49
-0.12
 49
0.0
 49
-0.12
  0
LTYPE
  2
ACAD_ISO15W100
 70
     0
  3
ISO double-dash triple-dot __ __ . . . __ __ . 
 72
    65
 73
    10
 40
1.5399999999999989
 49
0.47
 49
-0.12
 49
0.47
 49
-0.12
 49
0.0
 49
-0.12
 49
0.0
 49
-0.12
 49
0.0
 49
-0.12
  0
LTYPE
  2
FENCELINE1
 70
     0
  3
Fenceline circle ----0-----0----0-----0----0---
 72
    65
 73
     4
 40
1.45
 49
0.25
 49
-0.1
 49
-0.1
 49
1.0
  0
LTYPE
  2
FENCELINE2
 70
     0
  3
Fenceline square ----[]-----[]----[]-----[]----
 72
    65
 73
     4
 40
1.45
 49
0.25
 49
-0.1
 49
-0.1
 49
1.0
  0
LTYPE
  2
TRACKS
 70
     0
  3
Tracks -|-|-|-|-|-|-|-|-|-|-|-|-|-|-|-|-|-|-|-|
 72
    65
 73
     2
 40
0.3
 49
0.15
 49
0.15
  0
LTYPE
  2
BATTING
 70
     0
  3
Batting SSSSSSSSSSSSSSSSSSSSSSSSSSSSSSSSSSSSSSS
 72
    65
 73
     4
 40
0.4001000000000001
 49
0.0001
 49
-0.1
 49
-0.2
 49
-0.1
  0
LTYPE
  2
HOT_WATER_SUPPLY
 70
     0
  3
Hot water supply ---- HW ---- HW ---- HW ----
 72
    65
 73
     3
 40
0.9
 49
0.5
 49
-0.2
 49
-0.2
  0
LTYPE
  2
GAS_LINE
 70
     0
  3
Gas line ----GAS----GAS----GAS----GAS----GAS---
 72
    65
 73
     3
 40
0.95
 49
0.5
 49
-0.2
 49
-0.25
  0
LTYPE
  2
ZIGZAG
 70
     0
  3
Zig zag /\/\/\/\/\/\/\/\/\/\/\/\/\/\/\/\/\/\/\/
 72
    65
 73
     4
 40
0.8001000000000001
 49
0.0001
 49
-0.2
 49
-0.4
 49
-0.2
  0
ENDTAB
  0
TABLE
  2
LAYER
 70
     1
  0
LAYER
  2
0
 70
     0
 62
     7
  6
CONTINUOUS
  0
ENDTAB
  0
TABLE
  2
STYLE
 70
     3
  0
STYLE
  2
STANDARD
 70
     0
 40
0.0
 41
1.0
 50
0.0
 71
     0
 42
0.2
  3
txt
  4

  0
STYLE
  2
ANNOTATIVE
 70
     0
 40
0.0
 41
1.0
 50
0.0
 71
     0
 42
0.2
  3
txt
  4

  0
STYLE
  2

 70
     1
 40
0.0
 41
1.0
 50
0.0
 71
     0
 42
0.2
  3
ltypeshp.shx
  4

  0
ENDTAB
  0
TABLE
  2
VIEW
 70
     0
  0
ENDTAB
  0
TABLE
  2
UCS
 70
     0
  0
ENDTAB
  0
TABLE
  2
APPID
 70
     3
  0
APPID
  2
ACAD
 70
     0
  0
APPID
  2
ACADANNOTATIVE
 70
     0
  0
APPID
  2
ACAD_MLEADERVER
 70
     0
  0
ENDTAB
  0
TABLE
  2
DIMSTYLE
 70
     2
  0
DIMSTYLE
  2
STANDARD
 70
     0
  3

  4

  5

  6

  7

 40
1.0
 41
0.18
 42
0.0625
 43
0.38
 44
0.18
 45
0.0
 46
0.0
 47
0.0
 48
0.0
140
0.18
141
0.09
142
0.0
143
25.399999999999999
144
1.0
145
0.0
146
1.0
147
0.09
 71
     0
 72
     0
 73
     1
 74
     1
 75
     0
 76
     0
 77
     0
 78
     0
170
     0
171
     2
172
     0
173
     0
174
     0
175
     0
176
     0
177
     0
178
     0
  0
DIMSTYLE
  2
ANNOTATIVE
 70
     0
  3

  4

  5

  6

  7

 40
1.0
 41
0.18
 42
0.0625
 43
0.38
 44
0.18
 45
0.0
 46
0.0
 47
0.0
 48
0.0
140
0.18
141
0.09
142
0.0
143
25.399999999999999
144
1.0
145
0.0
146
1.0
147
0.09
 71
     0
 72
     0
 73
     1
 74
     1
 75
     0
 76
     0
 77
     0
 78
     0
170
     0
171
     2
172
     0
173
     0
174
     0
175
     0
176
     0
177
     0
178
     0
  0
ENDTAB
  0
ENDSEC
  0
SECTION
  2
BLOCKS
  0
BLOCK
  8
0
  2
$MODEL_SPACE
 70
     0
 10
0.0
 20
0.0
 30
0.0
  3
$MODEL_SPACE
  1

  0
ENDBLK
  5
73
  8
0
  0
BLOCK
 67
     1
  8
0
  2
$PAPER_SPACE
 70
     0
 10
0.0
 20
0.0
 30
0.0
  3
$PAPER_SPACE
  1

  0
ENDBLK
  5
6F
 67
     1
  8
0
  0
ENDSEC
  0
SECTION
  2
ENTITIES
  0
POLYLINE
  5
B7
  8
0
 66
     1
 10
0.0
 20
0.0
 30
0.0
 70
     1
  0
VERTEX
  5
B8
  8
0
 10
2.9999999999999969
 20
-49.799999999999997
 30
0.0
  0
VERTEX
  5
B9
  8
0
 10
-2.9999999999999969
 20
-49.799999999999997
 30
0.0
  0
VERTEX
  5
BB
  8
0
 10
-3.00000000000228
 20
-55.800000000000047
 30
0.0
  0
VERTEX
  5
BC
  8
0
 10
-2.5000000000023439
 20
-55.800000000000082
 30
0.0
  0
VERTEX
  5
BD
  8
0
 10
-2.5000000000023439
 20
-57.300000000000068
 30
0.0
  0
VERTEX
  5
BE
  8
0
 10
-3.6180913365155121
 20
-57.300000000000068
 30
0.0
  0
VERTEX
  5
BF
  8
0
 10
-3.6180913365155831
 20
-60.30000000000004
 30
0.0
  0
VERTEX
  5
C0
  8
0
 10
-1.6547005383815969
 20
-60.300000000000082
 30
0.0
  0
VERTEX
  5
C1
  8
0
 10
-0.500000000002423
 20
-62.300000000000111
 30
0.0
  0
VERTEX
  5
C2
  8
0
 10
0.4999999999976268
 20
-62.300000000000111
 30
0.0
  0
VERTEX
  5
C3
  8
0
 10
1.6547005383769069
 20
-60.300000000000082
 30
0.0
  0
VERTEX
  5
C4
  8
0
 10
3.618091336500413
 20
-60.300000000000111
 30
0.0
  0
VERTEX
  5
C5
  8
0
 10
3.6180913365005192
 20
-57.300000000000139
 30
0.0
  0
VERTEX
  5
C6
  8
0
 10
2.4999999999977258
 20
-57.300000000000111
 30
0.0
  0
VERTEX
  5
C7
  8
0
 10
2.4999999999977258
 20
-55.800000000000118
 30
0.0
  0
VERTEX
  5
C8
  8
0
 10
2.999999999997697
 20
-55.800000000000118
 30
0.0
  0
SEQEND
  5
BA
  8
0
  0
LINE
  5
CA
  8
0
 10
11.0
 20
-17.699999999999999
 30
0.0
 11
3.0000000000000009
 21
-17.699999999999999
 31
0.0
  0
LINE
  5
CB
  8
0
 10
11.0
 20
-16.699999999999999
 30
0.0
 11
11.0
 21
-17.699999999999999
 31
0.0
  0
LINE
  5
CC
  8
0
 10
3.0000000000000022
 20
-16.699999999999999
 30
0.0
 11
11.0
 21
-16.699999999999999
 31
0.0
  0
LINE
  5
CD
  8
0
 10
3.0000000000000022
 20
-14.574999999999999
 30
0.0
 11
3.0000000000000022
 21
-16.699999999999999
 31
0.0
  0
LINE
  5
CE
  8
0
 10
7.9999999999999991
 20
-14.574999999999999
 30
0.0
 11
3.0000000000000022
 21
-14.574999999999999
 31
0.0
  0
LINE
  5
CF
  8
0
 10
7.9999999999999991
 20
-13.574999999999999
 30
0.0
 11
7.9999999999999991
 21
-14.574999999999999
 31
0.0
  0
LINE
  5
D0
  8
0
 10
3.0000000000000022
 20
-13.574999999999999
 30
0.0
 11
7.9999999999999991
 21
-13.574999999999999
 31
0.0
  0
LINE
  5
D1
  8
0
 10
3.0000000000000022
 20
-12.699999999999999
 30
0.0
 11
3.0000000000000022
 21
-13.574999999999999
 31
0.0
  0
LINE
  5
D2
  8
0
 10
7.9999999999999991
 20
-12.699999999999999
 30
0.0
 11
3.0000000000000022
 21
-12.699999999999999
 31
0.0
  0
LINE
  5
D3
  8
0
 10
7.9999999999999991
 20
-9.7000000000000064
 30
0.0
 11
7.9999999999999991
 21
-12.699999999999999
 31
0.0
  0
LINE
  5
D4
  8
0
 10
6.0
 20
-9.7000000000000064
 30
0.0
 11
7.9999999999999991
 21
-9.7000000000000064
 31
0.0
  0
LINE
  5
D5
  8
0
 10
6.0
 20
-3.7000000000000011
 30
0.0
 11
6.0
 21
-9.7000000000000064
 31
0.0
  0
LINE
  5
D6
  8
0
 10
8.0
 20
-3.7000000000000011
 30
0.0
 11
6.0
 21
-3.7000000000000011
 31
0.0
  0
LINE
  5
D7
  8
0
 10
8.0
 20
0.0
 30
0.0
 11
8.0
 21
-3.7000000000000011
 31
0.0
  0
LINE
  5
D8
  8
0
 10
-8.0
 20
0.0
 30
0.0
 11
8.0
 21
0.0
 31
0.0
  0
LINE
  5
D9
  8
0
 10
-8.0
 20
-3.7000000000000011
 30
0.0
 11
-8.0
 21
0.0
 31
0.0
  0
LINE
  5
DA
  8
0
 10
-6.0
 20
-3.7000000000000011
 30
0.0
 11
-8.0
 21
-3.7000000000000011
 31
0.0
  0
LINE
  5
DB
  8
0
 10
-6.0
 20
-9.7000000000000064
 30
0.0
 11
-6.0
 21
-3.7000000000000011
 31
0.0
  0
LINE
  5
DC
  8
0
 10
-7.9999999999999991
 20
-9.7000000000000064
 30
0.0
 11
-6.0
 21
-9.7000000000000064
 31
0.0
  0
LINE
  5
DD
  8
0
 10
-7.9999999999999991
 20
-12.699999999999999
 30
0.0
 11
-7.9999999999999991
 21
-9.7000000000000064
 31
0.0
  0
LINE
  5
DE
  8
0
 10
-3.0000000000000022
 20
-12.699999999999999
 30
0.0
 11
-7.9999999999999991
 21
-12.699999999999999
 31
0.0
  0
LINE
  5
DF
  8
0
 10
-3.0000000000000022
 20
-13.574999999999999
 30
0.0
 11
-3.0000000000000022
 21
-12.699999999999999
 31
0.0
  0
LINE
  5
E0
  8
0
 10
-7.9999999999999991
 20
-13.574999999999999
 30
0.0
 11
-3.0000000000000022
 21
-13.574999999999999
 31
0.0
  0
LINE
  5
E1
  8
0
 10
-7.9999999999999991
 20
-14.574999999999999
 30
0.0
 11
-7.9999999999999991
 21
-13.574999999999999
 31
0.0
  0
LINE
  5
E2
  8
0
 10
-3.0000000000000022
 20
-14.574999999999999
 30
0.0
 11
-7.9999999999999991
 21
-14.574999999999999
 31
0.0
  0
LINE
  5
E3
  8
0
 10
-3.0000000000000022
 20
-16.699999999999999
 30
0.0
 11
-3.0000000000000022
 21
-14.574999999999999
 31
0.0
  0
LINE
  5
E4
  8
0
 10
-11.0
 20
-16.699999999999999
 30
0.0
 11
-3.0000000000000022
 21
-16.699999999999999
 31
0.0
  0
LINE
  5
E5
  8
0
 10
-11.0
 20
-17.699999999999999
 30
0.0
 11
-11.0
 21
-16.699999999999999
 31
0.0
  0
LINE
  5
E6
  8
0
 10
-3.0000000000000009
 20
-17.699999999999999
 30
0.0
 11
-11.0
 21
-17.699999999999999
 31
0.0
  0
LINE
  5
E7
  8
0
 10
-3.0
 20
-19.824999999999999
 30
0.0
 11
-3.0000000000000009
 21
-17.699999999999999
 31
0.0
  0
LINE
  5
E8
  8
0
 10
-11.0
 20
-19.824999999999999
 30
0.0
 11
-3.0
 21
-19.824999999999999
 31
0.0
  0
LINE
  5
E9
  8
0
 10
-11.0
 20
-20.824999999999999
 30
0.0
 11
-11.0
 21
-19.824999999999999
 31
0.0
  0
LINE
  5
EA
  8
0
 10
-3.0
 20
-20.824999999999999
 30
0.0
 11
-11.0
 21
-20.824999999999999
 31
0.0
  0
LINE
  5
EB
  8
0
 10
-3.0
 20
-22.95000000000001
 30
0.0
 11
-3.0
 21
-20.824999999999999
 31
0.0
  0
LINE
  5
EC
  8
0
 10
-11.0
 20
-22.949999999999999
 30
0.0
 11
-3.0
 21
-22.95000000000001
 31
0.0
  0
LINE
  5
ED
  8
0
 10
-11.0
 20
-23.949999999999999
 30
0.0
 11
-11.0
 21
-22.949999999999999
 31
0.0
  0
LINE
  5
EE
  8
0
 10
-3.0
 20
-23.949999999999999
 30
0.0
 11
-11.0
 21
-23.949999999999999
 31
0.0
  0
LINE
  5
EF
  8
0
 10
-3.0
 20
-26.07500000000001
 30
0.0
 11
-3.0
 21
-23.949999999999999
 31
0.0
  0
LINE
  5
F0
  8
0
 10
-11.0
 20
-26.074999999999999
 30
0.0
 11
-3.0
 21
-26.07500000000001
 31
0.0
  0
LINE
  5
F1
  8
0
 10
-11.0
 20
-27.074999999999999
 30
0.0
 11
-11.0
 21
-26.074999999999999
 31
0.0
  0
LINE
  5
F2
  8
0
 10
-3.0
 20
-27.074999999999999
 30
0.0
 11
-11.0
 21
-27.074999999999999
 31
0.0
  0
LINE
  5
F3
  8
0
 10
-3.0
 20
-29.199999999999999
 30
0.0
 11
-3.0
 21
-27.074999999999999
 31
0.0
  0
LINE
  5
F4
  8
0
 10
-11.0
 20
-29.199999999999999
 30
0.0
 11
-3.0
 21
-29.199999999999999
 31
0.0
  0
LINE
  5
F5
  8
0
 10
-11.0
 20
-30.199999999999999
 30
0.0
 11
-11.0
 21
-29.199999999999999
 31
0.0
  0
LINE
  5
F6
  8
0
 10
-3.0
 20
-30.199999999999999
 30
0.0
 11
-11.0
 21
-30.199999999999999
 31
0.0
  0
LINE
  5
F7
  8
0
 10
-3.0
 20
-32.325000000000003
 30
0.0
 11
-3.0
 21
-30.199999999999999
 31
0.0
  0
LINE
  5
F8
  8
0
 10
-11.0
 20
-32.325000000000003
 30
0.0
 11
-3.0
 21
-32.325000000000003
 31
0.0
  0
LINE
  5
F9
  8
0
 10
-11.0
 20
-33.325000000000003
 30
0.0
 11
-11.0
 21
-32.325000000000003
 31
0.0
  0
LINE
  5
FA
  8
0
 10
-2.9999999999999991
 20
-33.325000000000003
 30
0.0
 11
-11.0
 21
-33.325000000000003
 31
0.0
  0
LINE
  5
FB
  8
0
 10
-2.9999999999999978
 20
-35.450000000000003
 30
0.0
 11
-2.9999999999999991
 21
-33.325000000000003
 31
0.0
  0
LINE
  5
FC
  8
0
 10
-11.0
 20
-35.450000000000003
 30
0.0
 11
-2.9999999999999978
 21
-35.450000000000003
 31
0.0
  0
LINE
  5
FD
  8
0
 10
-11.0
 20
-36.450000000000003
 30
0.0
 11
-11.0
 21
-35.450000000000003
 31
0.0
  0
LINE
  5
FE
  8
0
 10
-2.9999999999999978
 20
-36.450000000000003
 30
0.0
 11
-11.0
 21
-36.450000000000003
 31
0.0
  0
LINE
  5
FF
  8
0
 10
-2.9999999999999978
 20
-38.575000000000003
 30
0.0
 11
-2.9999999999999978
 21
-36.450000000000003
 31
0.0
  0
LINE
  5
100
  8
0
 10
-11.0
 20
-38.575000000000003
 30
0.0
 11
-2.9999999999999978
 21
-38.575000000000003
 31
0.0
  0
LINE
  5
101
  8
0
 10
-11.0
 20
-39.575000000000003
 30
0.0
 11
-11.0
 21
-38.575000000000003
 31
0.0
  0
LINE
  5
102
  8
0
 10
-2.9999999999999978
 20
-39.575000000000003
 30
0.0
 11
-11.0
 21
-39.575000000000003
 31
0.0
  0
LINE
  5
103
  8
0
 10
-2.9999999999999978
 20
-41.700000000000003
 30
0.0
 11
-2.9999999999999978
 21
-39.575000000000003
 31
0.0
  0
LINE
  5
104
  8
0
 10
-11.0
 20
-41.700000000000003
 30
0.0
 11
-2.9999999999999978
 21
-41.700000000000003
 31
0.0
  0
LINE
  5
105
  8
0
 10
-11.0
 20
-42.700000000000003
 30
0.0
 11
-11.0
 21
-41.700000000000003
 31
0.0
  0
LINE
  5
106
  8
0
 10
-2.0499999999999989
 20
-42.700000000000003
 30
0.0
 11
-11.0
 21
-42.700000000000003
 31
0.0
  0
LINE
  5
107
  8
0
 10
-2.0499999999999989
 20
-44.799999999999997
 30
0.0
 11
-2.0499999999999989
 21
-42.700000000000003
 31
0.0
  0
LINE
  5
108
  8
0
 10
-3.0
 20
-44.799999999999997
 30
0.0
 11
-2.0499999999999989
 21
-44.799999999999997
 31
0.0
  0
LINE
  5
109
  8
0
 10
-3.0
 20
-44.799999999999997
 30
0.0
 11
-3.0000000000000422
 21
-56.29999999999999
 31
0.0
  0
LINE
  5
10A
  8
0
 10
-2.9999999999999969
 20
-49.799999999999997
 30
0.0
 11
2.9999999999999969
 21
-49.799999999999997
 31
0.0
  0
LINE
  5
10B
  8
0
 10
2.9999999999999361
 20
-56.299999999999947
 30
0.0
 11
3.0
 21
-44.799999999999997
 31
0.0
  0
LINE
  5
10C
  8
0
 10
2.0499999999999989
 20
-44.799999999999997
 30
0.0
 11
3.0
 21
-44.799999999999997
 31
0.0
  0
LINE
  5
10D
  8
0
 10
2.0499999999999989
 20
-42.700000000000003
 30
0.0
 11
2.0499999999999989
 21
-44.799999999999997
 31
0.0
  0
LINE
  5
10E
  8
0
 10
11.0
 20
-42.700000000000003
 30
0.0
 11
2.0499999999999989
 21
-42.700000000000003
 31
0.0
  0
LINE
  5
10F
  8
0
 10
11.0
 20
-41.700000000000003
 30
0.0
 11
11.0
 21
-42.700000000000003
 31
0.0
  0
LINE
  5
110
  8
0
 10
2.9999999999999978
 20
-41.700000000000003
 30
0.0
 11
11.0
 21
-41.700000000000003
 31
0.0
  0
LINE
  5
111
  8
0
 10
2.9999999999999978
 20
-39.575000000000003
 30
0.0
 11
2.9999999999999978
 21
-41.700000000000003
 31
0.0
  0
LINE
  5
112
  8
0
 10
11.0
 20
-39.575000000000003
 30
0.0
 11
2.9999999999999978
 21
-39.575000000000003
 31
0.0
  0
LINE
  5
113
  8
0
 10
11.0
 20
-38.575000000000003
 30
0.0
 11
11.0
 21
-39.575000000000003
 31
0.0
  0
LINE
  5
114
  8
0
 10
2.9999999999999978
 20
-38.575000000000003
 30
0.0
 11
11.0
 21
-38.575000000000003
 31
0.0
  0
LINE
  5
115
  8
0
 10
2.9999999999999978
 20
-36.450000000000003
 30
0.0
 11
2.9999999999999978
 21
-38.575000000000003
 31
0.0
  0
LINE
  5
116
  8
0
 10
11.0
 20
-36.450000000000003
 30
0.0
 11
2.9999999999999978
 21
-36.450000000000003
 31
0.0
  0
LINE
  5
117
  8
0
 10
11.0
 20
-35.450000000000003
 30
0.0
 11
11.0
 21
-36.450000000000003
 31
0.0
  0
LINE
  5
118
  8
0
 10
2.9999999999999978
 20
-35.450000000000003
 30
0.0
 11
11.0
 21
-35.450000000000003
 31
0.0
  0
LINE
  5
119
  8
0
 10
2.9999999999999991
 20
-33.325000000000003
 30
0.0
 11
2.9999999999999978
 21
-35.450000000000003
 31
0.0
  0
LINE
  5
11A
  8
0
 10
11.0
 20
-33.325000000000003
 30
0.0
 11
2.9999999999999991
 21
-33.325000000000003
 31
0.0
  0
LINE
  5
11B
  8
0
 10
11.0
 20
-32.325000000000003
 30
0.0
 11
11.0
 21
-33.325000000000003
 31
0.0
  0
LINE
  5
11C
  8
0
 10
3.0
 20
-32.325000000000003
 30
0.0
 11
11.0
 21
-32.325000000000003
 31
0.0
  0
LINE
  5
11D
  8
0
 10
3.0
 20
-30.199999999999999
 30
0.0
 11
3.0
 21
-32.325000000000003
 31
0.0
  0
LINE
  5
11E
  8
0
 10
11.0
 20
-30.199999999999999
 30
0.0
 11
3.0
 21
-30.199999999999999
 31
0.0
  0
LINE
  5
11F
  8
0
 10
11.0
 20
-29.199999999999999
 30
0.0
 11
11.0
 21
-30.199999999999999
 31
0.0
  0
LINE
  5
120
  8
0
 10
3.0
 20
-29.199999999999999
 30
0.0
 11
11.0
 21
-29.199999999999999
 31
0.0
  0
LINE
  5
121
  8
0
 10
3.0
 20
-27.074999999999999
 30
0.0
 11
3.0
 21
-29.199999999999999
 31
0.0
  0
LINE
  5
122
  8
0
 10
11.0
 20
-27.074999999999999
 30
0.0
 11
3.0
 21
-27.074999999999999
 31
0.0
  0
LINE
  5
123
  8
0
 10
11.0
 20
-26.074999999999999
 30
0.0
 11
11.0
 21
-27.074999999999999
 31
0.0
  0
LINE
  5
124
  8
0
 10
3.0
 20
-26.07500000000001
 30
0.0
 11
11.0
 21
-26.074999999999999
 31
0.0
  0
LINE
  5
125
  8
0
 10
3.0
 20
-23.949999999999999
 30
0.0
 11
3.0
 21
-26.07500000000001
 31
0.0
  0
LINE
  5
126
  8
0
 10
11.0
 20
-23.949999999999999
 30
0.0
 11
3.0
 21
-23.949999999999999
 31
0.0
  0
LINE
  5
127
  8
0
 10
11.0
 20
-22.949999999999999
 30
0.0
 11
11.0
 21
-23.949999999999999
 31
0.0
  0
LINE
  5
128
  8
0
 10
3.0
 20
-22.95000000000001
 30
0.0
 11
11.0
 21
-22.949999999999999
 31
0.0
  0
LINE
  5
129
  8
0
 10
3.0
 20
-20.824999999999999
 30
0.0
 11
3.0
 21
-22.95000000000001
 31
0.0
  0
LINE
  5
12A
  8
0
 10
11.0
 20
-20.824999999999999
 30
0.0
 11
3.0
 21
-20.824999999999999
 31
0.0
  0
LINE
  5
12B
  8
0
 10
11.0
 20
-19.824999999999999
 30
0.0
 11
11.0
 21
-20.824999999999999
 31
0.0
  0
LINE
  5
12C
  8
0
 10
3.0
 20
-19.824999999999999
 30
0.0
 11
11.0
 21
-19.824999999999999
 31
0.0
  0
LINE
  5
12D
  8
0
 10
3.0000000000000009
 20
-17.699999999999999
 30
0.0
 11
3.0
 21
-19.824999999999999
 31
0.0
  0
LINE
  5
12E
  8
0
 10
-3.0000000000000422
 20
-56.29999999999999
 30
0.0
 11
-15.747124949501689
 21
-56.299999999999947
 31
0.0
  0
LINE
  5
12F
  8
0
 10
-3.0
 20
-44.799999999999997
 30
0.0
 11
-3.0000000000000422
 21
-56.29999999999999
 31
0.0
  0
LINE
  5
130
  8
0
 10
-3.0
 20
-44.799999999999997
 30
0.0
 11
-3.0000000000000422
 21
-56.29999999999999
 31
0.0
  0
LINE
  5
131
  8
0
 10
-15.74712494950173
 20
-44.799999999999933
 30
0.0
 11
-3.0
 21
-44.799999999999997
 31
0.0
  0
LINE
  5
132
  8
0
 10
3.0
 20
-44.799999999999997
 30
0.0
 11
8.1450646290524631
 21
-44.799999999999962
 31
0.0
  0
LINE
  5
133
  8
0
 10
2.9999999999999361
 20
-56.299999999999947
 30
0.0
 11
3.0
 21
-44.799999999999997
 31
0.0
  0
LINE
  5
134
  8
0
 10
2.9999999999999361
 20
-56.299999999999947
 30
0.0
 11
3.0
 21
-44.799999999999997
 31
0.0
  0
LINE
  5
135
  8
0
 10
8.1450646290524631
 20
-56.299999999999947
 30
0.0
 11
2.9999999999999361
 21
-56.299999999999947
 31
0.0
  0
POLYLINE
  5
136
  8
0
 66
     1
 10
0.0
 20
0.0
 30
0.0
 70
     1
  0
VERTEX
  5
137
  8
0
 10
2.9999999999999969
 20
-49.799999999999997
 30
0.0
  0
VERTEX
  5
138
  8
0
 10
3.0
 20
-44.799999999999997
 30
0.0
  0
VERTEX
  5
13A
  8
0
 10
2.0499999999999989
 20
-44.799999999999997
 30
0.0
  0
VERTEX
  5
13B
  8
0
 10
2.0499999999999989
 20
-42.700000000000003
 30
0.0
  0
VERTEX
  5
13C
  8
0
 10
11.0
 20
-42.700000000000003
 30
0.0
  0
VERTEX
  5
13D
  8
0
 10
11.0
 20
-41.700000000000003
 30
0.0
  0
VERTEX
  5
13E
  8
0
 10
2.9999999999999978
 20
-41.700000000000003
 30
0.0
  0
VERTEX
  5
13F
  8
0
 10
2.9999999999999978
 20
-39.575000000000003
 30
0.0
  0
VERTEX
  5
140
  8
0
 10
11.0
 20
-39.575000000000003
 30
0.0
  0
VERTEX
  5
141
  8
0
 10
11.0
 20
-38.575000000000003
 30
0.0
  0
VERTEX
  5
142
  8
0
 10
2.9999999999999978
 20
-38.575000000000003
 30
0.0
  0
VERTEX
  5
143
  8
0
 10
2.9999999999999978
 20
-36.450000000000003
 30
0.0
  0
VERTEX
  5
144
  8
0
 10
11.0
 20
-36.450000000000003
 30
0.0
  0
VERTEX
  5
145
  8
0
 10
11.0
 20
-35.450000000000003
 30
0.0
  0
VERTEX
  5
146
  8
0
 10
2.9999999999999978
 20
-35.450000000000003
 30
0.0
  0
VERTEX
  5
147
  8
0
 10
2.9999999999999991
 20
-33.325000000000003
 30
0.0
  0
VERTEX
  5
148
  8
0
 10
11.0
 20
-33.325000000000003
 30
0.0
  0
VERTEX
  5
149
  8
0
 10
11.0
 20
-32.325000000000003
 30
0.0
  0
VERTEX
  5
14A
  8
0
 10
3.0
 20
-32.325000000000003
 30
0.0
  0
VERTEX
  5
14B
  8
0
 10
3.0
 20
-30.199999999999999
 30
0.0
  0
VERTEX
  5
14C
  8
0
 10
11.0
 20
-30.199999999999999
 30
0.0
  0
VERTEX
  5
14D
  8
0
 10
11.0
 20
-29.199999999999999
 30
0.0
  0
VERTEX
  5
14E
  8
0
 10
3.0
 20
-29.199999999999999
 30
0.0
  0
VERTEX
  5
14F
  8
0
 10
3.0
 20
-27.074999999999999
 30
0.0
  0
VERTEX
  5
150
  8
0
 10
11.0
 20
-27.074999999999999
 30
0.0
  0
VERTEX
  5
151
  8
0
 10
11.0
 20
-26.074999999999999
 30
0.0
  0
VERTEX
  5
152
  8
0
 10
3.0
 20
-26.07500000000001
 30
0.0
  0
VERTEX
  5
153
  8
0
 10
3.0
 20
-23.949999999999999
 30
0.0
  0
VERTEX
  5
154
  8
0
 10
11.0
 20
-23.949999999999999
 30
0.0
  0
VERTEX
  5
155
  8
0
 10
11.0
 20
-22.949999999999999
 30
0.0
  0
VERTEX
  5
156
  8
0
 10
3.0
 20
-22.95000000000001
 30
0.0
  0
VERTEX
  5
157
  8
0
 10
3.0
 20
-20.824999999999999
 30
0.0
  0
VERTEX
  5
158
  8
0
 10
11.0
 20
-20.824999999999999
 30
0.0
  0
VERTEX
  5
159
  8
0
 10
11.0
 20
-19.824999999999999
 30
0.0
  0
VERTEX
  5
15A
  8
0
 10
3.0
 20
-19.824999999999999
 30
0.0
  0
VERTEX
  5
15B
  8
0
 10
3.0000000000000009
 20
-17.699999999999999
 30
0.0
  0
VERTEX
  5
15C
  8
0
 10
11.0
 20
-17.699999999999999
 30
0.0
  0
VERTEX
  5
15D
  8
0
 10
11.0
 20
-16.699999999999999
 30
0.0
  0
VERTEX
  5
15E
  8
0
 10
3.0000000000000022
 20
-16.699999999999999
 30
0.0
  0
VERTEX
  5
15F
  8
0
 10
3.0000000000000022
 20
-14.574999999999999
 30
0.0
  0
VERTEX
  5
160
  8
0
 10
7.9999999999999991
 20
-14.574999999999999
 30
0.0
  0
VERTEX
  5
161
  8
0
 10
7.9999999999999991
 20
-13.574999999999999
 30
0.0
  0
VERTEX
  5
162
  8
0
 10
3.0000000000000022
 20
-13.574999999999999
 30
0.0
  0
VERTEX
  5
163
  8
0
 10
3.0000000000000022
 20
-12.699999999999999
 30
0.0
  0
VERTEX
  5
164
  8
0
 10
7.9999999999999991
 20
-12.699999999999999
 30
0.0
  0
VERTEX
  5
165
  8
0
 10
7.9999999999999991
 20
-9.7000000000000064
 30
0.0
  0
VERTEX
  5
166
  8
0
 10
6.0
 20
-9.7000000000000064
 30
0.0
  0
VERTEX
  5
167
  8
0
 10
6.0
 20
-3.7000000000000011
 30
0.0
  0
VERTEX
  5
168
  8
0
 10
8.0
 20
-3.7000000000000011
 30
0.0
  0
VERTEX
  5
169
  8
0
 10
8.0
 20
0.0
 30
0.0
  0
VERTEX
  5
16A
  8
0
 10
-8.0
 20
0.0
 30
0.0
  0
VERTEX
  5
16B
  8
0
 10
-8.0
 20
-3.7000000000000011
 30
0.0
  0
VERTEX
  5
16C
  8
0
 10
-6.0
 20
-3.7000000000000011
 30
0.0
  0
VERTEX
  5
16D
  8
0
 10
-6.0
 20
-9.7000000000000064
 30
0.0
  0
VERTEX
  5
16E
  8
0
 10
-7.9999999999999991
 20
-9.7000000000000064
 30
0.0
  0
VERTEX
  5
16F
  8
0
 10
-7.9999999999999991
 20
-12.699999999999999
 30
0.0
  0
VERTEX
  5
170
  8
0
 10
-3.0000000000000022
 20
-12.699999999999999
 30
0.0
  0
VERTEX
  5
171
  8
0
 10
-3.0000000000000022
 20
-13.574999999999999
 30
0.0
  0
VERTEX
  5
172
  8
0
 10
-7.9999999999999991
 20
-13.574999999999999
 30
0.0
  0
VERTEX
  5
173
  8
0
 10
-7.9999999999999991
 20
-14.574999999999999
 30
0.0
  0
VERTEX
  5
174
  8
0
 10
-3.0000000000000022
 20
-14.574999999999999
 30
0.0
  0
VERTEX
  5
175
  8
0
 10
-3.0000000000000022
 20
-16.699999999999999
 30
0.0
  0
VERTEX
  5
176
  8
0
 10
-11.0
 20
-16.699999999999999
 30
0.0
  0
VERTEX
  5
177
  8
0
 10
-11.0
 20
-17.699999999999999
 30
0.0
  0
VERTEX
  5
178
  8
0
 10
-3.0000000000000009
 20
-17.699999999999999
 30
0.0
  0
VERTEX
  5
179
  8
0
 10
-3.0
 20
-19.824999999999999
 30
0.0
  0
VERTEX
  5
17A
  8
0
 10
-11.0
 20
-19.824999999999999
 30
0.0
  0
VERTEX
  5
17B
  8
0
 10
-11.0
 20
-20.824999999999999
 30
0.0
  0
VERTEX
  5
17C
  8
0
 10
-3.0
 20
-20.824999999999999
 30
0.0
  0
VERTEX
  5
17D
  8
0
 10
-3.0
 20
-22.95000000000001
 30
0.0
  0
VERTEX
  5
17E
  8
0
 10
-11.0
 20
-22.949999999999999
 30
0.0
  0
VERTEX
  5
17F
  8
0
 10
-11.0
 20
-23.949999999999999
 30
0.0
  0
VERTEX
  5
180
  8
0
 10
-3.0
 20
-23.949999999999999
 30
0.0
  0
VERTEX
  5
181
  8
0
 10
-3.0
 20
-26.07500000000001
 30
0.0
  0
VERTEX
  5
182
  8
0
 10
-11.0
 20
-26.074999999999999
 30
0.0
  0
VERTEX
  5
183
  8
0
 10
-11.0
 20
-27.074999999999999
 30
0.0
  0
VERTEX
  5
184
  8
0
 10
-3.0
 20
-27.074999999999999
 30
0.0
  0
VERTEX
  5
185
  8
0
 10
-3.0
 20
-29.199999999999999
 30
0.0
  0
VERTEX
  5
186
  8
0
 10
-11.0
 20
-29.199999999999999
 30
0.0
  0
VERTEX
  5
187
  8
0
 10
-11.0
 20
-30.199999999999999
 30
0.0
  0
VERTEX
  5
188
  8
0
 10
-3.0
 20
-30.199999999999999
 30
0.0
  0
VERTEX
  5
189
  8
0
 10
-3.0
 20
-32.325000000000003
 30
0.0
  0
VERTEX
  5
18A
  8
0
 10
-11.0
 20
-32.325000000000003
 30
0.0
  0
VERTEX
  5
18B
  8
0
 10
-11.0
 20
-33.325000000000003
 30
0.0
  0
VERTEX
  5
18C
  8
0
 10
-2.9999999999999991
 20
-33.325000000000003
 30
0.0
  0
VERTEX
  5
18D
  8
0
 10
-2.9999999999999978
 20
-35.450000000000003
 30
0.0
  0
VERTEX
  5
18E
  8
0
 10
-11.0
 20
-35.450000000000003
 30
0.0
  0
VERTEX
  5
18F
  8
0
 10
-11.0
 20
-36.450000000000003
 30
0.0
  0
VERTEX
  5
190
  8
0
 10
-2.9999999999999978
 20
-36.450000000000003
 30
0.0
  0
VERTEX
  5
191
  8
0
 10
-2.9999999999999978
 20
-38.575000000000003
 30
0.0
  0
VERTEX
  5
192
  8
0
 10
-11.0
 20
-38.575000000000003
 30
0.0
  0
VERTEX
  5
193
  8
0
 10
-11.0
 20
-39.575000000000003
 30
0.0
  0
VERTEX
  5
194
  8
0
 10
-2.9999999999999978
 20
-39.575000000000003
 30
0.0
  0
VERTEX
  5
195
  8
0
 10
-2.9999999999999978
 20
-41.700000000000003
 30
0.0
  0
VERTEX
  5
196
  8
0
 10
-11.0
 20
-41.700000000000003
 30
0.0
  0
VERTEX
  5
197
  8
0
 10
-11.0
 20
-42.700000000000003
 30
0.0
  0
VERTEX
  5
198
  8
0
 10
-2.0499999999999989
 20
-42.700000000000003
 30
0.0
  0
VERTEX
  5
199
  8
0
 10
-2.0499999999999989
 20
-44.799999999999997
 30
0.0
  0
VERTEX
  5
19A
  8
0
 10
-3.0
 20
-44.799999999999997
 30
0.0
  0
VERTEX
  5
19B
  8
0
 10
-2.9999999999999969
 20
-49.799999999999997
 30
0.0
  0
SEQEND
  5
139
  8
0
  0
LINE
  5
19C
  8
0
 10
-3.0000000000000422
 20
-56.29999999999999
 30
0.0
 11
-15.747124949501689
 21
-56.299999999999947
 31
0.0
  0
LINE
  5
19D
  8
0
 10
-3.0
 20
-44.799999999999997
 30
0.0
 11
-3.0000000000000422
 21
-56.29999999999999
 31
0.0
  0
LINE
  5
19E
  8
0
 10
-2.9999999999999969
 20
-49.799999999999997
 30
0.0
 11
-3.0
 21
-44.799999999999997
 31
0.0
  0
LINE
  5
19F
  8
0
 10
-15.74712494950173
 20
-44.799999999999933
 30
0.0
 11
-3.0
 21
-44.799999999999997
 31
0.0
  0
POLYLINE
  5
1A0
  8
0
 66
     1
 10
0.0
 20
0.0
 30
0.0
  0
VERTEX
  5
1A1
  8
0
 10
2.9999999999999969
 20
-49.799999999999997
 30
0.0
  0
VERTEX
  5
1A2
  8
0
 10
2.999999999997697
 20
-55.800000000000118
 30
0.0
  0
VERTEX
  5
1A4
  8
0
 10
2.4999999999977258
 20
-55.800000000000118
 30
0.0
  0
VERTEX
  5
1A5
  8
0
 10
2.4999999999977258
 20
-57.300000000000111
 30
0.0
  0
VERTEX
  5
1A6
  8
0
 10
3.6180913365005192
 20
-57.300000000000139
 30
0.0
  0
VERTEX
  5
1A7
  8
0
 10
3.618091336500413
 20
-60.300000000000111
 30
0.0
  0
VERTEX
  5
1A8
  8
0
 10
1.6547005383769069
 20
-60.300000000000082
 30
0.0
  0
VERTEX
  5
1A9
  8
0
 10
0.4999999999976268
 20
-62.300000000000111
 30
0.0
  0
VERTEX
  5
1AA
  8
0
 10
-0.500000000002423
 20
-62.300000000000111
 30
0.0
  0
VERTEX
  5
1AB
  8
0
 10
-1.6547005383815969
 20
-60.300000000000082
 30
0.0
  0
VERTEX
  5
1AC
  8
0
 10
-3.6180913365155831
 20
-60.30000000000004
 30
0.0
  0
VERTEX
  5
1AD
  8
0
 10
-3.6180913365155121
 20
-57.300000000000068
 30
0.0
  0
VERTEX
  5
1AE
  8
0
 10
-2.5000000000023439
 20
-57.300000000000068
 30
0.0
  0
VERTEX
  5
1AF
  8
0
 10
-2.5000000000023439
 20
-55.800000000000082
 30
0.0
  0
VERTEX
  5
1B0
  8
0
 10
-3.00000000000228
 20
-55.800000000000047
 30
0.0
  0
VERTEX
  5
1B1
  8
0
 10
-2.9999999999999969
 20
-49.799999999999997
 30
0.0
  0
SEQEND
  5
1A3
  8
0
  0
POLYLINE
  5
1B2
  8
0
 10
-15.74712494950173
 20
-44.799999999999962
 30
0.0
 66
     1
 70
     8
  0
VERTEX
  8
0
  5
20E
 10
-15.7471
 20
-44.8000
 30
0.000000
  70
    32
  0
VERTEX
  8
0
  5
20F
 10
-15.7538
 20
-44.8000
 30
0.000000
  70
    32
  0
VERTEX
  8
0
  5
210
 10
-15.7605
 20
-44.8002
 30
0.000000
  70
    32
  0
VERTEX
  8
0
  5
211
 10
-15.7671
 20
-44.8003
 30
0.000000
  70
    32
  0
VERTEX
  8
0
  5
212
 10
-15.7738
 20
-44.8006
 30
0.000000
  70
    32
  0
VERTEX
  8
0
  5
213
 10
-15.7804
 20
-44.8009
 30
0.000000
  70
    32
  0
VERTEX
  8
0
  5
214
 10
-15.7871
 20
-44.8014
 30
0.000000
  70
    32
  0
VERTEX
  8
0
  5
215
 10
-15.7937
 20
-44.8018
 30
0.000000
  70
    32
  0
VERTEX
  8
0
  5
216
 10
-15.8003
 20
-44.8024
 30
0.000000
  70
    32
  0
VERTEX
  8
0
  5
217
 10
-15.8070
 20
-44.8030
 30
0.000000
  70
    32
  0
VERTEX
  8
0
  5
218
 10
-15.8136
 20
-44.8038
 30
0.000000
  70
    32
  0
VERTEX
  8
0
  5
219
 10
-15.8202
 20
-44.8045
 30
0.000000
  70
    32
  0
VERTEX
  8
0
  5
21A
 10
-15.8268
 20
-44.8054
 30
0.000000
  70
    32
  0
VERTEX
  8
0
  5
21B
 10
-15.8334
 20
-44.8063
 30
0.000000
  70
    32
  0
VERTEX
  8
0
  5
21C
 10
-15.8400
 20
-44.8074
 30
0.000000
  70
    32
  0
VERTEX
  8
0
  5
21D
 10
-15.8465
 20
-44.8084
 30
0.000000
  70
    32
  0
VERTEX
  8
0
  5
21E
 10
-15.8531
 20
-44.8096
 30
0.000000
  70
    32
  0
VERTEX
  8
0
  5
21F
 10
-15.8596
 20
-44.8108
 30
0.000000
  70
    32
  0
VERTEX
  8
0
  5
220
 10
-15.8661
 20
-44.8121
 30
0.000000
  70
    32
  0
VERTEX
  8
0
  5
221
 10
-15.8726
 20
-44.8135
 30
0.000000
  70
    32
  0
VERTEX
  8
0
  5
222
 10
-15.8791
 20
-44.8150
 30
0.000000
  70
    32
  0
VERTEX
  8
0
  5
223
 10
-15.8855
 20
-44.8165
 30
0.000000
  70
    32
  0
VERTEX
  8
0
  5
224
 10
-15.8920
 20
-44.8181
 30
0.000000
  70
    32
  0
VERTEX
  8
0
  5
225
 10
-15.8984
 20
-44.8198
 30
0.000000
  70
    32
  0
VERTEX
  8
0
  5
226
 10
-15.9048
 20
-44.8215
 30
0.000000
  70
    32
  0
VERTEX
  8
0
  5
227
 10
-15.9111
 20
-44.8233
 30
0.000000
  70
    32
  0
VERTEX
  8
0
  5
228
 10
-15.9175
 20
-44.8252
 30
0.000000
  70
    32
  0
VERTEX
  8
0
  5
229
 10
-15.9238
 20
-44.8272
 30
0.000000
  70
    32
  0
VERTEX
  8
0
  5
22A
 10
-15.9301
 20
-44.8292
 30
0.000000
  70
    32
  0
VERTEX
  8
0
  5
22B
 10
-15.9363
 20
-44.8313
 30
0.000000
  70
    32
  0
VERTEX
  8
0
  5
22C
 10
-15.9425
 20
-44.8335
 30
0.000000
  70
    32
  0
VERTEX
  8
0
  5
22D
 10
-15.9488
 20
-44.8357
 30
0.000000
  70
    32
  0
VERTEX
  8
0
  5
22E
 10
-15.9549
 20
-44.8381
 30
0.000000
  70
    32
  0
VERTEX
  8
0
  5
22F
 10
-15.9611
 20
-44.8404
 30
0.000000
  70
    32
  0
VERTEX
  8
0
  5
230
 10
-15.9672
 20
-44.8429
 30
0.000000
  70
    32
  0
VERTEX
  8
0
  5
231
 10
-15.9732
 20
-44.8454
 30
0.000000
  70
    32
  0
VERTEX
  8
0
  5
232
 10
-15.9793
 20
-44.8480
 30
0.000000
  70
    32
  0
VERTEX
  8
0
  5
233
 10
-15.9853
 20
-44.8507
 30
0.000000
  70
    32
  0
VERTEX
  8
0
  5
234
 10
-15.9913
 20
-44.8534
 30
0.000000
  70
    32
  0
VERTEX
  8
0
  5
235
 10
-15.9972
 20
-44.8562
 30
0.000000
  70
    32
  0
VERTEX
  8
0
  5
236
 10
-16.0031
 20
-44.8590
 30
0.000000
  70
    32
  0
VERTEX
  8
0
  5
237
 10
-16.0090
 20
-44.8620
 30
0.000000
  70
    32
  0
VERTEX
  8
0
  5
238
 10
-16.0148
 20
-44.8650
 30
0.000000
  70
    32
  0
VERTEX
  8
0
  5
239
 10
-16.0205
 20
-44.8680
 30
0.000000
  70
    32
  0
VERTEX
  8
0
  5
23A
 10
-16.0263
 20
-44.8711
 30
0.000000
  70
    32
  0
VERTEX
  8
0
  5
23B
 10
-16.0320
 20
-44.8743
 30
0.000000
  70
    32
  0
VERTEX
  8
0
  5
23C
 10
-16.0376
 20
-44.8776
 30
0.000000
  70
    32
  0
VERTEX
  8
0
  5
23D
 10
-16.0432
 20
-44.8809
 30
0.000000
  70
    32
  0
VERTEX
  8
0
  5
23E
 10
-16.0488
 20
-44.8843
 30
0.000000
  70
    32
  0
VERTEX
  8
0
  5
23F
 10
-16.0543
 20
-44.8877
 30
0.000000
  70
    32
  0
VERTEX
  8
0
  5
240
 10
-16.0598
 20
-44.8912
 30
0.000000
  70
    32
  0
VERTEX
  8
0
  5
241
 10
-16.0652
 20
-44.8948
 30
0.000000
  70
    32
  0
VERTEX
  8
0
  5
242
 10
-16.0706
 20
-44.8984
 30
0.000000
  70
    32
  0
VERTEX
  8
0
  5
243
 10
-16.0759
 20
-44.9021
 30
0.000000
  70
    32
  0
VERTEX
  8
0
  5
244
 10
-16.0812
 20
-44.9058
 30
0.000000
  70
    32
  0
VERTEX
  8
0
  5
245
 10
-16.0864
 20
-44.9096
 30
0.000000
  70
    32
  0
VERTEX
  8
0
  5
246
 10
-16.0916
 20
-44.9135
 30
0.000000
  70
    32
  0
VERTEX
  8
0
  5
247
 10
-16.0967
 20
-44.9174
 30
0.000000
  70
    32
  0
VERTEX
  8
0
  5
248
 10
-16.1018
 20
-44.9214
 30
0.000000
  70
    32
  0
VERTEX
  8
0
  5
249
 10
-16.1068
 20
-44.9254
 30
0.000000
  70
    32
  0
VERTEX
  8
0
  5
24A
 10
-16.1118
 20
-44.9295
 30
0.000000
  70
    32
  0
VERTEX
  8
0
  5
24B
 10
-16.1167
 20
-44.9337
 30
0.000000
  70
    32
  0
VERTEX
  8
0
  5
24C
 10
-16.1215
 20
-44.9379
 30
0.000000
  70
    32
  0
VERTEX
  8
0
  5
24D
 10
-16.1263
 20
-44.9421
 30
0.000000
  70
    32
  0
VERTEX
  8
0
  5
24E
 10
-16.1311
 20
-44.9464
 30
0.000000
  70
    32
  0
VERTEX
  8
0
  5
24F
 10
-16.1358
 20
-44.9508
 30
0.000000
  70
    32
  0
VERTEX
  8
0
  5
250
 10
-16.1404
 20
-44.9552
 30
0.000000
  70
    32
  0
VERTEX
  8
0
  5
251
 10
-16.1450
 20
-44.9597
 30
0.000000
  70
    32
  0
VERTEX
  8
0
  5
252
 10
-16.1495
 20
-44.9642
 30
0.000000
  70
    32
  0
VERTEX
  8
0
  5
253
 10
-16.1539
 20
-44.9688
 30
0.000000
  70
    32
  0
VERTEX
  8
0
  5
254
 10
-16.1583
 20
-44.9734
 30
0.000000
  70
    32
  0
VERTEX
  8
0
  5
255
 10
-16.1626
 20
-44.9781
 30
0.000000
  70
    32
  0
VERTEX
  8
0
  5
256
 10
-16.1669
 20
-44.9828
 30
0.000000
  70
    32
  0
VERTEX
  8
0
  5
257
 10
-16.1711
 20
-44.9876
 30
0.000000
  70
    32
  0
VERTEX
  8
0
  5
258
 10
-16.1752
 20
-44.9924
 30
0.000000
  70
    32
  0
VERTEX
  8
0
  5
259
 10
-16.1793
 20
-44.9972
 30
0.000000
  70
    32
  0
VERTEX
  8
0
  5
25A
 10
-16.1833
 20
-45.0022
 30
0.000000
  70
    32
  0
VERTEX
  8
0
  5
25B
 10
-16.1872
 20
-45.0071
 30
0.000000
  70
    32
  0
VERTEX
  8
0
  5
25C
 10
-16.1911
 20
-45.0121
 30
0.000000
  70
    32
  0
VERTEX
  8
0
  5
25D
 10
-16.1949
 20
-45.0171
 30
0.000000
  70
    32
  0
VERTEX
  8
0
  5
25E
 10
-16.1986
 20
-45.0222
 30
0.000000
  70
    32
  0
VERTEX
  8
0
  5
25F
 10
-16.2023
 20
-45.0273
 30
0.000000
  70
    32
  0
VERTEX
  8
0
  5
260
 10
-16.2059
 20
-45.0325
 30
0.000000
  70
    32
  0
VERTEX
  8
0
  5
261
 10
-16.2094
 20
-45.0377
 30
0.000000
  70
    32
  0
VERTEX
  8
0
  5
262
 10
-16.2129
 20
-45.0429
 30
0.000000
  70
    32
  0
VERTEX
  8
0
  5
263
 10
-16.2163
 20
-45.0482
 30
0.000000
  70
    32
  0
VERTEX
  8
0
  5
264
 10
-16.2196
 20
-45.0536
 30
0.000000
  70
    32
  0
VERTEX
  8
0
  5
265
 10
-16.2228
 20
-45.0589
 30
0.000000
  70
    32
  0
VERTEX
  8
0
  5
266
 10
-16.2260
 20
-45.0643
 30
0.000000
  70
    32
  0
VERTEX
  8
0
  5
267
 10
-16.2291
 20
-45.0697
 30
0.000000
  70
    32
  0
VERTEX
  8
0
  5
268
 10
-16.2321
 20
-45.0752
 30
0.000000
  70
    32
  0
VERTEX
  8
0
  5
269
 10
-16.2351
 20
-45.0807
 30
0.000000
  70
    32
  0
VERTEX
  8
0
  5
26A
 10
-16.2380
 20
-45.0862
 30
0.000000
  70
    32
  0
VERTEX
  8
0
  5
26B
 10
-16.2408
 20
-45.0918
 30
0.000000
  70
    32
  0
VERTEX
  8
0
  5
26C
 10
-16.2435
 20
-45.0974
 30
0.000000
  70
    32
  0
VERTEX
  8
0
  5
26D
 10
-16.2462
 20
-45.1030
 30
0.000000
  70
    32
  0
VERTEX
  8
0
  5
26E
 10
-16.2488
 20
-45.1087
 30
0.000000
  70
    32
  0
VERTEX
  8
0
  5
26F
 10
-16.2513
 20
-45.1143
 30
0.000000
  70
    32
  0
VERTEX
  8
0
  5
270
 10
-16.2537
 20
-45.1201
 30
0.000000
  70
    32
  0
VERTEX
  8
0
  5
271
 10
-16.2561
 20
-45.1258
 30
0.000000
  70
    32
  0
VERTEX
  8
0
  5
272
 10
-16.2584
 20
-45.1316
 30
0.000000
  70
    32
  0
VERTEX
  8
0
  5
273
 10
-16.2606
 20
-45.1373
 30
0.000000
  70
    32
  0
VERTEX
  8
0
  5
274
 10
-16.2627
 20
-45.1432
 30
0.000000
  70
    32
  0
VERTEX
  8
0
  5
275
 10
-16.2648
 20
-45.1490
 30
0.000000
  70
    32
  0
VERTEX
  8
0
  5
276
 10
-16.2667
 20
-45.1549
 30
0.000000
  70
    32
  0
VERTEX
  8
0
  5
277
 10
-16.2686
 20
-45.1607
 30
0.000000
  70
    32
  0
VERTEX
  8
0
  5
278
 10
-16.2705
 20
-45.1666
 30
0.000000
  70
    32
  0
VERTEX
  8
0
  5
279
 10
-16.2722
 20
-45.1726
 30
0.000000
  70
    32
  0
VERTEX
  8
0
  5
27A
 10
-16.2739
 20
-45.1785
 30
0.000000
  70
    32
  0
VERTEX
  8
0
  5
27B
 10
-16.2754
 20
-45.1845
 30
0.000000
  70
    32
  0
VERTEX
  8
0
  5
27C
 10
-16.2769
 20
-45.1904
 30
0.000000
  70
    32
  0
VERTEX
  8
0
  5
27D
 10
-16.2784
 20
-45.1964
 30
0.000000
  70
    32
  0
VERTEX
  8
0
  5
27E
 10
-16.2797
 20
-45.2025
 30
0.000000
  70
    32
  0
VERTEX
  8
0
  5
27F
 10
-16.2810
 20
-45.2085
 30
0.000000
  70
    32
  0
VERTEX
  8
0
  5
280
 10
-16.2821
 20
-45.2145
 30
0.000000
  70
    32
  0
VERTEX
  8
0
  5
281
 10
-16.2832
 20
-45.2206
 30
0.000000
  70
    32
  0
VERTEX
  8
0
  5
282
 10
-16.2843
 20
-45.2266
 30
0.000000
  70
    32
  0
VERTEX
  8
0
  5
283
 10
-16.2852
 20
-45.2327
 30
0.000000
  70
    32
  0
VERTEX
  8
0
  5
284
 10
-16.2860
 20
-45.2388
 30
0.000000
  70
    32
  0
VERTEX
  8
0
  5
285
 10
-16.2868
 20
-45.2449
 30
0.000000
  70
    32
  0
VERTEX
  8
0
  5
286
 10
-16.2875
 20
-45.2510
 30
0.000000
  70
    32
  0
VERTEX
  8
0
  5
287
 10
-16.2881
 20
-45.2571
 30
0.000000
  70
    32
  0
VERTEX
  8
0
  5
288
 10
-16.2887
 20
-45.2632
 30
0.000000
  70
    32
  0
VERTEX
  8
0
  5
289
 10
-16.2891
 20
-45.2693
 30
0.000000
  70
    32
  0
VERTEX
  8
0
  5
28A
 10
-16.2895
 20
-45.2755
 30
0.000000
  70
    32
  0
VERTEX
  8
0
  5
28B
 10
-16.2898
 20
-45.2816
 30
0.000000
  70
    32
  0
VERTEX
  8
0
  5
28C
 10
-16.2900
 20
-45.2877
 30
0.000000
  70
    32
  0
VERTEX
  8
0
  5
28D
 10
-16.2901
 20
-45.2939
 30
0.000000
  70
    32
  0
VERTEX
  8
0
  5
28E
 10
-16.2901
 20
-45.3000
 30
0.000000
  70
    32
  0
SEQEND
  8
0
  5
28F
  0
LINE
  5
1B3
  8
0
 10
-16.29012925810521
 20
-55.79999999999994
 30
0.0
 11
-16.290129258105239
 21
-45.299999999999969
 31
0.0
  0
POLYLINE
  5
1B4
  8
0
 10
-16.290129258105246
 20
-55.799999999999947
 30
0.0
 66
     1
 70
     8
  0
VERTEX
  8
0
  5
290
 10
-16.2901
 20
-55.8000
 30
0.000000
  70
    32
  0
VERTEX
  8
0
  5
291
 10
-16.2901
 20
-55.8061
 30
0.000000
  70
    32
  0
VERTEX
  8
0
  5
292
 10
-16.2900
 20
-55.8123
 30
0.000000
  70
    32
  0
VERTEX
  8
0
  5
293
 10
-16.2898
 20
-55.8184
 30
0.000000
  70
    32
  0
VERTEX
  8
0
  5
294
 10
-16.2895
 20
-55.8245
 30
0.000000
  70
    32
  0
VERTEX
  8
0
  5
295
 10
-16.2891
 20
-55.8307
 30
0.000000
  70
    32
  0
VERTEX
  8
0
  5
296
 10
-16.2887
 20
-55.8368
 30
0.000000
  70
    32
  0
VERTEX
  8
0
  5
297
 10
-16.2881
 20
-55.8429
 30
0.000000
  70
    32
  0
VERTEX
  8
0
  5
298
 10
-16.2875
 20
-55.8490
 30
0.000000
  70
    32
  0
VERTEX
  8
0
  5
299
 10
-16.2868
 20
-55.8551
 30
0.000000
  70
    32
  0
VERTEX
  8
0
  5
29A
 10
-16.2860
 20
-55.8612
 30
0.000000
  70
    32
  0
VERTEX
  8
0
  5
29B
 10
-16.2852
 20
-55.8673
 30
0.000000
  70
    32
  0
VERTEX
  8
0
  5
29C
 10
-16.2843
 20
-55.8734
 30
0.000000
  70
    32
  0
VERTEX
  8
0
  5
29D
 10
-16.2832
 20
-55.8794
 30
0.000000
  70
    32
  0
VERTEX
  8
0
  5
29E
 10
-16.2821
 20
-55.8855
 30
0.000000
  70
    32
  0
VERTEX
  8
0
  5
29F
 10
-16.2810
 20
-55.8915
 30
0.000000
  70
    32
  0
VERTEX
  8
0
  5
2A0
 10
-16.2797
 20
-55.8975
 30
0.000000
  70
    32
  0
VERTEX
  8
0
  5
2A1
 10
-16.2784
 20
-55.9036
 30
0.000000
  70
    32
  0
VERTEX
  8
0
  5
2A2
 10
-16.2769
 20
-55.9096
 30
0.000000
  70
    32
  0
VERTEX
  8
0
  5
2A3
 10
-16.2754
 20
-55.9155
 30
0.000000
  70
    32
  0
VERTEX
  8
0
  5
2A4
 10
-16.2739
 20
-55.9215
 30
0.000000
  70
    32
  0
VERTEX
  8
0
  5
2A5
 10
-16.2722
 20
-55.9274
 30
0.000000
  70
    32
  0
VERTEX
  8
0
  5
2A6
 10
-16.2705
 20
-55.9334
 30
0.000000
  70
    32
  0
VERTEX
  8
0
  5
2A7
 10
-16.2686
 20
-55.9393
 30
0.000000
  70
    32
  0
VERTEX
  8
0
  5
2A8
 10
-16.2667
 20
-55.9451
 30
0.000000
  70
    32
  0
VERTEX
  8
0
  5
2A9
 10
-16.2648
 20
-55.9510
 30
0.000000
  70
    32
  0
VERTEX
  8
0
  5
2AA
 10
-16.2627
 20
-55.9568
 30
0.000000
  70
    32
  0
VERTEX
  8
0
  5
2AB
 10
-16.2606
 20
-55.9627
 30
0.000000
  70
    32
  0
VERTEX
  8
0
  5
2AC
 10
-16.2584
 20
-55.9684
 30
0.000000
  70
    32
  0
VERTEX
  8
0
  5
2AD
 10
-16.2561
 20
-55.9742
 30
0.000000
  70
    32
  0
VERTEX
  8
0
  5
2AE
 10
-16.2537
 20
-55.9799
 30
0.000000
  70
    32
  0
VERTEX
  8
0
  5
2AF
 10
-16.2513
 20
-55.9857
 30
0.000000
  70
    32
  0
VERTEX
  8
0
  5
2B0
 10
-16.2488
 20
-55.9913
 30
0.000000
  70
    32
  0
VERTEX
  8
0
  5
2B1
 10
-16.2462
 20
-55.9970
 30
0.000000
  70
    32
  0
VERTEX
  8
0
  5
2B2
 10
-16.2435
 20
-56.0026
 30
0.000000
  70
    32
  0
VERTEX
  8
0
  5
2B3
 10
-16.2408
 20
-56.0082
 30
0.000000
  70
    32
  0
VERTEX
  8
0
  5
2B4
 10
-16.2380
 20
-56.0138
 30
0.000000
  70
    32
  0
VERTEX
  8
0
  5
2B5
 10
-16.2351
 20
-56.0193
 30
0.000000
  70
    32
  0
VERTEX
  8
0
  5
2B6
 10
-16.2321
 20
-56.0248
 30
0.000000
  70
    32
  0
VERTEX
  8
0
  5
2B7
 10
-16.2291
 20
-56.0303
 30
0.000000
  70
    32
  0
VERTEX
  8
0
  5
2B8
 10
-16.2260
 20
-56.0357
 30
0.000000
  70
    32
  0
VERTEX
  8
0
  5
2B9
 10
-16.2228
 20
-56.0411
 30
0.000000
  70
    32
  0
VERTEX
  8
0
  5
2BA
 10
-16.2196
 20
-56.0464
 30
0.000000
  70
    32
  0
VERTEX
  8
0
  5
2BB
 10
-16.2163
 20
-56.0518
 30
0.000000
  70
    32
  0
VERTEX
  8
0
  5
2BC
 10
-16.2129
 20
-56.0571
 30
0.000000
  70
    32
  0
VERTEX
  8
0
  5
2BD
 10
-16.2094
 20
-56.0623
 30
0.000000
  70
    32
  0
VERTEX
  8
0
  5
2BE
 10
-16.2059
 20
-56.0675
 30
0.000000
  70
    32
  0
VERTEX
  8
0
  5
2BF
 10
-16.2023
 20
-56.0727
 30
0.000000
  70
    32
  0
VERTEX
  8
0
  5
2C0
 10
-16.1986
 20
-56.0778
 30
0.000000
  70
    32
  0
VERTEX
  8
0
  5
2C1
 10
-16.1949
 20
-56.0829
 30
0.000000
  70
    32
  0
VERTEX
  8
0
  5
2C2
 10
-16.1911
 20
-56.0879
 30
0.000000
  70
    32
  0
VERTEX
  8
0
  5
2C3
 10
-16.1872
 20
-56.0929
 30
0.000000
  70
    32
  0
VERTEX
  8
0
  5
2C4
 10
-16.1833
 20
-56.0978
 30
0.000000
  70
    32
  0
VERTEX
  8
0
  5
2C5
 10
-16.1793
 20
-56.1028
 30
0.000000
  70
    32
  0
VERTEX
  8
0
  5
2C6
 10
-16.1752
 20
-56.1076
 30
0.000000
  70
    32
  0
VERTEX
  8
0
  5
2C7
 10
-16.1711
 20
-56.1124
 30
0.000000
  70
    32
  0
VERTEX
  8
0
  5
2C8
 10
-16.1669
 20
-56.1172
 30
0.000000
  70
    32
  0
VERTEX
  8
0
  5
2C9
 10
-16.1626
 20
-56.1219
 30
0.000000
  70
    32
  0
VERTEX
  8
0
  5
2CA
 10
-16.1583
 20
-56.1266
 30
0.000000
  70
    32
  0
VERTEX
  8
0
  5
2CB
 10
-16.1539
 20
-56.1312
 30
0.000000
  70
    32
  0
VERTEX
  8
0
  5
2CC
 10
-16.1495
 20
-56.1358
 30
0.000000
  70
    32
  0
VERTEX
  8
0
  5
2CD
 10
-16.1450
 20
-56.1403
 30
0.000000
  70
    32
  0
VERTEX
  8
0
  5
2CE
 10
-16.1404
 20
-56.1448
 30
0.000000
  70
    32
  0
VERTEX
  8
0
  5
2CF
 10
-16.1358
 20
-56.1492
 30
0.000000
  70
    32
  0
VERTEX
  8
0
  5
2D0
 10
-16.1311
 20
-56.1536
 30
0.000000
  70
    32
  0
VERTEX
  8
0
  5
2D1
 10
-16.1263
 20
-56.1579
 30
0.000000
  70
    32
  0
VERTEX
  8
0
  5
2D2
 10
-16.1215
 20
-56.1621
 30
0.000000
  70
    32
  0
VERTEX
  8
0
  5
2D3
 10
-16.1167
 20
-56.1663
 30
0.000000
  70
    32
  0
VERTEX
  8
0
  5
2D4
 10
-16.1118
 20
-56.1705
 30
0.000000
  70
    32
  0
VERTEX
  8
0
  5
2D5
 10
-16.1068
 20
-56.1746
 30
0.000000
  70
    32
  0
VERTEX
  8
0
  5
2D6
 10
-16.1018
 20
-56.1786
 30
0.000000
  70
    32
  0
VERTEX
  8
0
  5
2D7
 10
-16.0967
 20
-56.1826
 30
0.000000
  70
    32
  0
VERTEX
  8
0
  5
2D8
 10
-16.0916
 20
-56.1865
 30
0.000000
  70
    32
  0
VERTEX
  8
0
  5
2D9
 10
-16.0864
 20
-56.1904
 30
0.000000
  70
    32
  0
VERTEX
  8
0
  5
2DA
 10
-16.0812
 20
-56.1942
 30
0.000000
  70
    32
  0
VERTEX
  8
0
  5
2DB
 10
-16.0759
 20
-56.1979
 30
0.000000
  70
    32
  0
VERTEX
  8
0
  5
2DC
 10
-16.0706
 20
-56.2016
 30
0.000000
  70
    32
  0
VERTEX
  8
0
  5
2DD
 10
-16.0652
 20
-56.2052
 30
0.000000
  70
    32
  0
VERTEX
  8
0
  5
2DE
 10
-16.0598
 20
-56.2088
 30
0.000000
  70
    32
  0
VERTEX
  8
0
  5
2DF
 10
-16.0543
 20
-56.2123
 30
0.000000
  70
    32
  0
VERTEX
  8
0
  5
2E0
 10
-16.0488
 20
-56.2157
 30
0.000000
  70
    32
  0
VERTEX
  8
0
  5
2E1
 10
-16.0432
 20
-56.2191
 30
0.000000
  70
    32
  0
VERTEX
  8
0
  5
2E2
 10
-16.0376
 20
-56.2224
 30
0.000000
  70
    32
  0
VERTEX
  8
0
  5
2E3
 10
-16.0320
 20
-56.2257
 30
0.000000
  70
    32
  0
VERTEX
  8
0
  5
2E4
 10
-16.0263
 20
-56.2289
 30
0.000000
  70
    32
  0
VERTEX
  8
0
  5
2E5
 10
-16.0205
 20
-56.2320
 30
0.000000
  70
    32
  0
VERTEX
  8
0
  5
2E6
 10
-16.0148
 20
-56.2350
 30
0.000000
  70
    32
  0
VERTEX
  8
0
  5
2E7
 10
-16.0090
 20
-56.2380
 30
0.000000
  70
    32
  0
VERTEX
  8
0
  5
2E8
 10
-16.0031
 20
-56.2410
 30
0.000000
  70
    32
  0
VERTEX
  8
0
  5
2E9
 10
-15.9972
 20
-56.2438
 30
0.000000
  70
    32
  0
VERTEX
  8
0
  5
2EA
 10
-15.9913
 20
-56.2466
 30
0.000000
  70
    32
  0
VERTEX
  8
0
  5
2EB
 10
-15.9853
 20
-56.2493
 30
0.000000
  70
    32
  0
VERTEX
  8
0
  5
2EC
 10
-15.9793
 20
-56.2520
 30
0.000000
  70
    32
  0
VERTEX
  8
0
  5
2ED
 10
-15.9732
 20
-56.2546
 30
0.000000
  70
    32
  0
VERTEX
  8
0
  5
2EE
 10
-15.9672
 20
-56.2571
 30
0.000000
  70
    32
  0
VERTEX
  8
0
  5
2EF
 10
-15.9611
 20
-56.2596
 30
0.000000
  70
    32
  0
VERTEX
  8
0
  5
2F0
 10
-15.9549
 20
-56.2619
 30
0.000000
  70
    32
  0
VERTEX
  8
0
  5
2F1
 10
-15.9488
 20
-56.2643
 30
0.000000
  70
    32
  0
VERTEX
  8
0
  5
2F2
 10
-15.9425
 20
-56.2665
 30
0.000000
  70
    32
  0
VERTEX
  8
0
  5
2F3
 10
-15.9363
 20
-56.2687
 30
0.000000
  70
    32
  0
VERTEX
  8
0
  5
2F4
 10
-15.9301
 20
-56.2708
 30
0.000000
  70
    32
  0
VERTEX
  8
0
  5
2F5
 10
-15.9238
 20
-56.2728
 30
0.000000
  70
    32
  0
VERTEX
  8
0
  5
2F6
 10
-15.9175
 20
-56.2748
 30
0.000000
  70
    32
  0
VERTEX
  8
0
  5
2F7
 10
-15.9111
 20
-56.2767
 30
0.000000
  70
    32
  0
VERTEX
  8
0
  5
2F8
 10
-15.9048
 20
-56.2785
 30
0.000000
  70
    32
  0
VERTEX
  8
0
  5
2F9
 10
-15.8984
 20
-56.2802
 30
0.000000
  70
    32
  0
VERTEX
  8
0
  5
2FA
 10
-15.8920
 20
-56.2819
 30
0.000000
  70
    32
  0
VERTEX
  8
0
  5
2FB
 10
-15.8855
 20
-56.2835
 30
0.000000
  70
    32
  0
VERTEX
  8
0
  5
2FC
 10
-15.8791
 20
-56.2850
 30
0.000000
  70
    32
  0
VERTEX
  8
0
  5
2FD
 10
-15.8726
 20
-56.2865
 30
0.000000
  70
    32
  0
VERTEX
  8
0
  5
2FE
 10
-15.8661
 20
-56.2879
 30
0.000000
  70
    32
  0
VERTEX
  8
0
  5
2FF
 10
-15.8596
 20
-56.2892
 30
0.000000
  70
    32
  0
VERTEX
  8
0
  5
300
 10
-15.8531
 20
-56.2904
 30
0.000000
  70
    32
  0
VERTEX
  8
0
  5
301
 10
-15.8465
 20
-56.2916
 30
0.000000
  70
    32
  0
VERTEX
  8
0
  5
302
 10
-15.8400
 20
-56.2926
 30
0.000000
  70
    32
  0
VERTEX
  8
0
  5
303
 10
-15.8334
 20
-56.2937
 30
0.000000
  70
    32
  0
VERTEX
  8
0
  5
304
 10
-15.8268
 20
-56.2946
 30
0.000000
  70
    32
  0
VERTEX
  8
0
  5
305
 10
-15.8202
 20
-56.2955
 30
0.000000
  70
    32
  0
VERTEX
  8
0
  5
306
 10
-15.8136
 20
-56.2962
 30
0.000000
  70
    32
  0
VERTEX
  8
0
  5
307
 10
-15.8070
 20
-56.2970
 30
0.000000
  70
    32
  0
VERTEX
  8
0
  5
308
 10
-15.8003
 20
-56.2976
 30
0.000000
  70
    32
  0
VERTEX
  8
0
  5
309
 10
-15.7937
 20
-56.2982
 30
0.000000
  70
    32
  0
VERTEX
  8
0
  5
30A
 10
-15.7871
 20
-56.2986
 30
0.000000
  70
    32
  0
VERTEX
  8
0
  5
30B
 10
-15.7804
 20
-56.2991
 30
0.000000
  70
    32
  0
VERTEX
  8
0
  5
30C
 10
-15.7738
 20
-56.2994
 30
0.000000
  70
    32
  0
VERTEX
  8
0
  5
30D
 10
-15.7671
 20
-56.2997
 30
0.000000
  70
    32
  0
VERTEX
  8
0
  5
30E
 10
-15.7605
 20
-56.2998
 30
0.000000
  70
    32
  0
VERTEX
  8
0
  5
30F
 10
-15.7538
 20
-56.3000
 30
0.000000
  70
    32
  0
VERTEX
  8
0
  5
310
 10
-15.7471
 20
-56.3000
 30
0.000000
  70
    32
  0
SEQEND
  8
0
  5
311
  0
LINE
  5
1B5
  8
0
 10
8.6880689376559772
 20
-45.299999999999969
 30
0.0
 11
8.6880689376559772
 21
-55.79999999999994
 31
0.0
  0
POLYLINE
  5
1B6
  8
0
 10
8.6880689376559417
 20
-45.299999999999962
 30
0.0
 66
     1
 70
     8
  0
VERTEX
  8
0
  5
312
 10
8.68807
 20
-45.3000
 30
0.000000
  70
    32
  0
VERTEX
  8
0
  5
313
 10
8.68803
 20
-45.2939
 30
0.000000
  70
    32
  0
VERTEX
  8
0
  5
314
 10
8.68791
 20
-45.2877
 30
0.000000
  70
    32
  0
VERTEX
  8
0
  5
315
 10
8.68770
 20
-45.2816
 30
0.000000
  70
    32
  0
VERTEX
  8
0
  5
316
 10
8.68741
 20
-45.2755
 30
0.000000
  70
    32
  0
VERTEX
  8
0
  5
317
 10
8.68705
 20
-45.2693
 30
0.000000
  70
    32
  0
VERTEX
  8
0
  5
318
 10
8.68660
 20
-45.2632
 30
0.000000
  70
    32
  0
VERTEX
  8
0
  5
319
 10
8.68607
 20
-45.2571
 30
0.000000
  70
    32
  0
VERTEX
  8
0
  5
31A
 10
8.68545
 20
-45.2510
 30
0.000000
  70
    32
  0
VERTEX
  8
0
  5
31B
 10
8.68476
 20
-45.2449
 30
0.000000
  70
    32
  0
VERTEX
  8
0
  5
31C
 10
8.68399
 20
-45.2388
 30
0.000000
  70
    32
  0
VERTEX
  8
0
  5
31D
 10
8.68313
 20
-45.2327
 30
0.000000
  70
    32
  0
VERTEX
  8
0
  5
31E
 10
8.68219
 20
-45.2266
 30
0.000000
  70
    32
  0
VERTEX
  8
0
  5
31F
 10
8.68117
 20
-45.2206
 30
0.000000
  70
    32
  0
VERTEX
  8
0
  5
320
 10
8.68007
 20
-45.2145
 30
0.000000
  70
    32
  0
VERTEX
  8
0
  5
321
 10
8.67890
 20
-45.2085
 30
0.000000
  70
    32
  0
VERTEX
  8
0
  5
322
 10
8.67764
 20
-45.2025
 30
0.000000
  70
    32
  0
VERTEX
  8
0
  5
323
 10
8.67630
 20
-45.1964
 30
0.000000
  70
    32
  0
VERTEX
  8
0
  5
324
 10
8.67488
 20
-45.1904
 30
0.000000
  70
    32
  0
VERTEX
  8
0
  5
325
 10
8.67338
 20
-45.1845
 30
0.000000
  70
    32
  0
VERTEX
  8
0
  5
326
 10
8.67180
 20
-45.1785
 30
0.000000
  70
    32
  0
VERTEX
  8
0
  5
327
 10
8.67014
 20
-45.1726
 30
0.000000
  70
    32
  0
VERTEX
  8
0
  5
328
 10
8.66840
 20
-45.1666
 30
0.000000
  70
    32
  0
VERTEX
  8
0
  5
329
 10
8.66658
 20
-45.1607
 30
0.000000
  70
    32
  0
VERTEX
  8
0
  5
32A
 10
8.66469
 20
-45.1549
 30
0.000000
  70
    32
  0
VERTEX
  8
0
  5
32B
 10
8.66271
 20
-45.1490
 30
0.000000
  70
    32
  0
VERTEX
  8
0
  5
32C
 10
8.66066
 20
-45.1432
 30
0.000000
  70
    32
  0
VERTEX
  8
0
  5
32D
 10
8.65853
 20
-45.1373
 30
0.000000
  70
    32
  0
VERTEX
  8
0
  5
32E
 10
8.65633
 20
-45.1316
 30
0.000000
  70
    32
  0
VERTEX
  8
0
  5
32F
 10
8.65404
 20
-45.1258
 30
0.000000
  70
    32
  0
VERTEX
  8
0
  5
330
 10
8.65168
 20
-45.1201
 30
0.000000
  70
    32
  0
VERTEX
  8
0
  5
331
 10
8.64925
 20
-45.1143
 30
0.000000
  70
    32
  0
VERTEX
  8
0
  5
332
 10
8.64674
 20
-45.1087
 30
0.000000
  70
    32
  0
VERTEX
  8
0
  5
333
 10
8.64415
 20
-45.1030
 30
0.000000
  70
    32
  0
VERTEX
  8
0
  5
334
 10
8.64148
 20
-45.0974
 30
0.000000
  70
    32
  0
VERTEX
  8
0
  5
335
 10
8.63875
 20
-45.0918
 30
0.000000
  70
    32
  0
VERTEX
  8
0
  5
336
 10
8.63593
 20
-45.0862
 30
0.000000
  70
    32
  0
VERTEX
  8
0
  5
337
 10
8.63305
 20
-45.0807
 30
0.000000
  70
    32
  0
VERTEX
  8
0
  5
338
 10
8.63009
 20
-45.0752
 30
0.000000
  70
    32
  0
VERTEX
  8
0
  5
339
 10
8.62706
 20
-45.0697
 30
0.000000
  70
    32
  0
VERTEX
  8
0
  5
33A
 10
8.62395
 20
-45.0643
 30
0.000000
  70
    32
  0
VERTEX
  8
0
  5
33B
 10
8.62077
 20
-45.0589
 30
0.000000
  70
    32
  0
VERTEX
  8
0
  5
33C
 10
8.61753
 20
-45.0536
 30
0.000000
  70
    32
  0
VERTEX
  8
0
  5
33D
 10
8.61421
 20
-45.0482
 30
0.000000
  70
    32
  0
VERTEX
  8
0
  5
33E
 10
8.61081
 20
-45.0429
 30
0.000000
  70
    32
  0
VERTEX
  8
0
  5
33F
 10
8.60735
 20
-45.0377
 30
0.000000
  70
    32
  0
VERTEX
  8
0
  5
340
 10
8.60382
 20
-45.0325
 30
0.000000
  70
    32
  0
VERTEX
  8
0
  5
341
 10
8.60022
 20
-45.0273
 30
0.000000
  70
    32
  0
VERTEX
  8
0
  5
342
 10
8.59656
 20
-45.0222
 30
0.000000
  70
    32
  0
VERTEX
  8
0
  5
343
 10
8.59282
 20
-45.0171
 30
0.000000
  70
    32
  0
VERTEX
  8
0
  5
344
 10
8.58902
 20
-45.0121
 30
0.000000
  70
    32
  0
VERTEX
  8
0
  5
345
 10
8.58515
 20
-45.0071
 30
0.000000
  70
    32
  0
VERTEX
  8
0
  5
346
 10
8.58121
 20
-45.0022
 30
0.000000
  70
    32
  0
VERTEX
  8
0
  5
347
 10
8.57721
 20
-44.9972
 30
0.000000
  70
    32
  0
VERTEX
  8
0
  5
348
 10
8.57314
 20
-44.9924
 30
0.000000
  70
    32
  0
VERTEX
  8
0
  5
349
 10
8.56901
 20
-44.9876
 30
0.000000
  70
    32
  0
VERTEX
  8
0
  5
34A
 10
8.56481
 20
-44.9828
 30
0.000000
  70
    32
  0
VERTEX
  8
0
  5
34B
 10
8.56055
 20
-44.9781
 30
0.000000
  70
    32
  0
VERTEX
  8
0
  5
34C
 10
8.55623
 20
-44.9734
 30
0.000000
  70
    32
  0
VERTEX
  8
0
  5
34D
 10
8.55185
 20
-44.9688
 30
0.000000
  70
    32
  0
VERTEX
  8
0
  5
34E
 10
8.54740
 20
-44.9642
 30
0.000000
  70
    32
  0
VERTEX
  8
0
  5
34F
 10
8.54290
 20
-44.9597
 30
0.000000
  70
    32
  0
VERTEX
  8
0
  5
350
 10
8.53833
 20
-44.9552
 30
0.000000
  70
    32
  0
VERTEX
  8
0
  5
351
 10
8.53371
 20
-44.9508
 30
0.000000
  70
    32
  0
VERTEX
  8
0
  5
352
 10
8.52903
 20
-44.9464
 30
0.000000
  70
    32
  0
VERTEX
  8
0
  5
353
 10
8.52429
 20
-44.9421
 30
0.000000
  70
    32
  0
VERTEX
  8
0
  5
354
 10
8.51949
 20
-44.9379
 30
0.000000
  70
    32
  0
VERTEX
  8
0
  5
355
 10
8.51463
 20
-44.9337
 30
0.000000
  70
    32
  0
VERTEX
  8
0
  5
356
 10
8.50972
 20
-44.9295
 30
0.000000
  70
    32
  0
VERTEX
  8
0
  5
357
 10
8.50476
 20
-44.9254
 30
0.000000
  70
    32
  0
VERTEX
  8
0
  5
358
 10
8.49974
 20
-44.9214
 30
0.000000
  70
    32
  0
VERTEX
  8
0
  5
359
 10
8.49467
 20
-44.9174
 30
0.000000
  70
    32
  0
VERTEX
  8
0
  5
35A
 10
8.48954
 20
-44.9135
 30
0.000000
  70
    32
  0
VERTEX
  8
0
  5
35B
 10
8.48437
 20
-44.9096
 30
0.000000
  70
    32
  0
VERTEX
  8
0
  5
35C
 10
8.47914
 20
-44.9058
 30
0.000000
  70
    32
  0
VERTEX
  8
0
  5
35D
 10
8.47386
 20
-44.9021
 30
0.000000
  70
    32
  0
VERTEX
  8
0
  5
35E
 10
8.46853
 20
-44.8984
 30
0.000000
  70
    32
  0
VERTEX
  8
0
  5
35F
 10
8.46316
 20
-44.8948
 30
0.000000
  70
    32
  0
VERTEX
  8
0
  5
360
 10
8.45773
 20
-44.8912
 30
0.000000
  70
    32
  0
VERTEX
  8
0
  5
361
 10
8.45226
 20
-44.8877
 30
0.000000
  70
    32
  0
VERTEX
  8
0
  5
362
 10
8.44674
 20
-44.8843
 30
0.000000
  70
    32
  0
VERTEX
  8
0
  5
363
 10
8.44118
 20
-44.8809
 30
0.000000
  70
    32
  0
VERTEX
  8
0
  5
364
 10
8.43557
 20
-44.8776
 30
0.000000
  70
    32
  0
VERTEX
  8
0
  5
365
 10
8.42992
 20
-44.8743
 30
0.000000
  70
    32
  0
VERTEX
  8
0
  5
366
 10
8.42422
 20
-44.8711
 30
0.000000
  70
    32
  0
VERTEX
  8
0
  5
367
 10
8.41849
 20
-44.8680
 30
0.000000
  70
    32
  0
VERTEX
  8
0
  5
368
 10
8.41271
 20
-44.8650
 30
0.000000
  70
    32
  0
VERTEX
  8
0
  5
369
 10
8.40689
 20
-44.8620
 30
0.000000
  70
    32
  0
VERTEX
  8
0
  5
36A
 10
8.40104
 20
-44.8590
 30
0.000000
  70
    32
  0
VERTEX
  8
0
  5
36B
 10
8.39514
 20
-44.8562
 30
0.000000
  70
    32
  0
VERTEX
  8
0
  5
36C
 10
8.38921
 20
-44.8534
 30
0.000000
  70
    32
  0
VERTEX
  8
0
  5
36D
 10
8.38324
 20
-44.8507
 30
0.000000
  70
    32
  0
VERTEX
  8
0
  5
36E
 10
8.37723
 20
-44.8480
 30
0.000000
  70
    32
  0
VERTEX
  8
0
  5
36F
 10
8.37119
 20
-44.8454
 30
0.000000
  70
    32
  0
VERTEX
  8
0
  5
370
 10
8.36511
 20
-44.8429
 30
0.000000
  70
    32
  0
VERTEX
  8
0
  5
371
 10
8.35900
 20
-44.8404
 30
0.000000
  70
    32
  0
VERTEX
  8
0
  5
372
 10
8.35286
 20
-44.8381
 30
0.000000
  70
    32
  0
VERTEX
  8
0
  5
373
 10
8.34669
 20
-44.8357
 30
0.000000
  70
    32
  0
VERTEX
  8
0
  5
374
 10
8.34049
 20
-44.8335
 30
0.000000
  70
    32
  0
VERTEX
  8
0
  5
375
 10
8.33426
 20
-44.8313
 30
0.000000
  70
    32
  0
VERTEX
  8
0
  5
376
 10
8.32800
 20
-44.8292
 30
0.000000
  70
    32
  0
VERTEX
  8
0
  5
377
 10
8.32171
 20
-44.8272
 30
0.000000
  70
    32
  0
VERTEX
  8
0
  5
378
 10
8.31540
 20
-44.8252
 30
0.000000
  70
    32
  0
VERTEX
  8
0
  5
379
 10
8.30906
 20
-44.8233
 30
0.000000
  70
    32
  0
VERTEX
  8
0
  5
37A
 10
8.30269
 20
-44.8215
 30
0.000000
  70
    32
  0
VERTEX
  8
0
  5
37B
 10
8.29630
 20
-44.8198
 30
0.000000
  70
    32
  0
VERTEX
  8
0
  5
37C
 10
8.28989
 20
-44.8181
 30
0.000000
  70
    32
  0
VERTEX
  8
0
  5
37D
 10
8.28346
 20
-44.8165
 30
0.000000
  70
    32
  0
VERTEX
  8
0
  5
37E
 10
8.27700
 20
-44.8150
 30
0.000000
  70
    32
  0
VERTEX
  8
0
  5
37F
 10
8.27053
 20
-44.8135
 30
0.000000
  70
    32
  0
VERTEX
  8
0
  5
380
 10
8.26404
 20
-44.8121
 30
0.000000
  70
    32
  0
VERTEX
  8
0
  5
381
 10
8.25753
 20
-44.8108
 30
0.000000
  70
    32
  0
VERTEX
  8
0
  5
382
 10
8.25100
 20
-44.8096
 30
0.000000
  70
    32
  0
VERTEX
  8
0
  5
383
 10
8.24446
 20
-44.8084
 30
0.000000
  70
    32
  0
VERTEX
  8
0
  5
384
 10
8.23790
 20
-44.8074
 30
0.000000
  70
    32
  0
VERTEX
  8
0
  5
385
 10
8.23133
 20
-44.8063
 30
0.000000
  70
    32
  0
VERTEX
  8
0
  5
386
 10
8.22474
 20
-44.8054
 30
0.000000
  70
    32
  0
VERTEX
  8
0
  5
387
 10
8.21814
 20
-44.8045
 30
0.000000
  70
    32
  0
VERTEX
  8
0
  5
388
 10
8.21153
 20
-44.8038
 30
0.000000
  70
    32
  0
VERTEX
  8
0
  5
389
 10
8.20492
 20
-44.8030
 30
0.000000
  70
    32
  0
VERTEX
  8
0
  5
38A
 10
8.19829
 20
-44.8024
 30
0.000000
  70
    32
  0
VERTEX
  8
0
  5
38B
 10
8.19165
 20
-44.8018
 30
0.000000
  70
    32
  0
VERTEX
  8
0
  5
38C
 10
8.18501
 20
-44.8014
 30
0.000000
  70
    32
  0
VERTEX
  8
0
  5
38D
 10
8.17836
 20
-44.8009
 30
0.000000
  70
    32
  0
VERTEX
  8
0
  5
38E
 10
8.17171
 20
-44.8006
 30
0.000000
  70
    32
  0
VERTEX
  8
0
  5
38F
 10
8.16505
 20
-44.8003
 30
0.000000
  70
    32
  0
VERTEX
  8
0
  5
390
 10
8.15839
 20
-44.8002
 30
0.000000
  70
    32
  0
VERTEX
  8
0
  5
391
 10
8.15173
 20
-44.8000
 30
0.000000
  70
    32
  0
VERTEX
  8
0
  5
392
 10
8.14506
 20
-44.8000
 30
0.000000
  70
    32
  0
SEQEND
  8
0
  5
393
  0
POLYLINE
  5
1B7
  8
0
 10
8.1450646290524631
 20
-56.299999999999947
 30
0.0
 66
     1
 70
     8
  0
VERTEX
  8
0
  5
394
 10
8.14506
 20
-56.3000
 30
0.000000
  70
    32
  0
VERTEX
  8
0
  5
395
 10
8.15173
 20
-56.3000
 30
0.000000
  70
    32
  0
VERTEX
  8
0
  5
396
 10
8.15839
 20
-56.2998
 30
0.000000
  70
    32
  0
VERTEX
  8
0
  5
397
 10
8.16505
 20
-56.2997
 30
0.000000
  70
    32
  0
VERTEX
  8
0
  5
398
 10
8.17171
 20
-56.2994
 30
0.000000
  70
    32
  0
VERTEX
  8
0
  5
399
 10
8.17836
 20
-56.2991
 30
0.000000
  70
    32
  0
VERTEX
  8
0
  5
39A
 10
8.18501
 20
-56.2986
 30
0.000000
  70
    32
  0
VERTEX
  8
0
  5
39B
 10
8.19165
 20
-56.2982
 30
0.000000
  70
    32
  0
VERTEX
  8
0
  5
39C
 10
8.19829
 20
-56.2976
 30
0.000000
  70
    32
  0
VERTEX
  8
0
  5
39D
 10
8.20492
 20
-56.2970
 30
0.000000
  70
    32
  0
VERTEX
  8
0
  5
39E
 10
8.21153
 20
-56.2962
 30
0.000000
  70
    32
  0
VERTEX
  8
0
  5
39F
 10
8.21814
 20
-56.2955
 30
0.000000
  70
    32
  0
VERTEX
  8
0
  5
3A0
 10
8.22474
 20
-56.2946
 30
0.000000
  70
    32
  0
VERTEX
  8
0
  5
3A1
 10
8.23133
 20
-56.2937
 30
0.000000
  70
    32
  0
VERTEX
  8
0
  5
3A2
 10
8.23790
 20
-56.2926
 30
0.000000
  70
    32
  0
VERTEX
  8
0
  5
3A3
 10
8.24446
 20
-56.2916
 30
0.000000
  70
    32
  0
VERTEX
  8
0
  5
3A4
 10
8.25100
 20
-56.2904
 30
0.000000
  70
    32
  0
VERTEX
  8
0
  5
3A5
 10
8.25753
 20
-56.2892
 30
0.000000
  70
    32
  0
VERTEX
  8
0
  5
3A6
 10
8.26404
 20
-56.2879
 30
0.000000
  70
    32
  0
VERTEX
  8
0
  5
3A7
 10
8.27053
 20
-56.2865
 30
0.000000
  70
    32
  0
VERTEX
  8
0
  5
3A8
 10
8.27700
 20
-56.2850
 30
0.000000
  70
    32
  0
VERTEX
  8
0
  5
3A9
 10
8.28346
 20
-56.2835
 30
0.000000
  70
    32
  0
VERTEX
  8
0
  5
3AA
 10
8.28989
 20
-56.2819
 30
0.000000
  70
    32
  0
VERTEX
  8
0
  5
3AB
 10
8.29630
 20
-56.2802
 30
0.000000
  70
    32
  0
VERTEX
  8
0
  5
3AC
 10
8.30269
 20
-56.2785
 30
0.000000
  70
    32
  0
VERTEX
  8
0
  5
3AD
 10
8.30906
 20
-56.2767
 30
0.000000
  70
    32
  0
VERTEX
  8
0
  5
3AE
 10
8.31540
 20
-56.2748
 30
0.000000
  70
    32
  0
VERTEX
  8
0
  5
3AF
 10
8.32171
 20
-56.2728
 30
0.000000
  70
    32
  0
VERTEX
  8
0
  5
3B0
 10
8.32800
 20
-56.2708
 30
0.000000
  70
    32
  0
VERTEX
  8
0
  5
3B1
 10
8.33426
 20
-56.2687
 30
0.000000
  70
    32
  0
VERTEX
  8
0
  5
3B2
 10
8.34049
 20
-56.2665
 30
0.000000
  70
    32
  0
VERTEX
  8
0
  5
3B3
 10
8.34669
 20
-56.2643
 30
0.000000
  70
    32
  0
VERTEX
  8
0
  5
3B4
 10
8.35286
 20
-56.2619
 30
0.000000
  70
    32
  0
VERTEX
  8
0
  5
3B5
 10
8.35900
 20
-56.2596
 30
0.000000
  70
    32
  0
VERTEX
  8
0
  5
3B6
 10
8.36511
 20
-56.2571
 30
0.000000
  70
    32
  0
VERTEX
  8
0
  5
3B7
 10
8.37119
 20
-56.2546
 30
0.000000
  70
    32
  0
VERTEX
  8
0
  5
3B8
 10
8.37723
 20
-56.2520
 30
0.000000
  70
    32
  0
VERTEX
  8
0
  5
3B9
 10
8.38324
 20
-56.2493
 30
0.000000
  70
    32
  0
VERTEX
  8
0
  5
3BA
 10
8.38921
 20
-56.2466
 30
0.000000
  70
    32
  0
VERTEX
  8
0
  5
3BB
 10
8.39514
 20
-56.2438
 30
0.000000
  70
    32
  0
VERTEX
  8
0
  5
3BC
 10
8.40104
 20
-56.2410
 30
0.000000
  70
    32
  0
VERTEX
  8
0
  5
3BD
 10
8.40689
 20
-56.2380
 30
0.000000
  70
    32
  0
VERTEX
  8
0
  5
3BE
 10
8.41271
 20
-56.2350
 30
0.000000
  70
    32
  0
VERTEX
  8
0
  5
3BF
 10
8.41849
 20
-56.2320
 30
0.000000
  70
    32
  0
VERTEX
  8
0
  5
3C0
 10
8.42422
 20
-56.2289
 30
0.000000
  70
    32
  0
VERTEX
  8
0
  5
3C1
 10
8.42992
 20
-56.2257
 30
0.000000
  70
    32
  0
VERTEX
  8
0
  5
3C2
 10
8.43557
 20
-56.2224
 30
0.000000
  70
    32
  0
VERTEX
  8
0
  5
3C3
 10
8.44118
 20
-56.2191
 30
0.000000
  70
    32
  0
VERTEX
  8
0
  5
3C4
 10
8.44674
 20
-56.2157
 30
0.000000
  70
    32
  0
VERTEX
  8
0
  5
3C5
 10
8.45226
 20
-56.2123
 30
0.000000
  70
    32
  0
VERTEX
  8
0
  5
3C6
 10
8.45773
 20
-56.2088
 30
0.000000
  70
    32
  0
VERTEX
  8
0
  5
3C7
 10
8.46316
 20
-56.2052
 30
0.000000
  70
    32
  0
VERTEX
  8
0
  5
3C8
 10
8.46853
 20
-56.2016
 30
0.000000
  70
    32
  0
VERTEX
  8
0
  5
3C9
 10
8.47386
 20
-56.1979
 30
0.000000
  70
    32
  0
VERTEX
  8
0
  5
3CA
 10
8.47914
 20
-56.1942
 30
0.000000
  70
    32
  0
VERTEX
  8
0
  5
3CB
 10
8.48437
 20
-56.1904
 30
0.000000
  70
    32
  0
VERTEX
  8
0
  5
3CC
 10
8.48954
 20
-56.1865
 30
0.000000
  70
    32
  0
VERTEX
  8
0
  5
3CD
 10
8.49467
 20
-56.1826
 30
0.000000
  70
    32
  0
VERTEX
  8
0
  5
3CE
 10
8.49974
 20
-56.1786
 30
0.000000
  70
    32
  0
VERTEX
  8
0
  5
3CF
 10
8.50476
 20
-56.1746
 30
0.000000
  70
    32
  0
VERTEX
  8
0
  5
3D0
 10
8.50972
 20
-56.1705
 30
0.000000
  70
    32
  0
VERTEX
  8
0
  5
3D1
 10
8.51463
 20
-56.1663
 30
0.000000
  70
    32
  0
VERTEX
  8
0
  5
3D2
 10
8.51949
 20
-56.1621
 30
0.000000
  70
    32
  0
VERTEX
  8
0
  5
3D3
 10
8.52429
 20
-56.1579
 30
0.000000
  70
    32
  0
VERTEX
  8
0
  5
3D4
 10
8.52903
 20
-56.1536
 30
0.000000
  70
    32
  0
VERTEX
  8
0
  5
3D5
 10
8.53371
 20
-56.1492
 30
0.000000
  70
    32
  0
VERTEX
  8
0
  5
3D6
 10
8.53833
 20
-56.1448
 30
0.000000
  70
    32
  0
VERTEX
  8
0
  5
3D7
 10
8.54290
 20
-56.1403
 30
0.000000
  70
    32
  0
VERTEX
  8
0
  5
3D8
 10
8.54740
 20
-56.1358
 30
0.000000
  70
    32
  0
VERTEX
  8
0
  5
3D9
 10
8.55185
 20
-56.1312
 30
0.000000
  70
    32
  0
VERTEX
  8
0
  5
3DA
 10
8.55623
 20
-56.1266
 30
0.000000
  70
    32
  0
VERTEX
  8
0
  5
3DB
 10
8.56055
 20
-56.1219
 30
0.000000
  70
    32
  0
VERTEX
  8
0
  5
3DC
 10
8.56481
 20
-56.1172
 30
0.000000
  70
    32
  0
VERTEX
  8
0
  5
3DD
 10
8.56901
 20
-56.1124
 30
0.000000
  70
    32
  0
VERTEX
  8
0
  5
3DE
 10
8.57314
 20
-56.1076
 30
0.000000
  70
    32
  0
VERTEX
  8
0
  5
3DF
 10
8.57721
 20
-56.1028
 30
0.000000
  70
    32
  0
VERTEX
  8
0
  5
3E0
 10
8.58121
 20
-56.0978
 30
0.000000
  70
    32
  0
VERTEX
  8
0
  5
3E1
 10
8.58515
 20
-56.0929
 30
0.000000
  70
    32
  0
VERTEX
  8
0
  5
3E2
 10
8.58902
 20
-56.0879
 30
0.000000
  70
    32
  0
VERTEX
  8
0
  5
3E3
 10
8.59282
 20
-56.0829
 30
0.000000
  70
    32
  0
VERTEX
  8
0
  5
3E4
 10
8.59656
 20
-56.0778
 30
0.000000
  70
    32
  0
VERTEX
  8
0
  5
3E5
 10
8.60022
 20
-56.0727
 30
0.000000
  70
    32
  0
VERTEX
  8
0
  5
3E6
 10
8.60382
 20
-56.0675
 30
0.000000
  70
    32
  0
VERTEX
  8
0
  5
3E7
 10
8.60735
 20
-56.0623
 30
0.000000
  70
    32
  0
VERTEX
  8
0
  5
3E8
 10
8.61081
 20
-56.0571
 30
0.000000
  70
    32
  0
VERTEX
  8
0
  5
3E9
 10
8.61421
 20
-56.0518
 30
0.000000
  70
    32
  0
VERTEX
  8
0
  5
3EA
 10
8.61753
 20
-56.0464
 30
0.000000
  70
    32
  0
VERTEX
  8
0
  5
3EB
 10
8.62077
 20
-56.0411
 30
0.000000
  70
    32
  0
VERTEX
  8
0
  5
3EC
 10
8.62395
 20
-56.0357
 30
0.000000
  70
    32
  0
VERTEX
  8
0
  5
3ED
 10
8.62706
 20
-56.0303
 30
0.000000
  70
    32
  0
VERTEX
  8
0
  5
3EE
 10
8.63009
 20
-56.0248
 30
0.000000
  70
    32
  0
VERTEX
  8
0
  5
3EF
 10
8.63305
 20
-56.0193
 30
0.000000
  70
    32
  0
VERTEX
  8
0
  5
3F0
 10
8.63593
 20
-56.0138
 30
0.000000
  70
    32
  0
VERTEX
  8
0
  5
3F1
 10
8.63875
 20
-56.0082
 30
0.000000
  70
    32
  0
VERTEX
  8
0
  5
3F2
 10
8.64148
 20
-56.0026
 30
0.000000
  70
    32
  0
VERTEX
  8
0
  5
3F3
 10
8.64415
 20
-55.9970
 30
0.000000
  70
    32
  0
VERTEX
  8
0
  5
3F4
 10
8.64674
 20
-55.9913
 30
0.000000
  70
    32
  0
VERTEX
  8
0
  5
3F5
 10
8.64925
 20
-55.9857
 30
0.000000
  70
    32
  0
VERTEX
  8
0
  5
3F6
 10
8.65168
 20
-55.9799
 30
0.000000
  70
    32
  0
VERTEX
  8
0
  5
3F7
 10
8.65404
 20
-55.9742
 30
0.000000
  70
    32
  0
VERTEX
  8
0
  5
3F8
 10
8.65633
 20
-55.9684
 30
0.000000
  70
    32
  0
VERTEX
  8
0
  5
3F9
 10
8.65853
 20
-55.9627
 30
0.000000
  70
    32
  0
VERTEX
  8
0
  5
3FA
 10
8.66066
 20
-55.9568
 30
0.000000
  70
    32
  0
VERTEX
  8
0
  5
3FB
 10
8.66271
 20
-55.9510
 30
0.000000
  70
    32
  0
VERTEX
  8
0
  5
3FC
 10
8.66469
 20
-55.9451
 30
0.000000
  70
    32
  0
VERTEX
  8
0
  5
3FD
 10
8.66658
 20
-55.9393
 30
0.000000
  70
    32
  0
VERTEX
  8
0
  5
3FE
 10
8.66840
 20
-55.9334
 30
0.000000
  70
    32
  0
VERTEX
  8
0
  5
3FF
 10
8.67014
 20
-55.9274
 30
0.000000
  70
    32
  0
VERTEX
  8
0
  5
400
 10
8.67180
 20
-55.9215
 30
0.000000
  70
    32
  0
VERTEX
  8
0
  5
401
 10
8.67338
 20
-55.9155
 30
0.000000
  70
    32
  0
VERTEX
  8
0
  5
402
 10
8.67488
 20
-55.9096
 30
0.000000
  70
    32
  0
VERTEX
  8
0
  5
403
 10
8.67630
 20
-55.9036
 30
0.000000
  70
    32
  0
VERTEX
  8
0
  5
404
 10
8.67764
 20
-55.8975
 30
0.000000
  70
    32
  0
VERTEX
  8
0
  5
405
 10
8.67890
 20
-55.8915
 30
0.000000
  70
    32
  0
VERTEX
  8
0
  5
406
 10
8.68007
 20
-55.8855
 30
0.000000
  70
    32
  0
VERTEX
  8
0
  5
407
 10
8.68117
 20
-55.8794
 30
0.000000
  70
    32
  0
VERTEX
  8
0
  5
408
 10
8.68219
 20
-55.8734
 30
0.000000
  70
    32
  0
VERTEX
  8
0
  5
409
 10
8.68313
 20
-55.8673
 30
0.000000
  70
    32
  0
VERTEX
  8
0
  5
40A
 10
8.68399
 20
-55.8612
 30
0.000000
  70
    32
  0
VERTEX
  8
0
  5
40B
 10
8.68476
 20
-55.8551
 30
0.000000
  70
    32
  0
VERTEX
  8
0
  5
40C
 10
8.68545
 20
-55.8490
 30
0.000000
  70
    32
  0
VERTEX
  8
0
  5
40D
 10
8.68607
 20
-55.8429
 30
0.000000
  70
    32
  0
VERTEX
  8
0
  5
40E
 10
8.68660
 20
-55.8368
 30
0.000000
  70
    32
  0
VERTEX
  8
0
  5
40F
 10
8.68705
 20
-55.8307
 30
0.000000
  70
    32
  0
VERTEX
  8
0
  5
410
 10
8.68741
 20
-55.8245
 30
0.000000
  70
    32
  0
VERTEX
  8
0
  5
411
 10
8.68770
 20
-55.8184
 30
0.000000
  70
    32
  0
VERTEX
  8
0
  5
412
 10
8.68791
 20
-55.8123
 30
0.000000
  70
    32
  0
VERTEX
  8
0
  5
413
 10
8.68803
 20
-55.8061
 30
0.000000
  70
    32
  0
VERTEX
  8
0
  5
414
 10
8.68807
 20
-55.8000
 30
0.000000
  70
    32
  0
SEQEND
  8
0
  5
415
  0
ENDSEC
  0
EOF
