<?xml version="1.0" encoding="UTF-8" standalone="no"?>
<!-- Created with Inkscape (http://www.inkscape.org/) -->

<svg
   xmlns:dc="http://purl.org/dc/elements/1.1/"
   xmlns:cc="http://creativecommons.org/ns#"
   xmlns:rdf="http://www.w3.org/1999/02/22-rdf-syntax-ns#"
   xmlns:svg="http://www.w3.org/2000/svg"
   xmlns="http://www.w3.org/2000/svg"
   xmlns:sodipodi="http://sodipodi.sourceforge.net/DTD/sodipodi-0.dtd"
   xmlns:inkscape="http://www.inkscape.org/namespaces/inkscape"
   id="svg4800"
   version="1.1"
   inkscape:version="0.48.4 r9939"
   width="990"
   height="765"
   xml:space="preserve"
   sodipodi:docname="layout-Model.pdf"><metadata
     id="metadata4806"><rdf:RDF><cc:Work
         rdf:about=""><dc:format>image/svg+xml</dc:format><dc:type
           rdf:resource="http://purl.org/dc/dcmitype/StillImage" /><dc:title></dc:title></cc:Work></rdf:RDF></metadata><defs
     id="defs4804"><clipPath
       clipPathUnits="userSpaceOnUse"
       id="clipPath4816"><path
         d="m 1114,0 2599,0 0,5759 -2599,0 0,-5759"
         id="path4818" /></clipPath></defs><sodipodi:namedview
     pagecolor="#ffffff"
     bordercolor="#666666"
     borderopacity="1"
     objecttolerance="10"
     gridtolerance="10"
     guidetolerance="10"
     inkscape:pageopacity="0"
     inkscape:pageshadow="2"
     inkscape:window-width="1366"
     inkscape:window-height="706"
     id="namedview4802"
     showgrid="false"
     inkscape:zoom="0.61699346"
     inkscape:cx="546.59217"
     inkscape:cy="384.61896"
     inkscape:window-x="-8"
     inkscape:window-y="-8"
     inkscape:window-maximized="1"
     inkscape:current-layer="g4808" /><g
     id="g4808"
     inkscape:groupmode="layer"
     inkscape:label="layout-Model"
     transform="matrix(0,-1.25,-1.25,0,990,765)"><rect
       style="fill:#ffffff;fill-opacity:1;stroke:none"
       id="rect5944"
       width="1024"
       height="576"
       x="-883.93286"
       y="-620.47491"
       transform="matrix(0,-1,-1,0,0,0)"
       inkscape:export-filename="C:\Users\employee\Desktop\SCARA\layout.png"
       inkscape:export-xdpi="90"
       inkscape:export-ydpi="90" /><g
       id="g5946"
       transform="matrix(1.3859213,0,0,1.3859213,-91.007216,-176.25443)"><path
         d="m 386.56,111.68 0,-61.68 13.2,0 0,61.68 -13.2,0"
         style="fill:#00ffff;stroke:#000000;stroke-width:1.60000002;stroke-linecap:round;stroke-linejoin:round;stroke-miterlimit:10;stroke-opacity:1;stroke-dasharray:none"
         id="path4994"
         inkscape:connector-curvature="0" /><path
         d="m 329.2,111.68 0,-61.68 13.2,0 0,61.68 -13.2,0"
         style="fill:#00ffff;stroke:#000000;stroke-width:1.60000002;stroke-linecap:round;stroke-linejoin:round;stroke-miterlimit:10;stroke-opacity:1;stroke-dasharray:none"
         id="path4988"
         inkscape:connector-curvature="0" /><path
         d="m 343.96,177.8 0,-61.68 13.2,0 0,61.68 -13.2,0"
         style="fill:#00ff00;stroke:#000000;stroke-width:1.60000002;stroke-linecap:round;stroke-linejoin:round;stroke-miterlimit:10;stroke-opacity:1;stroke-dasharray:none"
         id="path4956"
         inkscape:connector-curvature="0" /><path
         d="m 401.2,177.8 0,-61.68 13.32,0 0,61.68 -13.32,0"
         style="fill:#00ff00;stroke:#000000;stroke-width:1.60000002;stroke-linecap:round;stroke-linejoin:round;stroke-miterlimit:10;stroke-opacity:1;stroke-dasharray:none"
         id="path4962"
         inkscape:connector-curvature="0" /><path
         d="m 357.16,177.68 0,-61.44 44.04,0 0,61.44 -44.04,0"
         style="fill:#009600;fill-opacity:1;stroke:#000000;stroke-width:1.60000002;stroke-linecap:round;stroke-linejoin:round;stroke-miterlimit:10;stroke-opacity:1;stroke-dasharray:none"
         id="path4964"
         inkscape:connector-curvature="0" /><path
         d="m 270.4,177.8 0,-61.68 -13.2,0 0,61.68 13.2,0"
         style="fill:#ff0000;stroke:#000000;stroke-width:1.60000002;stroke-linecap:round;stroke-linejoin:round;stroke-miterlimit:10;stroke-opacity:1;stroke-dasharray:none"
         id="path4936"
         inkscape:connector-curvature="0" /><rect
         transform="matrix(0,-0.8,-0.8,0,612,792)"
         y="382.79156"
         x="801.66357"
         height="40.111832"
         width="9.5981884"
         id="rect5940"
         style="fill:#ff0000;fill-opacity:1;stroke:#000000;stroke-width:2;stroke-linecap:round;stroke-linejoin:round;stroke-miterlimit:10;stroke-opacity:1;stroke-dasharray:none;stroke-dashoffset:0" /><path
         d="m 326.32,645.8 87.36,0 0,-3 -87.36,0 z"
         style="fill:#000096;fill-opacity:1;stroke:#000000;stroke-width:1.60000002;stroke-linecap:round;stroke-linejoin:round;stroke-miterlimit:10;stroke-opacity:1;stroke-dasharray:none"
         id="path5034"
         inkscape:connector-curvature="0" /><path
         d="m 271.96,111.68 0,-61.68 13.2,0 0,61.68 -13.2,0"
         style="fill:#0000ff;stroke:#000000;stroke-width:1.60000002;stroke-linecap:round;stroke-linejoin:round;stroke-miterlimit:10;stroke-opacity:1;stroke-dasharray:none"
         id="path4980"
         inkscape:connector-curvature="0" /><path
         d="m 214.6,111.68 0,-61.68 13.2,0 0,61.68 -13.2,0"
         style="fill:#0000ff;stroke:#000000;stroke-width:1.60000002;stroke-linecap:round;stroke-linejoin:round;stroke-miterlimit:10;stroke-opacity:1;stroke-dasharray:none"
         id="path4974"
         inkscape:connector-curvature="0" /><path
         d="m 290.08,165.92 0,220.44 -14.64,0 0,-220.44 14.64,0"
         style="fill:#ff0000;fill-opacity:1;stroke:#000000;stroke-width:1.60000002;stroke-linecap:round;stroke-linejoin:round;stroke-miterlimit:10;stroke-opacity:1;stroke-dasharray:none"
         id="path4820"
         inkscape:connector-curvature="0" /><path
         d="m 290.08,287.24 2.4,0 0,-22.08 -2.4,0 0,22.08"
         style="fill:#b3b3b3;stroke:#000000;stroke-width:1.60000002;stroke-linecap:round;stroke-linejoin:round;stroke-miterlimit:10;stroke-opacity:1;stroke-dasharray:none"
         id="path4822"
         inkscape:connector-curvature="0" /><path
         d="m 292.48,227.72 14.64,0 0,-61.8 14.76,0 0,220.44 -14.76,0 0,-61.68 -14.64,0 0,-96.96"
         style="fill:#0000ff;stroke:#000000;stroke-width:1.60000002;stroke-linecap:round;stroke-linejoin:round;stroke-miterlimit:10;stroke-opacity:1;stroke-dasharray:none"
         id="path4824"
         inkscape:connector-curvature="0" /><path
         d="m 321.88,287.24 2.4,0 0,-22.08 -2.4,0 0,22.08"
         style="fill:#b3b3b3;stroke:#000000;stroke-width:1.60000002;stroke-linecap:round;stroke-linejoin:round;stroke-miterlimit:10;stroke-opacity:1;stroke-dasharray:none"
         id="path4826"
         inkscape:connector-curvature="0" /><path
         d="m 353.68,227.72 -14.76,0 0,-61.8 -14.64,0 0,220.44 14.64,0 0,-61.68 14.76,0 0,-96.96"
         style="fill:#00ff00;stroke:#000000;stroke-width:1.60000002;stroke-linecap:round;stroke-linejoin:round;stroke-miterlimit:10;stroke-opacity:1;stroke-dasharray:none"
         id="path4828"
         inkscape:connector-curvature="0" /><path
         d="m 353.68,507.68 2.28,0 0,-22.08 -2.28,0 0,22.08"
         style="fill:#b3b3b3;stroke:#000000;stroke-width:1.60000002;stroke-linecap:round;stroke-linejoin:round;stroke-miterlimit:10;stroke-opacity:1;stroke-dasharray:none"
         id="path4830"
         inkscape:connector-curvature="0" /><path
         sodipodi:nodetypes="cccccccccccccccccccccccccc"
         d="m 275.44,386.42 c 0,8.11858 6.58142,14.7 14.7,14.7 l -0.06,0 51.24,0 0.06,0 c 8.11858,0 14.7,-6.58142 14.7,-14.7 l -0.12,-0.06 0,-130.8 0,0 22.92,0 0,261.6 -22.92,0 0,-64.68 0.12,0.06 c 0,-8.11805 -6.58055,-14.699 -14.6986,-14.7 l -0.0614,0 -51.24,0 0.06,0 c -8.11858,0 -14.7,6.58142 -14.7,14.7 l 0,-0.06 0,64.68 -22.92,0 0,-261.6 22.92,0 0,130.8 z"
         style="fill:#ff0000;stroke:#000000;stroke-width:1.60000002;stroke-linecap:round;stroke-linejoin:round;stroke-miterlimit:10;stroke-opacity:1;stroke-dasharray:none"
         id="path4842"
         inkscape:connector-curvature="0" /><path
         d="m 338.92,545.12 0,-96.96 14.76,0 0,96.96 -14.76,0"
         style="fill:#00ff00;stroke:#000000;stroke-width:1.60000002;stroke-linecap:round;stroke-linejoin:round;stroke-miterlimit:10;stroke-opacity:1;stroke-dasharray:none"
         id="path4850"
         inkscape:connector-curvature="0" /><path
         d="m 353.68,287.24 2.28,0 0,-22.08 -2.28,0 0,22.08"
         style="fill:#b3b3b3;stroke:#000000;stroke-width:1.60000002;stroke-linecap:round;stroke-linejoin:round;stroke-miterlimit:10;stroke-opacity:1;stroke-dasharray:none"
         id="path4852"
         inkscape:connector-curvature="0" /><path
         d="m 275.44,507.68 2.4,0 0,-22.08 -2.4,0 0,22.08"
         style="fill:#b3b3b3;stroke:#000000;stroke-width:1.60000002;stroke-linecap:round;stroke-linejoin:round;stroke-miterlimit:10;stroke-opacity:1;stroke-dasharray:none"
         id="path4854"
         inkscape:connector-curvature="0" /><path
         d="m 290.08,507.68 2.4,0 0,-22.08 -2.4,0 0,22.08"
         style="fill:#b3b3b3;stroke:#000000;stroke-width:1.60000002;stroke-linecap:round;stroke-linejoin:round;stroke-miterlimit:10;stroke-opacity:1;stroke-dasharray:none"
         id="path4856"
         inkscape:connector-curvature="0" /><path
         d="m 321.88,507.68 2.4,0 0,-22.08 -2.4,0 0,22.08"
         style="fill:#b3b3b3;stroke:#000000;stroke-width:1.60000002;stroke-linecap:round;stroke-linejoin:round;stroke-miterlimit:10;stroke-opacity:1;stroke-dasharray:none"
         id="path4858"
         inkscape:connector-curvature="0" /><path
         d="m 292.48,545.12 14.64,0 0,-17.64 14.76,0 0,-61.68 -14.76,0 0,-17.64 -14.64,0 0,96.96"
         style="fill:#0000ff;stroke:#000000;stroke-width:1.60000002;stroke-linecap:round;stroke-linejoin:round;stroke-miterlimit:10;stroke-opacity:1;stroke-dasharray:none"
         id="path4860"
         inkscape:connector-curvature="0" /><path
         d="m 208,666.32 0,-8.76 205.68,0 0,8.76 -205.68,0"
         style="fill:#0000ff;fill-opacity:1;stroke:#000000;stroke-width:1.60000002;stroke-linecap:round;stroke-linejoin:round;stroke-miterlimit:10;stroke-opacity:1;stroke-dasharray:none"
         id="path4862"
         inkscape:connector-curvature="0" /><path
         d="m 208,607.52 0,-8.76 205.68,0 0,8.76 -205.68,0"
         style="fill:#0000ff;fill-opacity:1;stroke:#000000;stroke-width:1.60000002;stroke-linecap:round;stroke-linejoin:round;stroke-miterlimit:10;stroke-opacity:1;stroke-dasharray:none"
         id="path4864"
         inkscape:connector-curvature="0" /><path
         d="m 292.54,548.12 c -1.29234,0 -2.34,-1.04766 -2.34,-2.34"
         style="fill:none;stroke:#000000;stroke-width:1.60000002;stroke-linecap:round;stroke-linejoin:round;stroke-miterlimit:10;stroke-opacity:1;stroke-dasharray:none"
         id="path4872"
         inkscape:connector-curvature="0" /><path
         sodipodi:nodetypes="cccccccccccccccccccccc"
         d="m 290.08,545.72 0,-69.72 -12.24,0 0,69.72 0,0.06 c 0,4.46356 2.02805,8.68529 5.51236,11.47506 l 0.0164,-0.0292 c 3.48366,2.78977 5.51126,7.01115 5.51126,11.47418 l -0.12,-0.06 0,113.88 51.48,0 0,-137.4 0,0 -1.32,0 0,-69.12 -14.64,0 0,69.72 0,0.06 c 0,1.29234 -1.04766,2.34 -2.34,2.34 L 321.88,548 l -29.4,0 c -1.04058,0.002 -1.99916,-0.256 -2.4,-2.28 z"
         style="fill:#00ff00;stroke:#000000;stroke-width:1.60000002;stroke-linecap:round;stroke-linejoin:round;stroke-miterlimit:10;stroke-opacity:1;stroke-dasharray:none"
         id="path4876"
         inkscape:connector-curvature="0" /><path
         sodipodi:nodetypes="ccccccccccccccc"
         d="m 413.68,582.56 0,101.4 -205.68,0 0,-101.4 -14.76,0 0,101.4 0.12,0.06 c 0,8.11858 6.58141,14.7 14.7,14.7 l -0.06,0 205.68,0 0.06,0 c 8.11858,0 14.7,-6.58142 14.7,-14.7 l 0,-0.06 0,-101.4 -14.76,0"
         style="fill:#0000ff;stroke:#000000;stroke-width:1.60000002;stroke-linecap:round;stroke-linejoin:round;stroke-miterlimit:10;stroke-opacity:1;stroke-dasharray:none"
         id="path4884"
         inkscape:connector-curvature="0" /><path
         d="m 159.16,721.52 0,-0.84 -2.16,0 0,1.68 -4.44,0 0,-2.88 -2.88,-1.68"
         style="fill:none;stroke:#000000;stroke-width:1.60000002;stroke-linecap:round;stroke-linejoin:round;stroke-miterlimit:10;stroke-opacity:1;stroke-dasharray:none"
         id="path4892"
         inkscape:connector-curvature="0" /><path
         d="m 158.44,721.52 0,18.72"
         style="fill:none;stroke:#000000;stroke-width:1.60000002;stroke-linecap:round;stroke-linejoin:round;stroke-miterlimit:10;stroke-opacity:1;stroke-dasharray:none"
         id="path4894"
         inkscape:connector-curvature="0" /><path
         sodipodi:nodetypes="ccccccccccccccccccccccccccccccccccccccccccccccccccccccccccccccccccccccccccccccccccccccccccccccccccccccccccccccccccccccccccccccccccc"
         d="m 158.44,739.52 0,-18 0.72,0 0,-0.84 -2.16,0 0,1.68 -4.44,0 0,-2.88 -2.88,-1.68 0,-1.44 2.88,-1.68 0,-2.88 4.44,0 0,1.56 2.16,0 0,-0.72 -0.72,0 0,0 0,-6.84 0,0.06 c 0,-0.8284 0.67157,-1.5 1.5,-1.5 l -0.06,-0.12 14.04,0 0.0601,0.12 c 0.82838,6e-5 1.49986,0.6716 1.49986,1.5 l -0.12,-0.06 0,6.84 0,1.44 3.12,0 0,-13.2 1.44,0 0,11.76 3.12,0 0,-11.76 1.44,0 0,11.76 3.12,0 0,-11.76 1.44,0 0,11.76 3.12,0 0,-11.76 1.56,0 0,11.76 3.12,0 0,-11.76 1.44,0 0,11.76 3.12,0 0,-11.76 1.44,0 0,11.76 3.12,0 0,-11.76 1.56,0 0,11.76 3.12,0 0,-11.76 1.44,0 0,11.76 3.12,0 0,-11.76 1.44,0 0,11.76 3.12,0 0,-7.32 1.44,0 0,7.32 1.32,0 0,-7.32 4.44,0 0,2.88 8.76,0 0,-2.88 5.52,0 0,23.52 -5.52,0 0,-3 -8.76,0 0,3 -4.44,0 0,-7.32 -1.32,0 0,7.32 -1.44,0 0,-7.32 -3.12,0 0,11.76 -1.44,0 0,-11.76 -3.12,0 0,11.76 -1.44,0 0,-11.76 -3.12,0 0,11.76 -1.56,0 0,-11.76 -3.12,0 0,11.76 -1.44,0 0,-11.76 -3.12,0 0,11.76 -1.44,0 0,-11.76 -3.12,0 0,11.76 -1.56,0 0,-11.76 -3.12,0 0,11.76 -1.44,0 0,-11.76 -3.12,0 0,11.76 -1.44,0 0,-11.76 -3.12,0 0,11.76 -1.44,0 0,-13.2 -3.12,0 0,1.44 0,18 0.12004,0.06 c 0,0.8284 -0.67157,1.5 -1.5,1.5 l -0.06,-0.12 -14.04,0 0.06,0.12 c -0.82843,0 -1.5,-0.6716 -1.5,-1.5"
         style="fill:#00ffff;stroke:#000000;stroke-width:1.60000002;stroke-linecap:round;stroke-linejoin:round;stroke-miterlimit:10;stroke-opacity:1;stroke-dasharray:none"
         id="path4912"
         inkscape:connector-curvature="0" /><path
         d="m 240.88,735.44 -18.36,0 0,-36.72 18.36,0 0,36.72"
         style="fill:#009696;fill-opacity:1;stroke:#000000;stroke-width:1.60000002;stroke-linecap:round;stroke-linejoin:round;stroke-miterlimit:10;stroke-opacity:1;stroke-dasharray:none"
         id="path4914"
         inkscape:connector-curvature="0" /><path
         d="m 341.92,227.72 0,317.4 8.76,0 0,-317.4 -8.76,0"
         style="fill:#009600;fill-opacity:1;stroke:#000000;stroke-width:1.60000002;stroke-linecap:round;stroke-linejoin:round;stroke-miterlimit:10;stroke-opacity:1;stroke-dasharray:none"
         id="path4918"
         inkscape:connector-curvature="0" /><path
         d="m 270.4,170.48 -13.2,0"
         style="fill:#ff0000;stroke:#000000;stroke-width:1.60000002;stroke-linecap:round;stroke-linejoin:round;stroke-miterlimit:10;stroke-opacity:1;stroke-dasharray:none"
         id="path4926"
         inkscape:connector-curvature="0" /><path
         d="m 257.2,123.44 13.2,0"
         style="fill:#ff0000;stroke:#000000;stroke-width:1.60000002;stroke-linecap:round;stroke-linejoin:round;stroke-miterlimit:10;stroke-opacity:1;stroke-dasharray:none"
         id="path4928"
         inkscape:connector-curvature="0" /><path
         d="m 273.4,163.16 0,-32.4 -3,0 0,32.4 3,0"
         style="fill:#ff0000;stroke:#000000;stroke-width:1.60000002;stroke-linecap:round;stroke-linejoin:round;stroke-miterlimit:10;stroke-opacity:1;stroke-dasharray:none"
         id="path4934"
         inkscape:connector-curvature="0" /><path
         d="m 213.16,177.8 0,-61.68 -13.32,0 0,61.68 13.32,0"
         style="fill:#ff0000;stroke:#000000;stroke-width:1.60000002;stroke-linecap:round;stroke-linejoin:round;stroke-miterlimit:10;stroke-opacity:1;stroke-dasharray:none"
         id="path4942"
         inkscape:connector-curvature="0" /><path
         d="m 213.16,170.48 -13.32,0"
         style="fill:#ff0000;stroke:#000000;stroke-width:1.60000002;stroke-linecap:round;stroke-linejoin:round;stroke-miterlimit:10;stroke-opacity:1;stroke-dasharray:none"
         id="path4938"
         inkscape:connector-curvature="0" /><path
         d="m 414.52,123.44 -13.32,0"
         style="fill:#00ff00;stroke:#000000;stroke-width:1.60000002;stroke-linecap:round;stroke-linejoin:round;stroke-miterlimit:10;stroke-opacity:1;stroke-dasharray:none"
         id="path4940"
         inkscape:connector-curvature="0" /><path
         d="m 257.2,177.68 0,-61.44 -44.04,0 0,61.44 44.04,0"
         style="fill:#960000;fill-opacity:1;stroke:#000000;stroke-width:1.60000002;stroke-linecap:round;stroke-linejoin:round;stroke-miterlimit:10;stroke-opacity:1;stroke-dasharray:none"
         id="path4944"
         inkscape:connector-curvature="0" /><path
         d="m 343.96,170.48 13.2,0"
         style="fill:#00ff00;stroke:#000000;stroke-width:1.60000002;stroke-linecap:round;stroke-linejoin:round;stroke-miterlimit:10;stroke-opacity:1;stroke-dasharray:none"
         id="path4946"
         inkscape:connector-curvature="0" /><path
         d="m 357.16,123.44 -13.2,0"
         style="fill:#00ff00;stroke:#000000;stroke-width:1.60000002;stroke-linecap:round;stroke-linejoin:round;stroke-miterlimit:10;stroke-opacity:1;stroke-dasharray:none"
         id="path4948"
         inkscape:connector-curvature="0" /><path
         d="m 276.16,137.36 -0.36,0.36 0,18.48 0.36,0.36 0.72,0 0.36,-0.36 0,-3.12 11.04,0 0,3.12 0.36,0.36 9.6,0 0.36,-0.36 0,-18.48 -0.36,-0.36 -9.6,0 -0.36,0.36 0,3.12 -11.04,0 0,-3.12 -0.36,-0.36 -0.72,0"
         style="fill:#ff0000;stroke:#000000;stroke-width:1.60000002;stroke-linecap:round;stroke-linejoin:round;stroke-miterlimit:10;stroke-opacity:1;stroke-dasharray:none"
         id="path4952"
         inkscape:connector-curvature="0" /><path
         d="m 340.96,163.16 0,-32.4 3,0 0,32.4 -3,0"
         style="fill:#00ff00;stroke:#000000;stroke-width:1.60000002;stroke-linecap:round;stroke-linejoin:round;stroke-miterlimit:10;stroke-opacity:1;stroke-dasharray:none"
         id="path4954"
         inkscape:connector-curvature="0" /><path
         d="m 401.2,170.48 13.32,0"
         style="fill:#00ff00;stroke:#000000;stroke-width:1.60000002;stroke-linecap:round;stroke-linejoin:round;stroke-miterlimit:10;stroke-opacity:1;stroke-dasharray:none"
         id="path4958"
         inkscape:connector-curvature="0" /><path
         d="m 414.52,123.44 -13.32,0"
         style="fill:#00ff00;stroke:#000000;stroke-width:1.60000002;stroke-linecap:round;stroke-linejoin:round;stroke-miterlimit:10;stroke-opacity:1;stroke-dasharray:none"
         id="path4960"
         inkscape:connector-curvature="0" /><path
         d="m 285.16,104.36 -13.2,0"
         style="fill:#0000ff;stroke:#000000;stroke-width:1.60000002;stroke-linecap:round;stroke-linejoin:round;stroke-miterlimit:10;stroke-opacity:1;stroke-dasharray:none"
         id="path4966"
         inkscape:connector-curvature="0" /><path
         d="m 227.8,57.32 -13.2,0"
         style="fill:#0000ff;stroke:#000000;stroke-width:1.60000002;stroke-linecap:round;stroke-linejoin:round;stroke-miterlimit:10;stroke-opacity:1;stroke-dasharray:none"
         id="path4968"
         inkscape:connector-curvature="0" /><path
         d="m 435.04,77.84 -22.08,0 0,-0.72 -10.2,0 0,7.32 0,-7.32 10.2,0 0,0.72 22.08,0 0,6.6 -32.28,0 32.28,0 -32.28,0 32.28,0 0,-6.6"
         style="fill:none;stroke:#000000;stroke-width:1.60000002;stroke-linecap:round;stroke-linejoin:round;stroke-miterlimit:10;stroke-opacity:1;stroke-dasharray:none"
         id="path4970"
         inkscape:connector-curvature="0" /><path
         d="m 402.76,97.04 0,-32.4 -3,0 0,32.4 3,0"
         style="fill:none;stroke:#000000;stroke-width:1.60000002;stroke-linecap:round;stroke-linejoin:round;stroke-miterlimit:10;stroke-opacity:1;stroke-dasharray:none"
         id="path4972"
         inkscape:connector-curvature="0" /><path
         d="m 227.8,104.36 -13.2,0"
         style="fill:#0000ff;stroke:#000000;stroke-width:1.60000002;stroke-linecap:round;stroke-linejoin:round;stroke-miterlimit:10;stroke-opacity:1;stroke-dasharray:none"
         id="path4976"
         inkscape:connector-curvature="0" /><path
         d="m 285.16,57.32 -13.2,0"
         style="fill:#0000ff;stroke:#000000;stroke-width:1.60000002;stroke-linecap:round;stroke-linejoin:round;stroke-miterlimit:10;stroke-opacity:1;stroke-dasharray:none"
         id="path4978"
         inkscape:connector-curvature="0" /><path
         d="m 227.8,111.56 0,-61.44 44.16,0 0,61.44 -44.16,0"
         style="fill:#000096;fill-opacity:1;stroke:#000000;stroke-width:1.60000002;stroke-linecap:round;stroke-linejoin:round;stroke-miterlimit:10;stroke-opacity:1;stroke-dasharray:none"
         id="path4982"
         inkscape:connector-curvature="0" /><path
         d="m 329.2,104.36 13.2,0"
         style="fill:#00ffff;stroke:#000000;stroke-width:1.60000002;stroke-linecap:round;stroke-linejoin:round;stroke-miterlimit:10;stroke-opacity:1;stroke-dasharray:none"
         id="path4984"
         inkscape:connector-curvature="0" /><path
         d="m 342.4,57.32 -13.2,0"
         style="fill:#00ffff;stroke:#000000;stroke-width:1.60000002;stroke-linecap:round;stroke-linejoin:round;stroke-miterlimit:10;stroke-opacity:1;stroke-dasharray:none"
         id="path4986"
         inkscape:connector-curvature="0" /><path
         d="m 386.56,104.36 13.2,0"
         style="fill:#00ffff;stroke:#000000;stroke-width:1.60000002;stroke-linecap:round;stroke-linejoin:round;stroke-miterlimit:10;stroke-opacity:1;stroke-dasharray:none"
         id="path4990"
         inkscape:connector-curvature="0" /><path
         d="m 399.76,57.32 -13.2,0"
         style="fill:#00ffff;stroke:#000000;stroke-width:1.60000002;stroke-linecap:round;stroke-linejoin:round;stroke-miterlimit:10;stroke-opacity:1;stroke-dasharray:none"
         id="path4992"
         inkscape:connector-curvature="0" /><path
         d="m 342.4,111.56 0,-61.44 44.16,0 0,61.44 -44.16,0"
         style="fill:#009696;fill-opacity:1;stroke:#000000;stroke-width:1.60000002;stroke-linecap:round;stroke-linejoin:round;stroke-miterlimit:10;stroke-opacity:1;stroke-dasharray:none"
         id="path4996"
         inkscape:connector-curvature="0" /><path
         d="m 399.76,50 0,61.56 35.28,0 0,-61.56 -35.28,0"
         style="fill:#00ffff;stroke:#000000;stroke-width:1.60000002;stroke-linecap:round;stroke-linejoin:round;stroke-miterlimit:10;stroke-opacity:1;stroke-dasharray:none"
         id="path4998"
         inkscape:connector-curvature="0" /><path
         sodipodi:nodetypes="cccccccccccccccccccccccccccccccccccccccc"
         d="M 442.17179,574.95084 C 454.58878,589.03414 461.44,607.16445 461.44,625.94 l 0,-0.06 0,17.64 0,0.06 c 0,42.58114 -34.51884,77.1 -77.1,77.1 l -0.06,0 -143.04,0 0,-7.32 0,0 143.04,0 0.06,0 c 38.53843,0 69.78,-31.24154 69.78,-69.78 l 0,-0.06 0,-17.64 0,0.06 c 0,-16.99295 -6.20077,-33.40195 -17.43884,-46.14815 l 0.0388,-0.11185 -3.96,-4.8 -3.48,-5.04 -3.12,-5.4 -2.64,-5.64 -2.16,-5.76 -1.68,-5.88 -1.32,-6.12 -0.72,-6.12 -0.24,-6.24 0,-417.12 7.32,0 0,417.12 0.24,5.64 0.72,5.52 1.08,5.52 1.56,5.4 2.04,5.28 2.4,5.04 2.76,4.8 3.12,4.68 3.6,4.32 z"
         style="fill:#00ffff;stroke:#000000;stroke-width:1.60000002;stroke-linecap:round;stroke-linejoin:round;stroke-miterlimit:10;stroke-opacity:1;stroke-dasharray:none"
         id="path5006"
         inkscape:connector-curvature="0" /><path
         d="m 378.88,287.24 2.4,0 0,-22.08 -2.4,0 0,22.08"
         style="fill:#b3b3b3;stroke:#000000;stroke-width:1.60000002;stroke-linecap:round;stroke-linejoin:round;stroke-miterlimit:10;stroke-opacity:1;stroke-dasharray:none"
         id="path5018"
         inkscape:connector-curvature="0" /><path
         d="m 310.12,496.64 0,-30.84 8.76,0 0,30.84 L 316,632.6"
         style="fill:none;stroke:#000000;stroke-width:1.60000002;stroke-linecap:round;stroke-linejoin:round;stroke-miterlimit:10;stroke-opacity:1;stroke-dasharray:none"
         id="path5020"
         inkscape:connector-curvature="0" /><path
         d="M 313,632.12 310.12,496.64"
         style="fill:none;stroke:#000000;stroke-width:1.60000002;stroke-linecap:round;stroke-linejoin:round;stroke-miterlimit:10;stroke-opacity:1;stroke-dasharray:none"
         id="path5028"
         inkscape:connector-curvature="0" /><path
         sodipodi:nodetypes="cccccccccscccccc"
         d="m 318.88,496.64 -2.88,135.48 0.12,0.54 c 0,7.32328 -5.93669,13.26 -13.26,13.26 l -0.06,-0.12 -94.8,0 0,-3 94.8,0 0.06,0.12 c 2.79791,0 5.47445,-1.14264 7.40971,-3.16325 1.93529,-2.02065 2.96141,-4.74398 2.84074,-7.53925 L 313,632.6 l -2.88,-135.96 0,-30.84 8.76,0 0,30.84"
         style="fill:#000096;fill-opacity:1;stroke:#000000;stroke-width:1.60000002;stroke-linecap:round;stroke-linejoin:round;stroke-miterlimit:10;stroke-opacity:1;stroke-dasharray:none"
         id="path5038"
         inkscape:connector-curvature="0" /><path
         d="m 313.12,632.66 c 0,5.66642 -4.59354,10.26 -10.26,10.26 -5.66646,0 -10.26,-4.59358 -10.26,-10.26 0,-5.66642 4.59354,-10.26 10.26,-10.26 5.66646,0 10.26,4.59358 10.26,10.26"
         style="fill:#0000ff;fill-opacity:1;stroke:#000000;stroke-width:1.60000002;stroke-linecap:round;stroke-linejoin:round;stroke-miterlimit:10;stroke-opacity:1;stroke-dasharray:none"
         id="path5040"
         inkscape:connector-curvature="0" /><path
         d="m 288.04,97.04 0,-32.4 -2.88,0 0,32.4 2.88,0"
         style="fill:#0000ff;stroke:#000000;stroke-width:1.60000002;stroke-linecap:round;stroke-linejoin:round;stroke-miterlimit:10;stroke-opacity:1;stroke-dasharray:none"
         id="path5044"
         inkscape:connector-curvature="0" /><path
         d="m 321.16,71.24 0.36,0.36 0,18.36 -0.36,0.36 -0.72,0 -0.36,-0.36 0,-3 -11.04,0 0,3 -0.36,0.36 -9.96,0 0,-18.72 0.36,-0.36 9.6,0 0.36,0.36 0,3.12 11.04,0 0,-3.12 0.36,-0.36 0.72,0"
         style="fill:#0000ff;fill-opacity:1;stroke:#000000;stroke-width:1.60000002;stroke-linecap:round;stroke-linejoin:round;stroke-miterlimit:10;stroke-opacity:1;stroke-dasharray:none"
         id="path5046"
         inkscape:connector-curvature="0" /><path
         d="m 250.12,287.24 2.4,0 0,-22.08 -2.4,0 0,22.08"
         style="fill:#b3b3b3;stroke:#000000;stroke-width:1.60000002;stroke-linecap:round;stroke-linejoin:round;stroke-miterlimit:10;stroke-opacity:1;stroke-dasharray:none"
         id="path5048"
         inkscape:connector-curvature="0" /><path
         d="m 381.28,296.72 0,-61.68 5.64,-4.08 4.44,11.04 4.2,-7.2 3.48,3.36 4.44,-6.48 5.16,6.36 5.88,-3 0,61.68 -33.24,0"
         style="fill:#808080;fill-opacity:1;stroke:#000000;stroke-width:1.60000002;stroke-linecap:round;stroke-linejoin:round;stroke-miterlimit:10;stroke-opacity:1;stroke-dasharray:none"
         id="path5050"
         inkscape:connector-curvature="0" /><path
         d="m 216.88,296.72 0,-61.68 5.64,-4.08 4.44,11.04 4.32,-7.2 3.48,3.36 4.44,-6.48 5.16,6.36 5.76,-3 0,61.68 -33.24,0"
         style="fill:#808080;stroke:#000000;stroke-width:1.60000002;stroke-linecap:round;stroke-linejoin:round;stroke-miterlimit:10;stroke-opacity:1;stroke-dasharray:none"
         id="path5052"
         inkscape:connector-curvature="0" /><path
         d="m 252.58539,506.22933 c -4.88718,-5.41297 -4.88718,-13.64569 0,-19.05866"
         style="fill:#b3b3b3;stroke:#000000;stroke-width:1.60000002;stroke-linecap:round;stroke-linejoin:round;stroke-miterlimit:10;stroke-opacity:1;stroke-dasharray:none"
         id="path5054"
         inkscape:connector-curvature="0" /><path
         d="m 252.52,487.04 0,19.08"
         style="fill:#b3b3b3;stroke:#000000;stroke-width:1.60000002;stroke-linecap:round;stroke-linejoin:round;stroke-miterlimit:10;stroke-opacity:1;stroke-dasharray:none"
         id="path5056"
         inkscape:connector-curvature="0" /><path
         d="m 378.93552,487.17166 c 4.88631,5.41306 4.88592,13.64508 -10e-4,19.05767"
         style="fill:#b3b3b3;stroke:#000000;stroke-width:1.60000002;stroke-linecap:round;stroke-linejoin:round;stroke-miterlimit:10;stroke-opacity:1;stroke-dasharray:none"
         id="path5058"
         inkscape:connector-curvature="0" /><path
         d="m 378.88,487.04 0,19.08"
         style="fill:#b3b3b3;stroke:#000000;stroke-width:1.60000002;stroke-linecap:round;stroke-linejoin:round;stroke-miterlimit:10;stroke-opacity:1;stroke-dasharray:none"
         id="path5060"
         inkscape:connector-curvature="0" /><path
         d="m 278.32,140.84 0,245.52 8.88,0 0,-245.52 -8.88,0"
         style="fill:#960000;fill-opacity:1;stroke:#000000;stroke-width:1.60000002;stroke-linecap:round;stroke-linejoin:round;stroke-miterlimit:10;stroke-opacity:1;stroke-dasharray:none"
         id="path4924"
         inkscape:connector-curvature="0" /><path
         d="m 338.2,137.36 0.36,0.36 0,18.48 -0.36,0.36 -0.72,0 -0.36,-0.36 0,-3.12 -11.04,0 0,3.12 -0.36,0.36 -9.6,0 -0.36,-0.36 0,-18.48 0.36,-0.36 9.6,0 0.36,0.36 0,3.12 11.04,0 0,-3.12 0.36,-0.36 0.72,0"
         style="fill:#00ff00;fill-opacity:1;stroke:#000000;stroke-width:1.60000002;stroke-linecap:round;stroke-linejoin:round;stroke-miterlimit:10;stroke-opacity:1;stroke-dasharray:none"
         id="path4932"
         inkscape:connector-curvature="0" /><path
         d="m 310.12,74.72 0,311.64 8.76,0 0,-311.64 -8.76,0"
         style="fill:#000096;fill-opacity:1;stroke:#000000;stroke-width:1.60000002;stroke-linecap:round;stroke-linejoin:round;stroke-miterlimit:10;stroke-opacity:1;stroke-dasharray:none"
         id="path4920"
         inkscape:connector-curvature="0" /><path
         d="m 327.16,140.84 0,245.52 8.88,0 0,-245.52 -8.88,0"
         style="fill:#009600;fill-opacity:1;stroke:#000000;stroke-width:1.60000002;stroke-linecap:round;stroke-linejoin:round;stroke-miterlimit:10;stroke-opacity:1;stroke-dasharray:none"
         id="path4922"
         inkscape:connector-curvature="0" /><path
         d="m 295.48,227.72 0,317.4 8.76,0 0,-317.4 -8.76,0"
         style="fill:#000096;fill-opacity:1;stroke:#000000;stroke-width:1.60000002;stroke-linecap:round;stroke-linejoin:round;stroke-miterlimit:10;stroke-opacity:1;stroke-dasharray:none"
         id="path4916"
         inkscape:connector-curvature="0" /><path
         inkscape:connector-curvature="0"
         id="path5936"
         style="fill:#ff0000;stroke:#000000;stroke-width:1.60000002;stroke-linecap:round;stroke-linejoin:round;stroke-miterlimit:10;stroke-opacity:1;stroke-dasharray:none"
         d="m 199.94381,123.44 13.2,0" /><rect
         transform="matrix(0,-1,-1,0,0,0)"
         y="-298.66122"
         x="-84.656494"
         height="10.543681"
         width="7.4493399"
         id="rect5938"
         style="fill:#0000ff;fill-opacity:1;stroke:#000000;stroke-width:1.60000002;stroke-linecap:round;stroke-linejoin:round;stroke-miterlimit:10;stroke-opacity:1;stroke-dasharray:none;stroke-dashoffset:0" /><rect
         transform="matrix(0,-0.8,-0.8,0,612,792)"
         y="338.8118"
         x="801.37708"
         height="2.8651307"
         width="9.1684189"
         id="rect5942"
         style="fill:#00ff00;fill-opacity:1;stroke:#000000;stroke-width:2;stroke-linecap:round;stroke-linejoin:round;stroke-miterlimit:10;stroke-opacity:1;stroke-dasharray:none;stroke-dashoffset:0" /></g></g></svg>