  0
SECTION
  2
HEADER
  9
$ACADVER
  1
AC1014
  9
$HANDSEED
  5
FFFF
  9
$MEASUREMENT
 70
     1
  0
ENDSEC
  0
SECTION
  2
TABLES
  0
TABLE
  2
VPORT
  5
8
330
0
100
AcDbSymbolTable
 70
     4
  0
VPORT
  5
2E
330
8
100
AcDbSymbolTableRecord
100
AcDbViewportTableRecord
  2
*ACTIVE
 70
     0
 10
0.0
 20
0.0
 11
1.0
 21
1.0
 12
210.0
 22
148.5
 13
0.0
 23
0.0
 14
10.0
 24
10.0
 15
10.0
 25
10.0
 16
0.0
 26
0.0
 36
1.0
 17
0.0
 27
0.0
 37
0.0
 40
341.0
 41
1.24
 42
50.0
 43
0.0
 44
0.0
 50
0.0
 51
0.0
 71
     0
 72
   100
 73
     1
 74
     3
 75
     0
 76
     0
 77
     0
 78
     0
  0
ENDTAB
  0
TABLE
  2
LTYPE
  5
5
330
0
100
AcDbSymbolTable
 70
     1
  0
LTYPE
  5
14
330
5
100
AcDbSymbolTableRecord
100
AcDbLinetypeTableRecord
  2
BYBLOCK
 70
     0
  3

 72
    65
 73
     0
 40
0.0
  0
LTYPE
  5
15
330
5
100
AcDbSymbolTableRecord
100
AcDbLinetypeTableRecord
  2
BYLAYER
 70
     0
  3

 72
    65
 73
     0
 40
0.0
  0
LTYPE
  5
16
330
5
100
AcDbSymbolTableRecord
100
AcDbLinetypeTableRecord
  2
CONTINUOUS
 70
     0
  3
Solid line
 72
    65
 73
     0
 40
0.0
  0
ENDTAB
  0
TABLE
  2
LAYER
  5
2
100
AcDbSymbolTable
 70
2
  0
LAYER
  5
50
100
AcDbSymbolTableRecord
100
AcDbLayerTableRecord
  2
0
 70
0
  6
CONTINUOUS
  0
LAYER
  5
51
100
AcDbSymbolTableRecord
100
AcDbLayerTableRecord
  2
Layer_1
 70
0
  6
CONTINUOUS
  0
ENDTAB
  0
TABLE
  2
STYLE
  5
3
330
0
100
AcDbSymbolTable
 70
     1
  0
STYLE
  5
11
330
3
100
AcDbSymbolTableRecord
100
AcDbTextStyleTableRecord
  2
STANDARD
 70
     0
 40
0.0
 41
1.0
 50
0.0
 71
     0
 42
2.5
  3
txt
  4

  0
ENDTAB
  0
TABLE
  2
VIEW
  5
6
330
0
100
AcDbSymbolTable
 70
     0
  0
ENDTAB
  0
TABLE
  2
UCS
  5
7
330
0
100
AcDbSymbolTable
 70
     0
  0
ENDTAB
  0
TABLE
  2
APPID
  5
9
330
0
100
AcDbSymbolTable
 70
     2
  0
APPID
  5
12
330
9
100
AcDbSymbolTableRecord
100
AcDbRegAppTableRecord
  2
ACAD
 70
     0
  0
ENDTAB
  0
TABLE
  2
DIMSTYLE
  5
A
330
0
100
AcDbSymbolTable
 70
     1
  0
DIMSTYLE
105
27
330
A
100
AcDbSymbolTableRecord
100
AcDbDimStyleTableRecord
  2
ISO-25
 70
     0
  3

  4

  5

  6

  7

 40
1.0
 41
2.5
 42
0.625
 43
3.75
 44
1.25
 45
0.0
 46
0.0
 47
0.0
 48
0.0
140
2.5
141
2.5
142
0.0
143
0.03937007874016
144
1.0
145
0.0
146
1.0
147
0.625
 71
     0
 72
     0
 73
     0
 74
     0
 75
     0
 76
     0
 77
     1
 78
     8
170
     0
171
     3
172
     1
173
     0
174
     0
175
     0
176
     0
177
     0
178
     0
270
     2
271
     2
272
     2
273
     2
274
     3
340
11
275
     0
280
     0
281
     0
282
     0
283
     0
284
     8
285
     0
286
     0
287
     3
288
     0
  0
ENDTAB
  0
TABLE
  2
BLOCK_RECORD
  5
1
330
0
100
AcDbSymbolTable
 70
     1
  0
BLOCK_RECORD
  5
1F
330
1
100
AcDbSymbolTableRecord
100
AcDbBlockTableRecord
  2
*MODEL_SPACE
  0
BLOCK_RECORD
  5
1B
330
1
100
AcDbSymbolTableRecord
100
AcDbBlockTableRecord
  2
*PAPER_SPACE
  0
ENDTAB
  0
ENDSEC
  0
SECTION
  2
BLOCKS
  0
BLOCK
  5
20
330
1F
100
AcDbEntity
  8
0
100
AcDbBlockBegin
  2
*MODEL_SPACE
 70
     0
 10
0.0
 20
0.0
 30
0.0
  3
*MODEL_SPACE
  1

  0
ENDBLK
  5
21
330
1F
100
AcDbEntity
  8
0
100
AcDbBlockEnd
  0
BLOCK
  5
1C
330
1B
100
AcDbEntity
 67
     1
  8
0
100
AcDbBlockBegin
  2
*PAPER_SPACE
  1

  0
ENDBLK
  5
1D
330
1B
100
AcDbEntity
 67
     1
  8
0
100
AcDbBlockEnd
  0
ENDSEC
  0
SECTION
  2
ENTITIES
  0
LWPOLYLINE
  5
100
100
AcDbEntity
  8
Layer_1
 62
7
100
AcDbPolyline
 90
65
 70
0
 10
3.242014
 20
8.242566
 30
0.0
 10
3.242014
 20
8.115483
 30
0.0
 10
3.242014
 20
7.988399
 30
0.0
 10
3.242014
 20
7.861316
 30
0.0
 10
3.242014
 20
7.734233
 30
0.0
 10
3.274826
 20
7.734233
 30
0.0
 10
3.307639
 20
7.734233
 30
0.0
 10
3.340451
 20
7.734233
 30
0.0
 10
3.373264
 20
7.734233
 30
0.0
 10
3.373264
 20
7.782323
 30
0.0
 10
3.373264
 20
7.830413
 30
0.0
 10
3.373264
 20
7.878504
 30
0.0
 10
3.373264
 20
7.926594
 30
0.0
 10
3.382465
 20
7.926594
 30
0.0
 10
3.391667
 20
7.926594
 30
0.0
 10
3.400868
 20
7.926594
 30
0.0
 10
3.410069
 20
7.926594
 30
0.0
 10
3.425296
 20
7.925733
 30
0.0
 10
3.438955
 20
7.923139
 30
0.0
 10
3.451019
 20
7.918801
 30
0.0
 10
3.461458
 20
7.912706
 30
0.0
 10
3.471026
 20
7.904216
 30
0.0
 10
3.480509
 20
7.892707
 30
0.0
 10
3.489929
 20
7.878176
 30
0.0
 10
3.499306
 20
7.860622
 30
0.0
 10
3.514844
 20
7.829025
 30
0.0
 10
3.530382
 20
7.797428
 30
0.0
 10
3.545920
 20
7.765831
 30
0.0
 10
3.561458
 20
7.734233
 30
0.0
 10
3.596354
 20
7.734233
 30
0.0
 10
3.631250
 20
7.734233
 30
0.0
 10
3.666146
 20
7.734233
 30
0.0
 10
3.701042
 20
7.734233
 30
0.0
 10
3.683247
 20
7.770344
 30
0.0
 10
3.665451
 20
7.806456
 30
0.0
 10
3.647656
 20
7.842567
 30
0.0
 10
3.629861
 20
7.878678
 30
0.0
 10
3.619000
 20
7.899202
 30
0.0
 10
3.608205
 20
7.916891
 30
0.0
 10
3.597474
 20
7.931793
 30
0.0
 10
3.586806
 20
7.943956
 30
0.0
 10
3.575801
 20
7.953801
 30
0.0
 10
3.564078
 20
7.961717
 30
0.0
 10
3.551652
 20
7.967696
 30
0.0
 10
3.538542
 20
7.971733
 30
0.0
 10
3.561495
 20
7.980497
 30
0.0
 10
3.581344
 20
7.991436
 30
0.0
 10
3.598108
 20
8.004503
 30
0.0
 10
3.611806
 20
8.019650
 30
0.0
 10
3.622503
 20
8.036935
 30
0.0
 10
3.630217
 20
8.056458
 30
0.0
 10
3.634888
 20
8.078237
 30
0.0
 10
3.636458
 20
8.102289
 30
0.0
 10
3.633522
 20
8.136275
 30
0.0
 10
3.624723
 20
8.165375
 30
0.0
 10
3.610073
 20
8.189581
 30
0.0
 10
3.589583
 20
8.208886
 30
0.0
 10
3.562829
 20
8.223628
 30
0.0
 10
3.529377
 20
8.234152
 30
0.0
 10
3.489222
 20
8.240464
 30
0.0
 10
3.442361
 20
8.242567
 30
0.0
 10
3.392274
 20
8.242567
 30
0.0
 10
3.342187
 20
8.242567
 30
0.0
 10
3.292101
 20
8.242567
 30
0.0
 10
3.242014
 20
8.242566
 30
0.0
  0
LWPOLYLINE
  5
101
100
AcDbEntity
  8
Layer_1
 62
7
100
AcDbPolyline
 90
65
 70
0
 10
4.751042
 20
8.242566
 30
0.0
 10
4.751042
 20
8.115483
 30
0.0
 10
4.751042
 20
7.988399
 30
0.0
 10
4.751042
 20
7.861316
 30
0.0
 10
4.751042
 20
7.734233
 30
0.0
 10
4.783767
 20
7.734233
 30
0.0
 10
4.816493
 20
7.734233
 30
0.0
 10
4.849219
 20
7.734233
 30
0.0
 10
4.881944
 20
7.734233
 30
0.0
 10
4.881944
 20
7.782323
 30
0.0
 10
4.881944
 20
7.830413
 30
0.0
 10
4.881944
 20
7.878504
 30
0.0
 10
4.881944
 20
7.926594
 30
0.0
 10
4.891233
 20
7.926594
 30
0.0
 10
4.900521
 20
7.926594
 30
0.0
 10
4.909809
 20
7.926594
 30
0.0
 10
4.919097
 20
7.926594
 30
0.0
 10
4.934324
 20
7.925733
 30
0.0
 10
4.947983
 20
7.923139
 30
0.0
 10
4.960047
 20
7.918801
 30
0.0
 10
4.970486
 20
7.912706
 30
0.0
 10
4.980054
 20
7.904216
 30
0.0
 10
4.989537
 20
7.892707
 30
0.0
 10
4.998957
 20
7.878176
 30
0.0
 10
5.008333
 20
7.860622
 30
0.0
 10
5.023785
 20
7.829025
 30
0.0
 10
5.039236
 20
7.797428
 30
0.0
 10
5.054687
 20
7.765831
 30
0.0
 10
5.070139
 20
7.734233
 30
0.0
 10
5.105035
 20
7.734233
 30
0.0
 10
5.139931
 20
7.734233
 30
0.0
 10
5.174826
 20
7.734233
 30
0.0
 10
5.209722
 20
7.734233
 30
0.0
 10
5.191927
 20
7.770344
 30
0.0
 10
5.174132
 20
7.806456
 30
0.0
 10
5.156337
 20
7.842567
 30
0.0
 10
5.138542
 20
7.878678
 30
0.0
 10
5.127681
 20
7.899202
 30
0.0
 10
5.116886
 20
7.916891
 30
0.0
 10
5.106155
 20
7.931793
 30
0.0
 10
5.095486
 20
7.943956
 30
0.0
 10
5.084536
 20
7.953801
 30
0.0
 10
5.072932
 20
7.961717
 30
0.0
 10
5.060626
 20
7.967696
 30
0.0
 10
5.047569
 20
7.971733
 30
0.0
 10
5.070523
 20
7.980497
 30
0.0
 10
5.090372
 20
7.991436
 30
0.0
 10
5.107135
 20
8.004503
 30
0.0
 10
5.120833
 20
8.019650
 30
0.0
 10
5.131477
 20
8.036935
 30
0.0
 10
5.139071
 20
8.056458
 30
0.0
 10
5.143623
 20
8.078237
 30
0.0
 10
5.145139
 20
8.102289
 30
0.0
 10
5.142203
 20
8.136275
 30
0.0
 10
5.133404
 20
8.165375
 30
0.0
 10
5.118753
 20
8.189581
 30
0.0
 10
5.098264
 20
8.208886
 30
0.0
 10
5.071510
 20
8.223628
 30
0.0
 10
5.038058
 20
8.234152
 30
0.0
 10
4.997903
 20
8.240464
 30
0.0
 10
4.951042
 20
8.242567
 30
0.0
 10
4.901042
 20
8.242567
 30
0.0
 10
4.851042
 20
8.242567
 30
0.0
 10
4.801042
 20
8.242567
 30
0.0
 10
4.751042
 20
8.242566
 30
0.0
  0
LWPOLYLINE
  5
102
100
AcDbEntity
  8
Layer_1
 62
7
100
AcDbPolyline
 90
29
 70
0
 10
3.373264
 20
8.147427
 30
0.0
 10
3.386979
 20
8.147427
 30
0.0
 10
3.400694
 20
8.147427
 30
0.0
 10
3.414410
 20
8.147427
 30
0.0
 10
3.428125
 20
8.147427
 30
0.0
 10
3.447312
 20
8.146498
 30
0.0
 10
3.463642
 20
8.143706
 30
0.0
 10
3.477058
 20
8.139042
 30
0.0
 10
3.487500
 20
8.132497
 30
0.0
 10
3.495294
 20
8.123781
 30
0.0
 10
3.500822
 20
8.112606
 30
0.0
 10
3.504117
 20
8.098964
 30
0.0
 10
3.505208
 20
8.082844
 30
0.0
 10
3.504117
 20
8.066551
 30
0.0
 10
3.500822
 20
8.052733
 30
0.0
 10
3.495294
 20
8.041384
 30
0.0
 10
3.487500
 20
8.032497
 30
0.0
 10
3.477057
 20
8.025800
 30
0.0
 10
3.463642
 20
8.021027
 30
0.0
 10
3.447312
 20
8.018170
 30
0.0
 10
3.428125
 20
8.017218
 30
0.0
 10
3.414410
 20
8.017218
 30
0.0
 10
3.400694
 20
8.017218
 30
0.0
 10
3.386979
 20
8.017218
 30
0.0
 10
3.373264
 20
8.017218
 30
0.0
 10
3.373264
 20
8.049771
 30
0.0
 10
3.373264
 20
8.082323
 30
0.0
 10
3.373264
 20
8.114875
 30
0.0
 10
3.373264
 20
8.147427
 30
0.0
  0
LWPOLYLINE
  5
103
100
AcDbEntity
  8
Layer_1
 62
7
100
AcDbPolyline
 90
29
 70
0
 10
4.881944
 20
8.147427
 30
0.0
 10
4.895747
 20
8.147427
 30
0.0
 10
4.909549
 20
8.147427
 30
0.0
 10
4.923351
 20
8.147427
 30
0.0
 10
4.937153
 20
8.147427
 30
0.0
 10
4.956286
 20
8.146498
 30
0.0
 10
4.972497
 20
8.143706
 30
0.0
 10
4.985792
 20
8.139042
 30
0.0
 10
4.996181
 20
8.132497
 30
0.0
 10
5.004028
 20
8.123781
 30
0.0
 10
5.009676
 20
8.112606
 30
0.0
 10
5.013090
 20
8.098964
 30
0.0
 10
5.014236
 20
8.082844
 30
0.0
 10
5.013090
 20
8.066551
 30
0.0
 10
5.009676
 20
8.052733
 30
0.0
 10
5.004028
 20
8.041384
 30
0.0
 10
4.996181
 20
8.032497
 30
0.0
 10
4.985792
 20
8.025800
 30
0.0
 10
4.972497
 20
8.021027
 30
0.0
 10
4.956286
 20
8.018170
 30
0.0
 10
4.937153
 20
8.017218
 30
0.0
 10
4.923351
 20
8.017218
 30
0.0
 10
4.909549
 20
8.017218
 30
0.0
 10
4.895747
 20
8.017218
 30
0.0
 10
4.881944
 20
8.017218
 30
0.0
 10
4.881944
 20
8.049771
 30
0.0
 10
4.881944
 20
8.082323
 30
0.0
 10
4.881944
 20
8.114875
 30
0.0
 10
4.881944
 20
8.147427
 30
0.0
  0
LWPOLYLINE
  5
104
100
AcDbEntity
  8
Layer_1
 62
7
100
AcDbPolyline
 90
61
 70
0
 10
3.955903
 20
8.124858
 30
0.0
 10
3.909220
 20
8.121513
 30
0.0
 10
3.867876
 20
8.111484
 30
0.0
 10
3.831829
 20
8.094773
 30
0.0
 10
3.801042
 20
8.071386
 30
0.0
 10
3.776352
 20
8.042149
 30
0.0
 10
3.758657
 20
8.007906
 30
0.0
 10
3.748006
 20
7.968684
 30
0.0
 10
3.744444
 20
7.924511
 30
0.0
 10
3.748073
 20
7.879670
 30
0.0
 10
3.758923
 20
7.840129
 30
0.0
 10
3.776943
 20
7.805887
 30
0.0
 10
3.802083
 20
7.776941
 30
0.0
 10
3.833634
 20
7.753955
 30
0.0
 10
3.870933
 20
7.737576
 30
0.0
 10
3.913998
 20
7.727772
 30
0.0
 10
3.962847
 20
7.724511
 30
0.0
 10
3.984463
 20
7.725031
 30
0.0
 10
4.006076
 20
7.726592
 30
0.0
 10
4.027689
 20
7.729196
 30
0.0
 10
4.049306
 20
7.732844
 30
0.0
 10
4.070921
 20
7.737510
 30
0.0
 10
4.092534
 20
7.743170
 30
0.0
 10
4.114148
 20
7.749830
 30
0.0
 10
4.135764
 20
7.757497
 30
0.0
 10
4.135764
 20
7.780934
 30
0.0
 10
4.135764
 20
7.804372
 30
0.0
 10
4.135764
 20
7.827809
 30
0.0
 10
4.135764
 20
7.851247
 30
0.0
 10
4.114610
 20
7.840434
 30
0.0
 10
4.093717
 20
7.831123
 30
0.0
 10
4.073101
 20
7.823280
 30
0.0
 10
4.052778
 20
7.816872
 30
0.0
 10
4.032722
 20
7.811873
 30
0.0
 10
4.012900
 20
7.808291
 30
0.0
 10
3.993311
 20
7.806134
 30
0.0
 10
3.973958
 20
7.805413
 30
0.0
 10
3.951432
 20
7.806766
 30
0.0
 10
3.931528
 20
7.810815
 30
0.0
 10
3.914263
 20
7.817545
 30
0.0
 10
3.899653
 20
7.826941
 30
0.0
 10
3.887771
 20
7.838989
 30
0.0
 10
3.878669
 20
7.853697
 30
0.0
 10
3.872334
 20
7.871086
 30
0.0
 10
3.868750
 20
7.891177
 30
0.0
 10
3.940017
 20
7.891177
 30
0.0
 10
4.011285
 20
7.891177
 30
0.0
 10
4.082552
 20
7.891177
 30
0.0
 10
4.153819
 20
7.891177
 30
0.0
 10
4.153819
 20
7.899858
 30
0.0
 10
4.153819
 20
7.908538
 30
0.0
 10
4.153819
 20
7.917219
 30
0.0
 10
4.153819
 20
7.925899
 30
0.0
 10
4.150415
 20
7.968918
 30
0.0
 10
4.140226
 20
8.007402
 30
0.0
 10
4.123292
 20
8.041333
 30
0.0
 10
4.099653
 20
8.070691
 30
0.0
 10
4.070441
 20
8.094379
 30
0.0
 10
4.036757
 20
8.111307
 30
0.0
 10
3.998583
 20
8.121469
 30
0.0
 10
3.955903
 20
8.124858
 30
0.0
  0
LWPOLYLINE
  5
105
100
AcDbEntity
  8
Layer_1
 62
7
100
AcDbPolyline
 90
53
 70
0
 10
4.493750
 20
8.124858
 30
0.0
 10
4.474406
 20
8.123846
 30
0.0
 10
4.456209
 20
8.120829
 30
0.0
 10
4.439160
 20
8.115833
 30
0.0
 10
4.423264
 20
8.108885
 30
0.0
 10
4.408328
 20
8.099856
 30
0.0
 10
4.394124
 20
8.088615
 30
0.0
 10
4.380602
 20
8.075183
 30
0.0
 10
4.367708
 20
8.059580
 30
0.0
 10
4.367708
 20
8.073555
 30
0.0
 10
4.367708
 20
8.087531
 30
0.0
 10
4.367708
 20
8.101507
 30
0.0
 10
4.367708
 20
8.115482
 30
0.0
 10
4.337240
 20
8.115482
 30
0.0
 10
4.306771
 20
8.115482
 30
0.0
 10
4.276302
 20
8.115482
 30
0.0
 10
4.245833
 20
8.115482
 30
0.0
 10
4.245833
 20
7.983885
 30
0.0
 10
4.245833
 20
7.852288
 30
0.0
 10
4.245833
 20
7.720691
 30
0.0
 10
4.245833
 20
7.589093
 30
0.0
 10
4.276302
 20
7.589093
 30
0.0
 10
4.306771
 20
7.589093
 30
0.0
 10
4.337240
 20
7.589093
 30
0.0
 10
4.367708
 20
7.589093
 30
0.0
 10
4.367708
 20
7.639180
 30
0.0
 10
4.367708
 20
7.689267
 30
0.0
 10
4.367708
 20
7.739354
 30
0.0
 10
4.367708
 20
7.789441
 30
0.0
 10
4.380602
 20
7.773837
 30
0.0
 10
4.394124
 20
7.760405
 30
0.0
 10
4.408328
 20
7.749164
 30
0.0
 10
4.423264
 20
7.740135
 30
0.0
 10
4.439160
 20
7.733241
 30
0.0
 10
4.456209
 20
7.728365
 30
0.0
 10
4.474406
 20
7.725467
 30
0.0
 10
4.493750
 20
7.724510
 30
0.0
 10
4.527446
 20
7.727994
 30
0.0
 10
4.558034
 20
7.738460
 30
0.0
 10
4.585473
 20
7.755927
 30
0.0
 10
4.609722
 20
7.780412
 30
0.0
 10
4.629510
 20
7.810412
 30
0.0
 10
4.643611
 20
7.844418
 30
0.0
 10
4.652053
 20
7.882445
 30
0.0
 10
4.654861
 20
7.924510
 30
0.0
 10
4.652053
 20
7.966574
 30
0.0
 10
4.643611
 20
8.004601
 30
0.0
 10
4.629510
 20
8.038607
 30
0.0
 10
4.609722
 20
8.068607
 30
0.0
 10
4.585473
 20
8.093147
 30
0.0
 10
4.558034
 20
8.110732
 30
0.0
 10
4.527446
 20
8.121318
 30
0.0
 10
4.493750
 20
8.124858
 30
0.0
  0
LWPOLYLINE
  5
106
100
AcDbEntity
  8
Layer_1
 62
7
100
AcDbPolyline
 90
81
 70
0
 10
5.444444
 20
8.124858
 30
0.0
 10
5.424670
 20
8.124507
 30
0.0
 10
5.404861
 20
8.123488
 30
0.0
 10
5.385052
 20
8.121852
 30
0.0
 10
5.365278
 20
8.119650
 30
0.0
 10
5.345580
 20
8.116930
 30
0.0
 10
5.325956
 20
8.113680
 30
0.0
 10
5.306376
 20
8.109856
 30
0.0
 10
5.286806
 20
8.105414
 30
0.0
 10
5.286806
 20
8.082150
 30
0.0
 10
5.286806
 20
8.058886
 30
0.0
 10
5.286806
 20
8.035622
 30
0.0
 10
5.286806
 20
8.012358
 30
0.0
 10
5.301550
 20
8.019718
 30
0.0
 10
5.316864
 20
8.026121
 30
0.0
 10
5.332774
 20
8.031546
 30
0.0
 10
5.349306
 20
8.035969
 30
0.0
 10
5.366508
 20
8.039365
 30
0.0
 10
5.384402
 20
8.041746
 30
0.0
 10
5.402977
 20
8.043148
 30
0.0
 10
5.422222
 20
8.043608
 30
0.0
 10
5.444802
 20
8.042807
 30
0.0
 10
5.464196
 20
8.040373
 30
0.0
 10
5.480398
 20
8.036258
 30
0.0
 10
5.493403
 20
8.030414
 30
0.0
 10
5.503399
 20
8.022671
 30
0.0
 10
5.510563
 20
8.012932
 30
0.0
 10
5.514877
 20
8.001257
 30
0.0
 10
5.516319
 20
7.987706
 30
0.0
 10
5.516319
 20
7.985362
 30
0.0
 10
5.516319
 20
7.983018
 30
0.0
 10
5.516319
 20
7.980674
 30
0.0
 10
5.516319
 20
7.978331
 30
0.0
 10
5.498351
 20
7.978331
 30
0.0
 10
5.480382
 20
7.978331
 30
0.0
 10
5.462413
 20
7.978331
 30
0.0
 10
5.444444
 20
7.978331
 30
0.0
 10
5.398378
 20
7.976384
 30
0.0
 10
5.358899
 20
7.970536
 30
0.0
 10
5.325995
 20
7.960772
 30
0.0
 10
5.299653
 20
7.947081
 30
0.0
 10
5.279463
 20
7.929151
 30
0.0
 10
5.265030
 20
7.906712
 30
0.0
 10
5.256363
 20
7.879804
 30
0.0
 10
5.253472
 20
7.848470
 30
0.0
 10
5.255760
 20
7.822200
 30
0.0
 10
5.262640
 20
7.798529
 30
0.0
 10
5.274138
 20
7.777432
 30
0.0
 10
5.290278
 20
7.758886
 30
0.0
 10
5.310141
 20
7.743797
 30
0.0
 10
5.332793
 20
7.733060
 30
0.0
 10
5.358232
 20
7.726643
 30
0.0
 10
5.386458
 20
7.724511
 30
0.0
 10
5.407602
 20
7.725469
 30
0.0
 10
5.427104
 20
7.728367
 30
0.0
 10
5.444946
 20
7.733243
 30
0.0
 10
5.461111
 20
7.740137
 30
0.0
 10
5.476057
 20
7.749254
 30
0.0
 10
5.490247
 20
7.760760
 30
0.0
 10
5.503671
 20
7.774628
 30
0.0
 10
5.516319
 20
7.790831
 30
0.0
 10
5.516319
 20
7.776682
 30
0.0
 10
5.516319
 20
7.762533
 30
0.0
 10
5.516319
 20
7.748383
 30
0.0
 10
5.516319
 20
7.734234
 30
0.0
 10
5.547049
 20
7.734234
 30
0.0
 10
5.577778
 20
7.734234
 30
0.0
 10
5.608507
 20
7.734234
 30
0.0
 10
5.639236
 20
7.734234
 30
0.0
 10
5.639236
 20
7.788661
 30
0.0
 10
5.639236
 20
7.843088
 30
0.0
 10
5.639236
 20
7.897515
 30
0.0
 10
5.639236
 20
7.951942
 30
0.0
 10
5.636367
 20
7.994501
 30
0.0
 10
5.627767
 20
8.030638
 30
0.0
 10
5.613442
 20
8.060414
 30
0.0
 10
5.593403
 20
8.083887
 30
0.0
 10
5.566920
 20
8.101731
 30
0.0
 10
5.533265
 20
8.114543
 30
0.0
 10
5.492438
 20
8.122271
 30
0.0
 10
5.444444
 20
8.124858
 30
0.0
  0
LWPOLYLINE
  5
107
100
AcDbEntity
  8
Layer_1
 62
7
100
AcDbPolyline
 90
53
 70
0
 10
6.001389
 20
8.124858
 30
0.0
 10
5.982045
 20
8.123846
 30
0.0
 10
5.963848
 20
8.120829
 30
0.0
 10
5.946799
 20
8.115833
 30
0.0
 10
5.930903
 20
8.108885
 30
0.0
 10
5.915912
 20
8.099856
 30
0.0
 10
5.901589
 20
8.088615
 30
0.0
 10
5.887948
 20
8.075183
 30
0.0
 10
5.875000
 20
8.059580
 30
0.0
 10
5.875000
 20
8.073556
 30
0.0
 10
5.875000
 20
8.087531
 30
0.0
 10
5.875000
 20
8.101507
 30
0.0
 10
5.875000
 20
8.115483
 30
0.0
 10
5.844531
 20
8.115483
 30
0.0
 10
5.814062
 20
8.115483
 30
0.0
 10
5.783594
 20
8.115483
 30
0.0
 10
5.753125
 20
8.115483
 30
0.0
 10
5.753125
 20
7.983886
 30
0.0
 10
5.753125
 20
7.852288
 30
0.0
 10
5.753125
 20
7.720691
 30
0.0
 10
5.753125
 20
7.589094
 30
0.0
 10
5.783594
 20
7.589094
 30
0.0
 10
5.814062
 20
7.589094
 30
0.0
 10
5.844531
 20
7.589094
 30
0.0
 10
5.875000
 20
7.589094
 30
0.0
 10
5.875000
 20
7.639181
 30
0.0
 10
5.875000
 20
7.689268
 30
0.0
 10
5.875000
 20
7.739354
 30
0.0
 10
5.875000
 20
7.789441
 30
0.0
 10
5.887948
 20
7.773838
 30
0.0
 10
5.901589
 20
7.760405
 30
0.0
 10
5.915912
 20
7.749164
 30
0.0
 10
5.930903
 20
7.740136
 30
0.0
 10
5.946799
 20
7.733242
 30
0.0
 10
5.963848
 20
7.728365
 30
0.0
 10
5.982045
 20
7.725468
 30
0.0
 10
6.001389
 20
7.724510
 30
0.0
 10
6.035030
 20
7.727995
 30
0.0
 10
6.065499
 20
7.738461
 30
0.0
 10
6.092819
 20
7.755927
 30
0.0
 10
6.117014
 20
7.780413
 30
0.0
 10
6.136856
 20
7.810412
 30
0.0
 10
6.151076
 20
7.844418
 30
0.0
 10
6.159637
 20
7.882446
 30
0.0
 10
6.162500
 20
7.924510
 30
0.0
 10
6.159637
 20
7.966574
 30
0.0
 10
6.151076
 20
8.004602
 30
0.0
 10
6.136856
 20
8.038608
 30
0.0
 10
6.117014
 20
8.068607
 30
0.0
 10
6.092819
 20
8.093147
 30
0.0
 10
6.065499
 20
8.110733
 30
0.0
 10
6.035030
 20
8.121318
 30
0.0
 10
6.001389
 20
8.124858
 30
0.0
  0
LWPOLYLINE
  5
108
100
AcDbEntity
  8
Layer_1
 62
7
100
AcDbPolyline
 90
21
 70
0
 10
3.955208
 20
8.043608
 30
0.0
 10
3.970802
 20
8.042293
 30
0.0
 10
3.984877
 20
8.038337
 30
0.0
 10
3.997399
 20
8.031721
 30
0.0
 10
4.008333
 20
8.022427
 30
0.0
 10
4.017177
 20
8.010963
 30
0.0
 10
4.023467
 20
7.997838
 30
0.0
 10
4.027224
 20
7.983031
 30
0.0
 10
4.028472
 20
7.966524
 30
0.0
 10
3.988889
 20
7.966524
 30
0.0
 10
3.949306
 20
7.966524
 30
0.0
 10
3.909722
 20
7.966524
 30
0.0
 10
3.870139
 20
7.966524
 30
0.0
 10
3.873936
 20
7.984141
 30
0.0
 10
3.879857
 20
7.999553
 30
0.0
 10
3.887863
 20
8.012774
 30
0.0
 10
3.897917
 20
8.023816
 30
0.0
 10
3.909773
 20
8.032510
 30
0.0
 10
3.923243
 20
8.038691
 30
0.0
 10
3.938373
 20
8.042382
 30
0.0
 10
3.955208
 20
8.043608
 30
0.0
  0
LWPOLYLINE
  5
109
100
AcDbEntity
  8
Layer_1
 62
7
100
AcDbPolyline
 90
33
 70
0
 10
4.448611
 20
8.036316
 30
0.0
 10
4.467023
 20
8.034494
 30
0.0
 10
4.483111
 20
8.029056
 30
0.0
 10
4.496879
 20
8.020043
 30
0.0
 10
4.508333
 20
8.007497
 30
0.0
 10
4.517327
 20
7.991594
 30
0.0
 10
4.523725
 20
7.972472
 30
0.0
 10
4.527549
 20
7.950116
 30
0.0
 10
4.528819
 20
7.924511
 30
0.0
 10
4.527549
 20
7.898905
 30
0.0
 10
4.523725
 20
7.876549
 30
0.0
 10
4.517327
 20
7.857427
 30
0.0
 10
4.508333
 20
7.841524
 30
0.0
 10
4.496879
 20
7.828978
 30
0.0
 10
4.483111
 20
7.819965
 30
0.0
 10
4.467023
 20
7.814527
 30
0.0
 10
4.448611
 20
7.812705
 30
0.0
 10
4.430177
 20
7.814511
 30
0.0
 10
4.414023
 20
7.819923
 30
0.0
 10
4.400146
 20
7.828931
 30
0.0
 10
4.388542
 20
7.841524
 30
0.0
 10
4.379398
 20
7.857507
 30
0.0
 10
4.372890
 20
7.876677
 30
0.0
 10
4.369001
 20
7.899017
 30
0.0
 10
4.367708
 20
7.924511
 30
0.0
 10
4.369001
 20
7.950004
 30
0.0
 10
4.372890
 20
7.972344
 30
0.0
 10
4.379398
 20
7.991514
 30
0.0
 10
4.388542
 20
8.007497
 30
0.0
 10
4.400146
 20
8.020090
 30
0.0
 10
4.414023
 20
8.029098
 30
0.0
 10
4.430177
 20
8.034510
 30
0.0
 10
4.448611
 20
8.036316
 30
0.0
  0
LWPOLYLINE
  5
10a
100
AcDbEntity
  8
Layer_1
 62
7
100
AcDbPolyline
 90
33
 70
0
 10
5.956250
 20
8.036316
 30
0.0
 10
5.974662
 20
8.034494
 30
0.0
 10
5.990749
 20
8.029056
 30
0.0
 10
6.004518
 20
8.020043
 30
0.0
 10
6.015972
 20
8.007497
 30
0.0
 10
6.024966
 20
7.991594
 30
0.0
 10
6.031364
 20
7.972472
 30
0.0
 10
6.035188
 20
7.950116
 30
0.0
 10
6.036458
 20
7.924511
 30
0.0
 10
6.035188
 20
7.898905
 30
0.0
 10
6.031364
 20
7.876549
 30
0.0
 10
6.024966
 20
7.857427
 30
0.0
 10
6.015972
 20
7.841524
 30
0.0
 10
6.004518
 20
7.828978
 30
0.0
 10
5.990749
 20
7.819965
 30
0.0
 10
5.974662
 20
7.814527
 30
0.0
 10
5.956250
 20
7.812705
 30
0.0
 10
5.937761
 20
7.814511
 30
0.0
 10
5.921488
 20
7.819923
 30
0.0
 10
5.907492
 20
7.828931
 30
0.0
 10
5.895833
 20
7.841524
 30
0.0
 10
5.886689
 20
7.857507
 30
0.0
 10
5.880182
 20
7.876677
 30
0.0
 10
5.876292
 20
7.899017
 30
0.0
 10
5.875000
 20
7.924511
 30
0.0
 10
5.876292
 20
7.950004
 30
0.0
 10
5.880182
 20
7.972344
 30
0.0
 10
5.886689
 20
7.991514
 30
0.0
 10
5.895833
 20
8.007497
 30
0.0
 10
5.907492
 20
8.020090
 30
0.0
 10
5.921488
 20
8.029098
 30
0.0
 10
5.937761
 20
8.034510
 30
0.0
 10
5.956250
 20
8.036316
 30
0.0
  0
LWPOLYLINE
  5
10b
100
AcDbEntity
  8
Layer_1
 62
7
100
AcDbPolyline
 90
33
 70
0
 10
5.452778
 20
7.905761
 30
0.0
 10
5.468663
 20
7.905761
 30
0.0
 10
5.484549
 20
7.905761
 30
0.0
 10
5.500434
 20
7.905761
 30
0.0
 10
5.516319
 20
7.905761
 30
0.0
 10
5.516319
 20
7.902288
 30
0.0
 10
5.516319
 20
7.898816
 30
0.0
 10
5.516319
 20
7.895344
 30
0.0
 10
5.516319
 20
7.891872
 30
0.0
 10
5.514832
 20
7.874092
 30
0.0
 10
5.510386
 20
7.857862
 30
0.0
 10
5.503004
 20
7.843186
 30
0.0
 10
5.492708
 20
7.830066
 30
0.0
 10
5.480265
 20
7.819272
 30
0.0
 10
5.466439
 20
7.811569
 30
0.0
 10
5.451251
 20
7.806951
 30
0.0
 10
5.434722
 20
7.805413
 30
0.0
 10
5.421691
 20
7.806247
 30
0.0
 10
5.410173
 20
7.808734
 30
0.0
 10
5.400165
 20
7.812860
 30
0.0
 10
5.391667
 20
7.818608
 30
0.0
 10
5.384923
 20
7.825767
 30
0.0
 10
5.380155
 20
7.834153
 30
0.0
 10
5.377324
 20
7.843795
 30
0.0
 10
5.376389
 20
7.854719
 30
0.0
 10
5.377570
 20
7.866560
 30
0.0
 10
5.381129
 20
7.876881
 30
0.0
 10
5.387093
 20
7.885669
 30
0.0
 10
5.395487
 20
7.892914
 30
0.0
 10
5.406273
 20
7.898560
 30
0.0
 10
5.419409
 20
7.902572
 30
0.0
 10
5.434906
 20
7.904967
 30
0.0
 10
5.452778
 20
7.905761
 30
0.0
  0
LWPOLYLINE
  5
10c
100
AcDbEntity
  8
Layer_1
 62
7
100
AcDbPolyline
 90
65
 70
0
 10
5.870139
 20
7.509233
 30
0.0
 10
5.820328
 20
7.507124
 30
0.0
 10
5.771755
 20
7.500803
 30
0.0
 10
5.724371
 20
7.490277
 30
0.0
 10
5.678125
 20
7.475552
 30
0.0
 10
5.633760
 20
7.456660
 30
0.0
 10
5.592086
 20
7.433604
 30
0.0
 10
5.553154
 20
7.406349
 30
0.0
 10
5.517014
 20
7.374858
 30
0.0
 10
5.484065
 20
7.339265
 30
0.0
 10
5.454677
 20
7.299736
 30
0.0
 10
5.428853
 20
7.256275
 30
0.0
 10
5.406597
 20
7.208886
 30
0.0
 10
5.388735
 20
7.157574
 30
0.0
 10
5.376049
 20
7.102340
 30
0.0
 10
5.368482
 20
7.043174
 30
0.0
 10
5.365972
 20
6.980066
 30
0.0
 10
5.368401
 20
6.916916
 30
0.0
 10
5.375718
 20
6.857629
 30
0.0
 10
5.387971
 20
6.802269
 30
0.0
 10
5.405208
 20
6.750899
 30
0.0
 10
5.426800
 20
6.703604
 30
0.0
 10
5.452068
 20
6.660385
 30
0.0
 10
5.480990
 20
6.621191
 30
0.0
 10
5.513542
 20
6.585969
 30
0.0
 10
5.549351
 20
6.554738
 30
0.0
 10
5.588072
 20
6.527579
 30
0.0
 10
5.629719
 20
6.504528
 30
0.0
 10
5.674306
 20
6.485622
 30
0.0
 10
5.721083
 20
6.470897
 30
0.0
 10
5.769305
 20
6.460370
 30
0.0
 10
5.818985
 20
6.454050
 30
0.0
 10
5.870139
 20
6.451941
 30
0.0
 10
5.922648
 20
6.454049
 30
0.0
 10
5.973434
 20
6.460370
 30
0.0
 10
6.022486
 20
6.470896
 30
0.0
 10
6.069792
 20
6.485622
 30
0.0
 10
6.114612
 20
6.504528
 30
0.0
 10
6.156223
 20
6.527579
 30
0.0
 10
6.194636
 20
6.554738
 30
0.0
 10
6.229861
 20
6.585969
 30
0.0
 10
6.261750
 20
6.621191
 30
0.0
 10
6.290119
 20
6.660385
 30
0.0
 10
6.314922
 20
6.703604
 30
0.0
 10
6.336111
 20
6.750899
 30
0.0
 10
6.353026
 20
6.802269
 30
0.0
 10
6.365064
 20
6.857629
 30
0.0
 10
6.372261
 20
6.916916
 30
0.0
 10
6.374653
 20
6.980066
 30
0.0
 10
6.372222
 20
7.043174
 30
0.0
 10
6.364901
 20
7.102340
 30
0.0
 10
6.352647
 20
7.157574
 30
0.0
 10
6.335417
 20
7.208886
 30
0.0
 10
6.313831
 20
7.256275
 30
0.0
 10
6.288562
 20
7.299736
 30
0.0
 10
6.259637
 20
7.339265
 30
0.0
 10
6.227083
 20
7.374858
 30
0.0
 10
6.191273
 20
7.406349
 30
0.0
 10
6.152552
 20
7.433604
 30
0.0
 10
6.110905
 20
7.456660
 30
0.0
 10
6.066319
 20
7.475552
 30
0.0
 10
6.019491
 20
7.490277
 30
0.0
 10
5.971157
 20
7.500803
 30
0.0
 10
5.921359
 20
7.507124
 30
0.0
 10
5.870139
 20
7.509233
 30
0.0
  0
LWPOLYLINE
  5
10d
100
AcDbEntity
  8
Layer_1
 62
7
100
AcDbPolyline
 90
153
 70
0
 10
6.890972
 20
7.509233
 30
0.0
 10
6.848958
 20
7.507912
 30
0.0
 10
6.809157
 20
7.503946
 30
0.0
 10
6.771549
 20
7.497329
 30
0.0
 10
6.736111
 20
7.488052
 30
0.0
 10
6.703025
 20
7.476290
 30
0.0
 10
6.672489
 20
7.462232
 30
0.0
 10
6.644511
 20
7.445893
 30
0.0
 10
6.619097
 20
7.427288
 30
0.0
 10
6.596326
 20
7.406491
 30
0.0
 10
6.576282
 20
7.383577
 30
0.0
 10
6.558983
 20
7.358560
 30
0.0
 10
6.544444
 20
7.331455
 30
0.0
 10
6.532923
 20
7.302455
 30
0.0
 10
6.524674
 20
7.271735
 30
0.0
 10
6.519713
 20
7.239278
 30
0.0
 10
6.518056
 20
7.205066
 30
0.0
 10
6.519632
 20
7.171309
 30
0.0
 10
6.524342
 20
7.140218
 30
0.0
 10
6.532159
 20
7.111777
 30
0.0
 10
6.543056
 20
7.085969
 30
0.0
 10
6.556383
 20
7.062389
 30
0.0
 10
6.571520
 20
7.040643
 30
0.0
 10
6.588484
 20
7.020726
 30
0.0
 10
6.607292
 20
7.002636
 30
0.0
 10
6.627675
 20
6.986197
 30
0.0
 10
6.649349
 20
6.971235
 30
0.0
 10
6.672304
 20
6.957736
 30
0.0
 10
6.696528
 20
6.945691
 30
0.0
 10
6.721360
 20
6.934677
 30
0.0
 10
6.746169
 20
6.924286
 30
0.0
 10
6.770984
 20
6.914528
 30
0.0
 10
6.795833
 20
6.905413
 30
0.0
 10
6.848684
 20
6.886736
 30
0.0
 10
6.893189
 20
6.868713
 30
0.0
 10
6.929294
 20
6.851333
 30
0.0
 10
6.956944
 20
6.834580
 30
0.0
 10
6.977379
 20
6.817078
 30
0.0
 10
6.991910
 20
6.797466
 30
0.0
 10
7.000590
 20
6.775751
 30
0.0
 10
7.003472
 20
6.751941
 30
0.0
 10
7.003019
 20
6.740461
 30
0.0
 10
7.001656
 20
6.729482
 30
0.0
 10
6.999378
 20
6.719056
 30
0.0
 10
6.996181
 20
6.709233
 30
0.0
 10
6.991781
 20
6.700088
 30
0.0
 10
6.985909
 20
6.691630
 30
0.0
 10
6.978575
 20
6.683815
 30
0.0
 10
6.969792
 20
6.676594
 30
0.0
 10
6.959526
 20
6.670028
 30
0.0
 10
6.947725
 20
6.664200
 30
0.0
 10
6.934370
 20
6.659101
 30
0.0
 10
6.919445
 20
6.654719
 30
0.0
 10
6.902701
 20
6.651151
 30
0.0
 10
6.883887
 20
6.648539
 30
0.0
 10
6.862974
 20
6.646932
 30
0.0
 10
6.839931
 20
6.646386
 30
0.0
 10
6.793523
 20
6.647627
 30
0.0
 10
6.750837
 20
6.651345
 30
0.0
 10
6.711899
 20
6.657532
 30
0.0
 10
6.676736
 20
6.666177
 30
0.0
 10
6.644805
 20
6.676399
 30
0.0
 10
6.615535
 20
6.687296
 30
0.0
 10
6.588914
 20
6.698831
 30
0.0
 10
6.564931
 20
6.710969
 30
0.0
 10
6.548872
 20
6.665657
 30
0.0
 10
6.532813
 20
6.620344
 30
0.0
 10
6.516754
 20
6.575032
 30
0.0
 10
6.500695
 20
6.529719
 30
0.0
 10
6.511511
 20
6.523759
 30
0.0
 10
6.523492
 20
6.517587
 30
0.0
 10
6.536662
 20
6.511232
 30
0.0
 10
6.551042
 20
6.504719
 30
0.0
 10
6.566747
 20
6.498207
 30
0.0
 10
6.583889
 20
6.491851
 30
0.0
 10
6.602489
 20
6.485679
 30
0.0
 10
6.622570
 20
6.479719
 30
0.0
 10
6.644187
 20
6.474148
 30
0.0
 10
6.667374
 20
6.469088
 30
0.0
 10
6.692117
 20
6.464482
 30
0.0
 10
6.718403
 20
6.460275
 30
0.0
 10
6.746300
 20
6.456707
 30
0.0
 10
6.775870
 20
6.454094
 30
0.0
 10
6.807089
 20
6.452488
 30
0.0
 10
6.839931
 20
6.451942
 30
0.0
 10
6.933768
 20
6.456870
 30
0.0
 10
7.014979
 20
6.471622
 30
0.0
 10
7.083580
 20
6.496152
 30
0.0
 10
7.139584
 20
6.530414
 30
0.0
 10
7.183061
 20
6.573457
 30
0.0
 10
7.214090
 20
6.624402
 30
0.0
 10
7.232693
 20
6.683300
 30
0.0
 10
7.238889
 20
6.750206
 30
0.0
 10
7.237741
 20
6.785387
 30
0.0
 10
7.234266
 20
6.817835
 30
0.0
 10
7.228415
 20
6.847546
 30
0.0
 10
7.220139
 20
6.874511
 30
0.0
 10
7.209363
 20
6.899285
 30
0.0
 10
7.196076
 20
6.922420
 30
0.0
 10
7.180324
 20
6.943910
 30
0.0
 10
7.162153
 20
6.963747
 30
0.0
 10
7.141553
 20
6.982183
 30
0.0
 10
7.118483
 20
6.999456
 30
0.0
 10
7.092943
 20
7.015542
 30
0.0
 10
7.064931
 20
7.030414
 30
0.0
 10
7.034393
 20
7.044699
 30
0.0
 10
7.001290
 20
7.059054
 30
0.0
 10
6.965631
 20
7.073499
 30
0.0
 10
6.927431
 20
7.088053
 30
0.0
 10
6.908834
 20
7.094604
 30
0.0
 10
6.891063
 20
7.101084
 30
0.0
 10
6.874114
 20
7.107471
 30
0.0
 10
6.857986
 20
7.113747
 30
0.0
 10
6.842727
 20
7.120143
 30
0.0
 10
6.828384
 20
7.126905
 30
0.0
 10
6.814953
 20
7.134032
 30
0.0
 10
6.802431
 20
7.141525
 30
0.0
 10
6.791068
 20
7.149431
 30
0.0
 10
6.781104
 20
7.157797
 30
0.0
 10
6.772516
 20
7.166621
 30
0.0
 10
6.765278
 20
7.175900
 30
0.0
 10
6.759520
 20
7.185964
 30
0.0
 10
6.755395
 20
7.197139
 30
0.0
 10
6.752913
 20
7.209414
 30
0.0
 10
6.752083
 20
7.222775
 30
0.0
 10
6.754314
 20
7.244667
 30
0.0
 10
6.761013
 20
7.263537
 30
0.0
 10
6.772187
 20
7.279387
 30
0.0
 10
6.787847
 20
7.292219
 30
0.0
 10
6.808634
 20
7.302115
 30
0.0
 10
6.835183
 20
7.309165
 30
0.0
 10
6.867491
 20
7.313385
 30
0.0
 10
6.905555
 20
7.314789
 30
0.0
 10
6.940791
 20
7.313704
 30
0.0
 10
6.973365
 20
7.310481
 30
0.0
 10
7.003285
 20
7.305157
 30
0.0
 10
7.030555
 20
7.297774
 30
0.0
 10
7.055933
 20
7.289085
 30
0.0
 10
7.080153
 20
7.279791
 30
0.0
 10
7.103185
 20
7.269854
 30
0.0
 10
7.125000
 20
7.259233
 30
0.0
 10
7.141406
 20
7.304198
 30
0.0
 10
7.157812
 20
7.349163
 30
0.0
 10
7.174219
 20
7.394129
 30
0.0
 10
7.190625
 20
7.439094
 30
0.0
 10
7.164899
 20
7.451968
 30
0.0
 10
7.135927
 20
7.464307
 30
0.0
 10
7.103662
 20
7.476105
 30
0.0
 10
7.068055
 20
7.487358
 30
0.0
 10
7.029005
 20
7.496950
 30
0.0
 10
6.986458
 20
7.503783
 30
0.0
 10
6.940438
 20
7.507872
 30
0.0
 10
6.890972
 20
7.509233
 30
0.0
  0
LWPOLYLINE
  5
10e
100
AcDbEntity
  8
Layer_1
 62
7
100
AcDbPolyline
 90
49
 70
0
 10
2.165625
 20
7.485969
 30
0.0
 10
2.165625
 20
7.232583
 30
0.0
 10
2.165625
 20
6.979198
 30
0.0
 10
2.165625
 20
6.725813
 30
0.0
 10
2.165625
 20
6.472427
 30
0.0
 10
2.222656
 20
6.472427
 30
0.0
 10
2.279687
 20
6.472427
 30
0.0
 10
2.336719
 20
6.472427
 30
0.0
 10
2.393750
 20
6.472427
 30
0.0
 10
2.393750
 20
6.579893
 30
0.0
 10
2.393750
 20
6.687358
 30
0.0
 10
2.393750
 20
6.794823
 30
0.0
 10
2.393750
 20
6.902288
 30
0.0
 10
2.489497
 20
6.902288
 30
0.0
 10
2.585243
 20
6.902288
 30
0.0
 10
2.680990
 20
6.902288
 30
0.0
 10
2.776736
 20
6.902288
 30
0.0
 10
2.776736
 20
6.794823
 30
0.0
 10
2.776736
 20
6.687358
 30
0.0
 10
2.776736
 20
6.579893
 30
0.0
 10
2.776736
 20
6.472427
 30
0.0
 10
2.833767
 20
6.472427
 30
0.0
 10
2.890799
 20
6.472427
 30
0.0
 10
2.947830
 20
6.472427
 30
0.0
 10
3.004861
 20
6.472427
 30
0.0
 10
3.004861
 20
6.725813
 30
0.0
 10
3.004861
 20
6.979198
 30
0.0
 10
3.004861
 20
7.232583
 30
0.0
 10
3.004861
 20
7.485969
 30
0.0
 10
2.947830
 20
7.485969
 30
0.0
 10
2.890799
 20
7.485969
 30
0.0
 10
2.833767
 20
7.485969
 30
0.0
 10
2.776736
 20
7.485969
 30
0.0
 10
2.776736
 20
7.389094
 30
0.0
 10
2.776736
 20
7.292219
 30
0.0
 10
2.776736
 20
7.195344
 30
0.0
 10
2.776736
 20
7.098469
 30
0.0
 10
2.680990
 20
7.098469
 30
0.0
 10
2.585243
 20
7.098469
 30
0.0
 10
2.489497
 20
7.098469
 30
0.0
 10
2.393750
 20
7.098469
 30
0.0
 10
2.393750
 20
7.195344
 30
0.0
 10
2.393750
 20
7.292219
 30
0.0
 10
2.393750
 20
7.389094
 30
0.0
 10
2.393750
 20
7.485969
 30
0.0
 10
2.336719
 20
7.485969
 30
0.0
 10
2.279687
 20
7.485969
 30
0.0
 10
2.222656
 20
7.485969
 30
0.0
 10
2.165625
 20
7.485969
 30
0.0
  0
LWPOLYLINE
  5
10f
100
AcDbEntity
  8
Layer_1
 62
7
100
AcDbPolyline
 90
49
 70
0
 10
3.239236
 20
7.485969
 30
0.0
 10
3.239236
 20
7.232583
 30
0.0
 10
3.239236
 20
6.979198
 30
0.0
 10
3.239236
 20
6.725813
 30
0.0
 10
3.239236
 20
6.472427
 30
0.0
 10
3.418750
 20
6.472427
 30
0.0
 10
3.598264
 20
6.472427
 30
0.0
 10
3.777778
 20
6.472427
 30
0.0
 10
3.957292
 20
6.472427
 30
0.0
 10
3.957292
 20
6.520344
 30
0.0
 10
3.957292
 20
6.568261
 30
0.0
 10
3.957292
 20
6.616177
 30
0.0
 10
3.957292
 20
6.664094
 30
0.0
 10
3.834809
 20
6.664094
 30
0.0
 10
3.712326
 20
6.664094
 30
0.0
 10
3.589844
 20
6.664094
 30
0.0
 10
3.467361
 20
6.664094
 30
0.0
 10
3.467361
 20
6.725118
 30
0.0
 10
3.467361
 20
6.786143
 30
0.0
 10
3.467361
 20
6.847167
 30
0.0
 10
3.467361
 20
6.908191
 30
0.0
 10
3.568663
 20
6.908191
 30
0.0
 10
3.669965
 20
6.908191
 30
0.0
 10
3.771267
 20
6.908191
 30
0.0
 10
3.872569
 20
6.908191
 30
0.0
 10
3.872569
 20
6.954979
 30
0.0
 10
3.872569
 20
7.001768
 30
0.0
 10
3.872569
 20
7.048556
 30
0.0
 10
3.872569
 20
7.095344
 30
0.0
 10
3.771267
 20
7.095344
 30
0.0
 10
3.669965
 20
7.095344
 30
0.0
 10
3.568663
 20
7.095344
 30
0.0
 10
3.467361
 20
7.095344
 30
0.0
 10
3.467361
 20
7.145083
 30
0.0
 10
3.467361
 20
7.194823
 30
0.0
 10
3.467361
 20
7.244563
 30
0.0
 10
3.467361
 20
7.294302
 30
0.0
 10
3.581424
 20
7.294302
 30
0.0
 10
3.695486
 20
7.294302
 30
0.0
 10
3.809549
 20
7.294302
 30
0.0
 10
3.923611
 20
7.294302
 30
0.0
 10
3.923611
 20
7.342219
 30
0.0
 10
3.923611
 20
7.390136
 30
0.0
 10
3.923611
 20
7.438052
 30
0.0
 10
3.923611
 20
7.485969
 30
0.0
 10
3.752517
 20
7.485969
 30
0.0
 10
3.581424
 20
7.485969
 30
0.0
 10
3.410330
 20
7.485969
 30
0.0
 10
3.239236
 20
7.485969
 30
0.0
  0
LWPOLYLINE
  5
110
100
AcDbEntity
  8
Layer_1
 62
7
100
AcDbPolyline
 90
25
 70
0
 10
4.124653
 20
7.485969
 30
0.0
 10
4.124653
 20
7.232583
 30
0.0
 10
4.124653
 20
6.979198
 30
0.0
 10
4.124653
 20
6.725813
 30
0.0
 10
4.124653
 20
6.472427
 30
0.0
 10
4.293924
 20
6.472427
 30
0.0
 10
4.463194
 20
6.472427
 30
0.0
 10
4.632465
 20
6.472427
 30
0.0
 10
4.801736
 20
6.472427
 30
0.0
 10
4.801736
 20
6.521472
 30
0.0
 10
4.801736
 20
6.570518
 30
0.0
 10
4.801736
 20
6.619563
 30
0.0
 10
4.801736
 20
6.668608
 30
0.0
 10
4.689497
 20
6.668608
 30
0.0
 10
4.577257
 20
6.668608
 30
0.0
 10
4.465017
 20
6.668608
 30
0.0
 10
4.352778
 20
6.668608
 30
0.0
 10
4.352778
 20
6.872948
 30
0.0
 10
4.352778
 20
7.077288
 30
0.0
 10
4.352778
 20
7.281629
 30
0.0
 10
4.352778
 20
7.485969
 30
0.0
 10
4.295747
 20
7.485969
 30
0.0
 10
4.238715
 20
7.485969
 30
0.0
 10
4.181684
 20
7.485969
 30
0.0
 10
4.124653
 20
7.485969
 30
0.0
  0
LWPOLYLINE
  5
111
100
AcDbEntity
  8
Layer_1
 62
7
100
AcDbPolyline
 90
17
 70
0
 10
4.947222
 20
7.485969
 30
0.0
 10
4.947222
 20
7.232583
 30
0.0
 10
4.947222
 20
6.979198
 30
0.0
 10
4.947222
 20
6.725813
 30
0.0
 10
4.947222
 20
6.472427
 30
0.0
 10
5.004167
 20
6.472427
 30
0.0
 10
5.061111
 20
6.472427
 30
0.0
 10
5.118056
 20
6.472427
 30
0.0
 10
5.175000
 20
6.472427
 30
0.0
 10
5.175000
 20
6.725813
 30
0.0
 10
5.175000
 20
6.979198
 30
0.0
 10
5.175000
 20
7.232583
 30
0.0
 10
5.175000
 20
7.485969
 30
0.0
 10
5.118056
 20
7.485969
 30
0.0
 10
5.061111
 20
7.485969
 30
0.0
 10
5.004167
 20
7.485969
 30
0.0
 10
4.947222
 20
7.485969
 30
0.0
  0
LWPOLYLINE
  5
112
100
AcDbEntity
  8
Layer_1
 62
7
100
AcDbPolyline
 90
65
 70
0
 10
5.870139
 20
7.308886
 30
0.0
 10
5.900833
 20
7.307442
 30
0.0
 10
5.930016
 20
7.303099
 30
0.0
 10
5.957646
 20
7.295832
 30
0.0
 10
5.983681
 20
7.285622
 30
0.0
 10
6.007885
 20
7.272674
 30
0.0
 10
6.030063
 20
7.257230
 30
0.0
 10
6.050230
 20
7.239315
 30
0.0
 10
6.068403
 20
7.218955
 30
0.0
 10
6.084597
 20
7.196284
 30
0.0
 10
6.098807
 20
7.171423
 30
0.0
 10
6.111009
 20
7.144373
 30
0.0
 10
6.121181
 20
7.115136
 30
0.0
 10
6.129147
 20
7.083963
 30
0.0
 10
6.134782
 20
7.051087
 30
0.0
 10
6.138130
 20
7.016467
 30
0.0
 10
6.139236
 20
6.980066
 30
0.0
 10
6.138130
 20
6.943665
 30
0.0
 10
6.134782
 20
6.909051
 30
0.0
 10
6.129147
 20
6.876265
 30
0.0
 10
6.121181
 20
6.845344
 30
0.0
 10
6.111009
 20
6.816413
 30
0.0
 10
6.098807
 20
6.789576
 30
0.0
 10
6.084597
 20
6.764841
 30
0.0
 10
6.068403
 20
6.742219
 30
0.0
 10
6.050230
 20
6.721921
 30
0.0
 10
6.030063
 20
6.704128
 30
0.0
 10
6.007885
 20
6.688801
 30
0.0
 10
5.983681
 20
6.675899
 30
0.0
 10
5.957646
 20
6.665628
 30
0.0
 10
5.930016
 20
6.658243
 30
0.0
 10
5.900833
 20
6.653783
 30
0.0
 10
5.870139
 20
6.652288
 30
0.0
 10
5.838921
 20
6.653783
 30
0.0
 10
5.809552
 20
6.658243
 30
0.0
 10
5.782004
 20
6.665628
 30
0.0
 10
5.756250
 20
6.675899
 30
0.0
 10
5.732355
 20
6.688801
 30
0.0
 10
5.710393
 20
6.704128
 30
0.0
 10
5.690353
 20
6.721921
 30
0.0
 10
5.672222
 20
6.742219
 30
0.0
 10
5.656025
 20
6.764841
 30
0.0
 10
5.641811
 20
6.789576
 30
0.0
 10
5.629609
 20
6.816413
 30
0.0
 10
5.619444
 20
6.845344
 30
0.0
 10
5.611484
 20
6.876265
 30
0.0
 10
5.605848
 20
6.909051
 30
0.0
 10
5.602497
 20
6.943665
 30
0.0
 10
5.601389
 20
6.980066
 30
0.0
 10
5.602497
 20
7.015833
 30
0.0
 10
5.605848
 20
7.050018
 30
0.0
 10
5.611484
 20
7.082647
 30
0.0
 10
5.619444
 20
7.113747
 30
0.0
 10
5.629609
 20
7.142993
 30
0.0
 10
5.641812
 20
7.170046
 30
0.0
 10
5.656025
 20
7.194904
 30
0.0
 10
5.672222
 20
7.217566
 30
0.0
 10
5.690353
 20
7.237959
 30
0.0
 10
5.710393
 20
7.255998
 30
0.0
 10
5.732355
 20
7.271662
 30
0.0
 10
5.756250
 20
7.284927
 30
0.0
 10
5.782004
 20
7.295454
 30
0.0
 10
5.809552
 20
7.302935
 30
0.0
 10
5.838921
 20
7.307403
 30
0.0
 10
5.870139
 20
7.308886
 30
0.0
  0
LWPOLYLINE
  5
113
100
AcDbEntity
  8
Layer_1
 62
7
100
AcDbPolyline
 90
17
 70
0
 10
4.702083
 20
6.381108
 30
0.0
 10
4.041238
 20
6.352071
 30
0.0
 10
3.396620
 20
6.266612
 30
0.0
 10
2.770619
 20
6.127202
 30
0.0
 10
2.165625
 20
5.936316
 30
0.0
 10
2.781267
 20
6.071637
 30
0.0
 10
3.409986
 20
6.169824
 30
0.0
 10
4.050639
 20
6.229643
 30
0.0
 10
4.702083
 20
6.249858
 30
0.0
 10
5.353582
 20
6.229643
 30
0.0
 10
5.994354
 20
6.169824
 30
0.0
 10
6.623193
 20
6.071637
 30
0.0
 10
7.238889
 20
5.936316
 30
0.0
 10
6.633841
 20
6.127202
 30
0.0
 10
6.007720
 20
6.266612
 30
0.0
 10
5.362983
 20
6.352071
 30
0.0
 10
4.702083
 20
6.381108
 30
0.0
  0
ENDSEC
  0
SECTION
  2
OBJECTS
  0
DICTIONARY
  5
C
330
0
100
AcDbDictionary
  3
ACAD_GROUP
350
D
  3
ACAD_MLINESTYLE
350
17
  0
DICTIONARY
  5
D
330
C
100
AcDbDictionary
  0
DICTIONARY
  5
1A
330
C
100
AcDbDictionary
  0
DICTIONARY
  5
17
330
C
100
AcDbDictionary
  3
STANDARD
350
18
  0
DICTIONARY
  5
19
330
C
100
AcDbDictionary
  0
ENDSEC
  0
EOF
